<svg width="128" height="128" viewBox="0 0 128 128" fill="none" xmlns="http://www.w3.org/2000/svg">
<path d="M60.571 2C51.8528 2 45.5749 4.30709 41.9035 8.85474C38.2875 13.3469 37.3004 19.6914 38.9198 28.2321C38.1433 29.3746 37.6331 30.9829 37.8661 32.9794C38.3097 36.6619 39.6851 38.5031 40.9939 39.4238C41.726 43.1728 44.3437 46.8553 46.3735 48.7741V54.0871C45.3863 55.9395 42.4359 57.1374 39.064 58.5239C32.8415 61.0528 24.3229 64.5245 23.6574 75.6607C23.6131 76.4371 23.8904 77.2025 24.4228 77.7792C24.9663 78.3449 25.7205 78.6666 26.4969 78.6666H88.966C89.7425 78.6666 90.4967 78.3449 91.0291 77.7792C91.5726 77.2025 91.8388 76.4371 91.7944 75.6607C91.14 64.5245 82.6104 61.0528 76.399 58.5128C73.016 57.1374 70.0656 55.9284 69.0895 54.0871V48.7741C71.1082 46.8775 73.7702 43.2504 74.5467 39.6789C75.8666 38.7693 77.2642 36.917 77.6967 33.2123C77.9075 31.3711 77.5636 29.7073 76.7761 28.4761C78.2292 22.908 78.3179 15.7427 74.591 10.5851C72.8496 8.17813 69.633 5.36082 63.9096 4.90605L63.0112 3.38647C62.501 2.53241 61.5693 2 60.571 2ZM25.0772 84.3456L13.0315 96.6686C11.9889 96.0696 10.7909 95.7036 9.45992 95.7036C4.79027 95.7036 0.941406 99.5525 0.941406 104.223C0.941406 108.892 4.79027 112.741 9.45992 112.741C13.3199 112.741 16.0928 109.857 17.1133 106.308C17.679 105.753 17.9895 105.01 17.9784 104.223C17.9895 103.435 17.679 102.692 17.1133 102.137C16.9913 101.715 16.836 101.305 16.6696 100.906C16.9469 100.739 17.202 100.518 17.4127 100.24L32.176 84.3456H25.0772ZM54.892 84.3456V110.434C51.6088 111.621 49.213 114.749 49.213 118.42C49.213 123.09 53.0618 126.939 57.7315 126.939C62.4011 126.939 66.25 123.09 66.25 118.42C66.25 114.749 63.8542 111.621 60.571 110.434V84.3456H54.892ZM83.287 84.3456L98.0502 100.24C98.261 100.529 98.5161 100.739 98.7934 100.906C98.627 101.305 98.4717 101.715 98.3497 102.137C97.784 102.692 97.4734 103.435 97.4845 104.223C97.4734 105.01 97.784 105.753 98.3497 106.308C99.3701 109.857 102.143 112.741 106.003 112.741C110.673 112.741 114.522 108.892 114.522 104.223C114.522 99.5525 110.673 95.7036 106.003 95.7036C104.672 95.7036 103.474 96.0696 102.42 96.6686L90.3858 84.3456H83.287ZM9.45992 101.383C11.0682 101.383 12.2994 102.614 12.2994 104.223C12.2994 105.831 11.0682 107.062 9.45992 107.062C7.85161 107.062 6.62041 105.831 6.62041 104.223C6.62041 102.614 7.85161 101.383 9.45992 101.383ZM106.003 101.383C107.611 101.383 108.843 102.614 108.843 104.223C108.843 105.831 107.611 107.062 106.003 107.062C104.395 107.062 103.164 105.831 103.164 104.223C103.164 102.614 104.395 101.383 106.003 101.383ZM57.7315 115.581C59.3287 115.581 60.571 116.823 60.571 118.42C60.571 120.017 59.3287 121.26 57.7315 121.26C56.1343 121.26 54.892 120.017 54.892 118.42C54.892 116.823 56.1343 115.581 57.7315 115.581Z" fill="url(#paint0_linear_622_9)"/>
<defs>
<linearGradient id="paint0_linear_622_9" x1="0.941406" y1="2" x2="95.4574" y2="8.43271" gradientUnits="userSpaceOnUse">
<stop offset="0.527703" stop-color="#D39F36"/>
<stop offset="1" stop-color="#E6B656"/>
</linearGradient>
</defs>
</svg>
