<svg width="129" height="128" viewBox="0 0 129 128" fill="none" xmlns="http://www.w3.org/2000/svg">
<path d="M64 4C42.06 4 23.66 19.3989 19.04 39.9043C19.51 39.8544 20 39.7447 20.48 39.7447C21.79 39.7447 24.8531 40.014 26.0431 40.383C30.3831 22.4807 44.73 10.9047 64 10.9047C83.26 10.9047 97.6169 22.4807 101.957 40.383C103.147 40.014 106.2 39.7447 107.52 39.7447C108 39.7447 108.49 39.8544 108.96 39.9043C104.34 19.3989 85.93 4 64 4ZM20.48 44.8511C16.25 44.8511 12.8 48.2919 12.8 52.5106V90.8085C12.8 95.0273 16.25 98.4681 20.48 98.4681C24.71 98.4681 28.16 95.0273 28.16 90.8085V52.5106C28.16 48.2919 24.71 44.8511 20.48 44.8511ZM107.52 44.8511C103.29 44.8511 99.84 48.2919 99.84 52.5106V90.8085C99.84 95.0273 103.29 98.4681 107.52 98.4681C111.75 98.4681 115.2 95.0273 115.2 90.8085V52.5106C115.2 48.2919 111.75 44.8511 107.52 44.8511ZM7.68 52.8298C3.06 56.5299 0 63.4714 0 71.6596C0 79.8477 3.06 86.7892 7.68 90.4894V52.8298ZM120.32 52.8298V90.4894C124.94 86.7892 128 79.8477 128 71.6596C128 63.4714 124.94 56.5299 120.32 52.8298ZM103.018 102.117C99.8569 109.048 94.8884 112.888 87.04 112.888H84.24C84.41 113.716 84.48 115.463 84.48 116.34C84.48 117.218 84.41 118.066 84.24 118.894H87.04C98.54 118.894 106.5 113.129 109.12 103.415C108.58 103.485 108.07 103.574 107.52 103.574C106.26 103.574 104.168 102.456 103.018 102.117ZM58.88 108.681C54.65 108.681 51.2 112.122 51.2 116.34C51.2 120.559 54.65 124 58.88 124H71.68C75.91 124 79.36 120.559 79.36 116.34C79.36 112.122 75.91 108.681 71.68 108.681H58.88Z" fill="url(#paint0_linear_622_35)"/>
<defs>
<linearGradient id="paint0_linear_622_35" x1="0" y1="4" x2="106.331" y2="12.4912" gradientUnits="userSpaceOnUse">
<stop offset="0.527703" stop-color="#D39F36"/>
<stop offset="1" stop-color="#E6B656"/>
</linearGradient>
</defs>
</svg>
