<svg width="181" height="144" viewBox="0 0 181 144" fill="none" xmlns="http://www.w3.org/2000/svg">
<path d="M18.3335 0V43.2H11.1335C5.01631 43.2 0.333496 47.8828 0.333496 54V133.2C0.333496 139.317 5.01631 144 11.1335 144H169.533C175.651 144 180.333 139.317 180.333 133.2V54C180.333 47.8828 175.651 43.2 169.533 43.2H162.333V0H155.133V43.2H147.933V0H133.533V43.2H126.333V0H119.133V43.2H111.933V0H101.133V43.2H93.9335V0H86.7335V43.2H79.5335V0H50.7335V43.2H43.5335V0H32.7335V43.2H25.5335V0H18.3335ZM18.3335 50.4H25.5335V108H18.3335V50.4ZM32.7335 50.4H43.5335V108H32.7335V50.4ZM50.7335 50.4H79.5335V108H50.7335V50.4ZM86.7335 50.4H93.9335V108H86.7335V50.4ZM101.133 50.4H111.933V108H101.133V50.4ZM119.133 50.4H126.333V108H119.133V50.4ZM133.533 50.4H147.933V108H133.533V50.4ZM155.133 50.4H162.333V108H155.133V50.4Z" fill="url(#paint0_linear_591_1681)"/>
<defs>
<linearGradient id="paint0_linear_591_1681" x1="0.333496" y1="0" x2="149.508" y2="13.9601" gradientUnits="userSpaceOnUse">
<stop offset="0.527703" stop-color="#D39F36"/>
<stop offset="1" stop-color="#E6B656"/>
</linearGradient>
</defs>
</svg>
