<svg width="34" height="34" viewBox="0 0 34 34" fill="none" xmlns="http://www.w3.org/2000/svg">
<path d="M4.96127 0.952911C4.16554 0.95312 3.38795 1.19063 2.72791 1.63509C2.06787 2.07954 1.55538 2.71074 1.25595 3.44799C0.956524 4.18524 0.883767 4.99503 1.04698 5.77385C1.2102 6.55266 1.60197 7.26511 2.17221 7.8201L11.3441 16.992L2.17221 26.1638C1.78832 26.5324 1.48183 26.9739 1.27069 27.4624C1.05955 27.9509 0.948004 28.4767 0.94259 29.0088C0.937176 29.541 1.038 30.0689 1.23916 30.5616C1.44031 31.0543 1.73776 31.5019 2.11407 31.8782C2.49039 32.2546 2.93801 32.552 3.43072 32.7532C3.92343 32.9543 4.45132 33.0551 4.98348 33.0497C5.51565 33.0443 6.04138 32.9328 6.52989 32.7216C7.01841 32.5105 7.45988 32.204 7.82846 31.8201L17.0003 22.6482L26.1722 31.8201C26.5408 32.204 26.9823 32.5105 27.4708 32.7216C27.9593 32.9328 28.485 33.0443 29.0172 33.0497C29.5494 33.0552 30.0773 32.9543 30.57 32.7532C31.0627 32.552 31.5103 32.2546 31.8866 31.8783C32.2629 31.5019 32.5604 31.0543 32.7615 30.5616C32.9627 30.0689 33.0635 29.541 33.0581 29.0088C33.0527 28.4767 32.9411 27.9509 32.73 27.4624C32.5189 26.9739 32.2124 26.5324 31.8285 26.1638L22.6566 16.992L31.8285 7.8201C32.4065 7.25825 32.8013 6.53489 32.9611 5.74481C33.1209 4.95473 33.0384 4.13479 32.7242 3.39245C32.41 2.6501 31.8789 2.01999 31.2005 1.58467C30.5221 1.14935 29.7279 0.929149 28.9222 0.952911C27.883 0.983875 26.8967 1.41819 26.1722 2.16385L17.0003 11.3357L7.82846 2.16385C7.4557 1.78067 7.00992 1.47609 6.51746 1.2681C6.02501 1.06012 5.49585 0.952942 4.96127 0.952911Z" fill="#E03A3A"/>
</svg>
