<svg width="54" height="38" viewBox="0 0 54 38" fill="none" xmlns="http://www.w3.org/2000/svg">
<path d="M48.931 0.982208C47.8918 1.01317 46.9055 1.44749 46.181 2.19315L21.0091 27.365L7.83725 14.1931C7.46867 13.8093 7.02719 13.5028 6.53868 13.2916C6.05017 13.0805 5.52443 12.9689 4.99227 12.9635C4.46011 12.9581 3.93221 13.0589 3.43951 13.2601C2.9468 13.4612 2.49918 13.7587 2.12286 14.135C1.74655 14.5113 1.4491 14.9589 1.24794 15.4516C1.04679 15.9444 0.945965 16.4723 0.951379 17.0044C0.956793 17.5366 1.06834 18.0623 1.27948 18.5508C1.49061 19.0393 1.79711 19.4808 2.181 19.8494L18.181 35.8494C18.9312 36.5993 19.9484 37.0205 21.0091 37.0205C22.0698 37.0205 23.0871 36.5993 23.8373 35.8494L51.8372 7.8494C52.4153 7.28754 52.81 6.56418 52.9699 5.7741C53.1297 4.98402 53.0472 4.16409 52.733 3.42174C52.4188 2.6794 51.8877 2.04928 51.2093 1.61397C50.5309 1.17865 49.7367 0.958446 48.931 0.982208Z" fill="#4AD93A"/>
</svg>
