<svg width="128" height="128" viewBox="0 0 128 128" fill="none" xmlns="http://www.w3.org/2000/svg">
<path d="M71.3639 0.369385C66.7524 0.369385 62.3864 1.40942 58.4486 3.2254C58.3923 3.22477 58.34 3.20889 58.2835 3.20889H17.3199C8.6983 3.20889 0.849609 11.2641 0.849609 20.1138V110.273C0.849609 120.749 10.6939 127.178 17.7546 127.178H58.2835C67.0065 127.178 74.1044 120.081 74.1044 111.358V62.2167C90.2236 59.2235 100.372 45.5358 100.372 31.3618C100.372 14.2785 88.4472 0.369385 71.3639 0.369385ZM71.3639 4.01987C85.4019 4.01987 96.7213 17.3239 96.7213 31.3618C96.7213 45.3997 85.4019 58.7037 71.3639 58.7037C57.326 58.7037 46.0065 45.3997 46.0065 31.3618C46.0065 17.3239 57.326 4.01987 71.3639 4.01987ZM68.8546 11.6393V16.57C61.3065 17.697 61.0846 24.4947 61.0846 25.2921C61.0846 32.2682 66.5855 33.5282 71.0118 34.5425C74.9845 35.4554 77.23 36.1072 77.23 38.8458C77.23 40.4883 76.4643 43.2481 71.3365 43.2481C71.2237 43.2481 68.5608 43.2277 66.8901 41.5147C65.904 40.5032 65.4279 39.0464 65.4758 37.1784L65.5089 35.8137H60.3471L60.3856 37.1784C60.5519 43.1966 63.3239 46.6122 68.8546 47.5899V51.0843H73.8568V47.6504C81.9064 46.4361 82.3258 40.1032 82.3258 38.8073C82.3286 32.0735 76.8248 30.7782 72.3985 29.733C68.4258 28.7976 66.1802 28.1397 66.1802 25.5618C66.1802 22.4766 67.8435 21.0383 71.419 21.0383C75.5607 21.0383 76.4644 23.8258 76.4981 26.1616L76.5202 27.4712H81.5058L81.5884 26.2331C81.7434 23.9114 80.8233 21.3237 79.1836 19.481C77.7974 17.9286 75.9671 16.9305 73.8568 16.5755V11.6393H68.8546ZM6.99909 18.1293C6.99909 13.1974 10.9973 9.19912 15.9293 9.19912H51.4479C43.5879 16.0607 42.3561 24.4948 42.3561 31.3618C42.3561 41.5147 48.3037 56.3038 67.2133 62.2167L67.955 112.418H37.477H6.99909V18.1293ZM37.477 114.659C39.8099 114.659 41.7033 116.552 41.7033 118.885C41.7033 121.218 39.8099 123.111 37.477 123.111C35.1441 123.111 33.2508 121.218 33.2508 118.885C33.2508 116.552 35.1441 114.659 37.477 114.659Z" fill="url(#paint0_linear_622_19)"/>
<defs>
<linearGradient id="paint0_linear_622_19" x1="0.849609" y1="0.369385" x2="85.4062" y2="5.43665" gradientUnits="userSpaceOnUse">
<stop offset="0.527703" stop-color="#D39F36"/>
<stop offset="1" stop-color="#E6B656"/>
</linearGradient>
</defs>
</svg>
