<svg width="128" height="128" viewBox="0 0 128 128" fill="none" xmlns="http://www.w3.org/2000/svg">
<path d="M81.3846 17.0202C79.9809 17.1168 78.5963 17.5998 77.0769 18.4114C70.2695 22.0441 45.5769 36.169 45.5385 36.1883C42.0385 38.2558 40.8654 42.8739 42.9231 46.3907C44.8654 49.7142 49.0577 50.9508 52.4615 49.3277C52.8077 49.1538 64.7883 42.9899 70.3077 40.0528C76.1926 36.9225 79.8462 40.5166 79.8462 40.5166C79.8462 40.5166 101.096 61.8102 107.077 67.5683C110.962 71.317 116.289 69.4813 118 69.2687C119.711 69.0562 128 67.4138 128 67.4138V28.4592C128 28.4592 115.308 31.4349 107.846 32.9421C105.558 33.4058 102.769 31.86 102.769 31.86C102.769 31.86 96.5772 26.5463 89.6923 20.7301C86.2117 17.7737 83.7311 16.8463 81.3846 17.0202ZM48.1538 17.4839C40.3077 17.4839 24 28.3046 24 28.3046C24 28.3046 19.3846 31.2997 12.7692 28.6138L0 24.1309V68.6504C0 68.6504 3.65385 69.7905 6.92308 71.1237C7.67311 69.0176 8.80769 67.008 10.4615 65.4042C15.8846 60.2064 24.9039 60.1484 29.8462 65.2496C31.3269 66.7954 32.3846 68.7857 32.9231 70.8146C34.9231 71.4329 36.6923 72.399 38.1538 73.9062C39.6538 75.452 40.6923 77.2877 41.2308 79.3166C43.2308 79.9349 45 81.0559 46.4615 82.5628C48.0961 84.2632 49.173 86.3692 49.6923 88.5915C51.7692 89.2098 53.7115 90.2727 55.2308 91.8377C58.1923 94.891 59.25 99.103 58.6154 103.122C58.6154 103.122 60.4038 105.228 61.5385 106.368C63.7311 108.571 67.3465 108.571 69.5385 106.368C71.7311 104.166 71.7311 100.533 69.5385 98.3301C69.4615 98.2528 61.4231 90.0989 62.1538 89.3644C62.8849 88.6304 73.0578 99.2384 73.0769 99.2576C75.2498 101.441 78.7502 101.441 80.9231 99.2576C83.0388 97.1126 83.096 93.7316 81.0769 91.5285C81.0388 91.4902 71.8849 81.5969 72.4615 81.017C73.1157 80.3603 84.1348 91.8377 84.1538 91.8377C86.3655 93.8862 89.8462 93.8472 92 91.6831C94.1538 89.5189 94.0578 86.0217 92 83.7994C91.9809 83.7803 82.9618 74.0221 83.5385 73.4425C84.1157 72.8628 93.5194 82.2344 93.5385 82.2536C95.7311 84.4567 99.1926 84.4567 101.385 82.2536C103.577 80.0511 103.577 76.4181 101.385 74.2154C101.346 74.1767 89.1157 62.0614 76.7692 49.6369C76.7692 49.6369 73.1926 45.7723 68.3077 47.9365C64.8849 49.4437 60.4038 51.6271 57.0769 53.1923C53.4231 55.1245 50.1923 55.6656 49.5385 55.6656C42.4615 55.6656 36.7692 49.9267 36.7692 42.8353C36.7692 38.2365 39.1538 34.1401 42.7692 31.86C47.8654 28.3046 59.6923 22.1214 59.6923 22.1214C59.6923 22.1214 56 17.4839 48.1538 17.4839ZM20.3077 67.4138C18.3462 67.4718 16.3462 68.206 14.7692 69.7325C11.6154 72.7855 9.48074 78.4084 12.3077 81.6353C15.1154 84.8623 18.4423 82.8138 20.9231 82.2536C20.2308 84.7077 18.0769 87.0846 20.6154 90.2918C23.1346 93.5189 26.75 91.4704 29.2308 90.9102C28.5385 93.3643 26.4807 95.9532 28.9231 98.9484C31.3654 101.944 35.5 100.243 38.1538 99.4122C37.1346 102.059 34.8846 105.016 37.6923 108.223C40.5 111.431 46.9808 109.885 50.1538 106.832C53.3077 103.799 53.5577 98.9101 50.7692 96.0114C48.8462 94.0408 46.0192 93.6345 43.3846 94.4656C44.4231 91.8185 44.1346 88.7652 42.1538 86.7365C40.3846 84.9007 37.7115 84.4759 35.2308 85.0361C35.9231 82.5819 35.6346 79.9349 33.8462 78.0799C32.0769 76.2636 29.4038 75.8192 26.9231 76.3795C27.6154 73.9255 27.3077 71.2783 25.5385 69.4233C24.1346 67.9742 22.2692 67.3558 20.3077 67.4138Z" fill="url(#paint0_linear_622_28)"/>
<defs>
<linearGradient id="paint0_linear_622_28" x1="-2.41209e-09" y1="17" x2="105.885" y2="27.9105" gradientUnits="userSpaceOnUse">
<stop offset="0.527703" stop-color="#D39F36"/>
<stop offset="1" stop-color="#E6B656"/>
</linearGradient>
</defs>
</svg>
