<svg width="128" height="128" viewBox="0 0 128 128" fill="none" xmlns="http://www.w3.org/2000/svg">
<g clip-path="url(#clip0_622_33)">
<path d="M64 0C28.6974 0 0 28.6974 0 64C0 99.3026 28.6974 128 64 128C98.2644 128 128 100.959 128 64C128 28.6974 99.3026 0 64 0ZM64 6.73684C95.671 6.73684 121.263 32.329 121.263 64C121.263 79.5922 115.026 93.6842 104.947 104C104.566 104.276 104.237 104.645 104 105.053C93.6842 115.105 79.5658 121.263 64 121.263C32.329 121.263 6.73684 95.671 6.73684 64C6.73684 32.329 32.329 6.73684 64 6.73684ZM64 13.4737C36.1448 13.4737 13.4737 36.1448 13.4737 64C13.4737 76.7236 18.2105 88.3684 26 97.2632L97.2632 26C88.3684 18.2105 76.7236 13.4737 64 13.4737ZM60 20.2106H68V29.2632C73.6974 30.2236 77.5264 32.6184 80.2106 35.8948L74.7368 41.3684C72.5 38.4736 69.0132 36.5264 64 36.5264C52.1184 36.5264 50.6316 44.4736 50.6316 48.1052C50.6316 53.2894 53.7632 56.0658 58.2106 57.8948L51.7894 64.3158C46.2236 61.8026 42 57.5264 42 48.9474C42 35.2368 53.4342 29.8422 60 29.0526V20.2106ZM102 30.7368L30.7368 102C39.6316 109.789 51.2764 114.526 64 114.526C91.8552 114.526 114.526 91.8552 114.526 64C114.526 51.2764 109.789 39.6316 102 30.7368ZM76.5264 63.3684C82.9078 66.1316 87.7894 70.7632 87.7894 79.6842C87.8026 95.3422 73.9078 99.6448 68 100.211V107.789H60V100.105C56.1052 99.5264 50.5922 97.9868 46.3158 93.579L52 88C54.4474 90.7368 58.2106 92.7368 64 92.7368C76.3158 92.7368 79.2632 87.0264 79.2632 80.5264C79.2632 74.3552 75.3816 71.5264 70.2106 69.6842L76.5264 63.3684Z" fill="url(#paint0_linear_622_33)"/>
</g>
<defs>
<linearGradient id="paint0_linear_622_33" x1="0" y1="0" x2="106.412" y2="7.96662" gradientUnits="userSpaceOnUse">
<stop offset="0.527703" stop-color="#D39F36"/>
<stop offset="1" stop-color="#E6B656"/>
</linearGradient>
<clipPath id="clip0_622_33">
<rect width="128" height="128" fill="white"/>
</clipPath>
</defs>
</svg>
