<svg width="128" height="129" viewBox="0 0 128 129" fill="none" xmlns="http://www.w3.org/2000/svg">
<path d="M61 0C54.8834 0 49.9091 4.992 49.9091 11.1304C49.9091 17.2689 54.8834 22.2609 61 22.2609C67.1166 22.2609 72.0909 17.2689 72.0909 11.1304C72.0909 4.992 67.1166 0 61 0ZM11.0909 25.0435C4.97427 25.0435 0 30.0355 0 36.1739C0 42.3123 4.97427 47.3043 11.0909 47.3043C17.2075 47.3043 22.1818 42.3123 22.1818 36.1739C22.1818 30.0355 17.2075 25.0435 11.0909 25.0435ZM110.909 25.0435C104.792 25.0435 99.8182 30.0355 99.8182 36.1739C99.8182 42.3123 104.792 47.3043 110.909 47.3043C117.026 47.3043 122 42.3123 122 36.1739C122 30.0355 117.026 25.0435 110.909 25.0435ZM58.2273 27.5761V47.5598C59.1312 47.404 60.0545 47.3043 61 47.3043C61.9455 47.3043 62.8688 47.4013 63.7727 47.5543V27.5761C62.8688 27.7291 61.9455 27.8261 61 27.8261C60.0545 27.8261 59.1312 27.7291 58.2273 27.5761ZM95.2367 41.7228L73.9755 53.5815C75.1317 55.0285 76.0404 56.6676 76.667 58.4457L97.9282 46.5924C96.7747 45.1482 95.8661 43.5009 95.2367 41.7228ZM26.7471 41.7772C26.1121 43.5497 25.1983 45.189 24.0393 46.6304L45.2626 58.6304C45.8698 56.844 46.7685 55.1944 47.9054 53.7391L26.7471 41.7772ZM61 52.8696C54.8861 52.8696 49.9091 57.8643 49.9091 64C49.9091 70.1357 54.8861 75.1304 61 75.1304C67.1139 75.1304 72.0909 70.1357 72.0909 64C72.0909 57.8643 67.1139 52.8696 61 52.8696ZM45.3005 69.4674L24.0556 81.3859C25.2118 82.83 26.1231 84.4747 26.7525 86.25L47.9703 74.3478C46.8252 72.8981 45.9188 71.2483 45.3005 69.4674ZM76.6183 69.6957C76.2966 70.5805 75.9114 71.4267 75.4539 72.2337C75.4512 72.2393 75.4459 72.2471 75.4431 72.2554C74.9856 73.0596 74.4683 73.8203 73.8888 74.5326L95.2259 86.3043C95.8497 84.529 96.7612 82.8817 97.9119 81.4348L76.6183 69.6957ZM58.2273 80.4457V100.429C59.1312 100.276 60.0545 100.179 61 100.179C61.9455 100.179 62.8688 100.276 63.7727 100.429V80.4457C62.8688 80.5987 61.9455 80.6957 61 80.6957C60.0545 80.6957 59.1312 80.5987 58.2273 80.4457ZM11.0909 80.6957C4.97427 80.6957 0 85.6877 0 91.8261C0 97.9645 4.97427 102.957 11.0909 102.957C17.2075 102.957 22.1818 97.9645 22.1818 91.8261C22.1818 85.6877 17.2075 80.6957 11.0909 80.6957ZM110.909 80.6957C104.792 80.6957 99.8182 85.6877 99.8182 91.8261C99.8182 97.9645 104.792 102.957 110.909 102.957C117.026 102.957 122 97.9645 122 91.8261C122 85.6877 117.026 80.6957 110.909 80.6957ZM61 105.739C54.8834 105.739 49.9091 110.731 49.9091 116.87C49.9091 123.008 54.8834 128 61 128C67.1166 128 72.0909 123.008 72.0909 116.87C72.0909 110.731 67.1166 105.739 61 105.739Z" fill="url(#paint0_linear_622_30)"/>
<defs>
<linearGradient id="paint0_linear_622_30" x1="0" y1="0" x2="101.476" y2="7.24095" gradientUnits="userSpaceOnUse">
<stop offset="0.527703" stop-color="#D39F36"/>
<stop offset="1" stop-color="#E6B656"/>
</linearGradient>
</defs>
</svg>
