<svg width="128" height="128" viewBox="0 0 128 128" fill="none" xmlns="http://www.w3.org/2000/svg">
<path d="M9.13043 0C4.08587 0 0 4.09143 0 9.14286V118.857C0 123.909 4.08587 128 9.13043 128H73.0435C78.088 128 82.1739 123.909 82.1739 118.857V100.571H73.0435V118.857H9.13043V9.14286H22.8261L24.7164 11.0357C26.4283 12.75 28.7523 13.7143 31.1719 13.7143H51.002C53.4216 13.7143 55.7456 12.75 57.4575 11.0357L59.3478 9.14286H73.0435V22.8571H82.1739V9.14286C82.1739 4.09143 78.088 0 73.0435 0H9.13043ZM34.2391 4.57143H43.3696C44.6296 4.57143 45.6522 5.59543 45.6522 6.85714C45.6522 8.11886 44.6296 9.14286 43.3696 9.14286H34.2391C32.9791 9.14286 31.9565 8.11886 31.9565 6.85714C31.9565 5.59543 32.9791 4.57143 34.2391 4.57143ZM52.5 4.57143C53.76 4.57143 54.7826 5.59543 54.7826 6.85714C54.7826 8.11886 53.76 9.14286 52.5 9.14286C51.24 9.14286 50.2174 8.11886 50.2174 6.85714C50.2174 5.59543 51.24 4.57143 52.5 4.57143ZM31.9565 32C26.912 32 22.8261 36.0914 22.8261 41.1429V82.2857C22.8261 87.3371 26.912 91.4286 31.9565 91.4286H36.5217V105.143L54.7826 91.4286H95.8696C100.914 91.4286 105 87.3371 105 82.2857V41.1429C105 36.0914 100.914 32 95.8696 32H31.9565ZM63.913 41.1429C66.433 41.1429 68.4783 43.1909 68.4783 45.7143C68.4783 46.048 68.355 46.3363 68.2911 46.6517C71.5735 48.0643 74.1006 50.9937 74.8356 54.6874L76.3424 62.232C77.1733 66.36 79.1974 70.1623 82.1739 73.1429H45.6522C48.6287 70.1623 50.6574 66.3646 51.4837 62.232L52.9905 54.6786C53.7255 50.9894 56.2438 48.06 59.5262 46.6429C59.4668 46.332 59.3478 46.048 59.3478 45.7143C59.3478 43.1909 61.393 41.1429 63.913 41.1429ZM59.3478 77.7143H68.4783C68.4783 80.2377 66.433 82.2857 63.913 82.2857C61.393 82.2857 59.3478 80.2377 59.3478 77.7143Z" fill="url(#paint0_linear_622_12)"/>
<defs>
<linearGradient id="paint0_linear_622_12" x1="0" y1="0" x2="87.4508" y2="5.37063" gradientUnits="userSpaceOnUse">
<stop offset="0.527703" stop-color="#D39F36"/>
<stop offset="1" stop-color="#E6B656"/>
</linearGradient>
</defs>
</svg>
