<svg width="180" height="181" viewBox="0 0 180 181" fill="none" xmlns="http://www.w3.org/2000/svg">
<path d="M90 0C82.2115 0 74.854 3.04952 69.3371 8.59679L34.7581 43.3664H46.477C52.2462 43.3664 57.6918 45.6134 61.7664 49.7467L86.1759 74.2907C88.2672 76.3936 91.7327 76.3945 93.8241 74.2553L118.234 49.7467C122.308 45.6134 127.754 43.3664 133.523 43.3664H145.242L110.663 8.59679C105.146 3.04952 97.7885 0 90 0ZM27.5466 50.6177L8.54573 69.7232C-2.84858 81.1803 -2.84858 99.8197 8.54573 111.277L27.5466 130.382H46.477C50.3352 130.382 53.9412 128.86 56.6816 126.141L81.0911 101.597C85.995 96.6656 94.005 96.6656 98.9088 101.597L123.318 126.141C126.059 128.86 129.665 130.382 133.523 130.382H152.453L171.454 111.277C182.849 99.8197 182.849 81.1803 171.454 69.7232L152.453 50.6177H133.523C129.665 50.6177 126.059 52.1402 123.318 54.8594L98.9088 79.4035C96.4569 81.8689 93.2452 83.107 90 83.107C86.7548 83.107 83.5431 81.8689 81.0911 79.4035L56.6816 54.8594C53.9412 52.1402 50.3352 50.6177 46.477 50.6177H27.5466ZM90 105.137C88.6118 105.142 87.2216 105.675 86.1759 106.745L61.7664 131.253C57.6918 135.387 52.2462 137.634 46.477 137.634H34.7581L69.3371 172.403C74.854 177.95 82.2115 181 90 181C97.7885 181 105.146 177.95 110.663 172.403L145.242 137.634H133.523C127.754 137.634 122.308 135.387 118.234 131.253L93.8241 106.709C92.7784 105.658 91.3882 105.133 90 105.137Z" fill="url(#paint0_linear_591_1677)"/>
<defs>
<linearGradient id="paint0_linear_591_1677" x1="0" y1="0" x2="149.652" y2="11.1418" gradientUnits="userSpaceOnUse">
<stop offset="0.527703" stop-color="#D39F36"/>
<stop offset="1" stop-color="#E6B656"/>
</linearGradient>
</defs>
</svg>
