<svg width="128" height="128" viewBox="0 0 128 128" fill="none" xmlns="http://www.w3.org/2000/svg">
<g clip-path="url(#clip0_622_22)">
<path d="M66.3715 0C63.9442 0 61.5167 0.924148 59.6678 2.77778L2.77884 59.6667C-0.923677 63.3692 -0.923677 69.3716 2.77884 73.0741L40.7048 111C44.4073 114.703 50.4097 114.703 54.1122 111L55.0195 110.092C53.1895 105.343 52.1492 100.2 52.1492 94.8148C52.1492 71.2865 71.2876 52.1481 94.8159 52.1481C100.201 52.1481 105.343 53.1884 110.094 55.0187L111.001 54.1111C112.855 52.2622 113.779 49.8347 113.779 47.4074V18.963C113.779 8.49067 105.288 0 94.8159 0H66.3715ZM94.8159 9.48148C100.054 9.48148 104.297 13.7244 104.297 18.963C104.297 24.2015 100.054 28.4444 94.8159 28.4444C89.5774 28.4444 85.3344 24.2015 85.3344 18.963C85.3344 13.7244 89.5774 9.48148 94.8159 9.48148ZM94.8159 61.6296C76.5214 61.6296 61.6307 76.5156 61.6307 94.8148C61.6307 113.114 76.5214 128 94.8159 128C97.4375 128 99.5567 125.876 99.5567 123.259C99.5567 120.642 97.4375 118.519 94.8159 118.519C81.7457 118.519 71.1122 107.885 71.1122 94.8148C71.1122 81.7446 81.7457 71.1111 94.8159 71.1111C107.886 71.1111 118.52 81.7446 118.52 94.8148C118.52 98.8492 117.531 102.706 115.64 106.157L109.038 99.5556V118.519H128.001L122.455 112.972C126.02 107.568 128.001 101.385 128.001 94.8148C128.001 76.5156 113.11 61.6296 94.8159 61.6296Z" fill="url(#paint0_linear_622_22)"/>
</g>
<defs>
<linearGradient id="paint0_linear_622_22" x1="0.00195202" y1="-8.27199e-08" x2="106.414" y2="7.96652" gradientUnits="userSpaceOnUse">
<stop offset="0.527703" stop-color="#D39F36"/>
<stop offset="1" stop-color="#E6B656"/>
</linearGradient>
<clipPath id="clip0_622_22">
<rect width="128" height="128" fill="white"/>
</clipPath>
</defs>
</svg>
