<svg width="132" height="133" viewBox="0 0 132 133" fill="none" xmlns="http://www.w3.org/2000/svg">
<path d="M126.457 61.941C127.011 61.941 127.56 62.0518 128.071 62.2672C128.582 62.4827 129.046 62.7982 129.434 63.1949C129.821 63.5915 130.127 64.0612 130.333 64.5768C130.537 65.0883 130.639 65.6355 130.633 66.1862L130.627 67.025C130.18 102.492 101.446 131.186 66.1328 131.186C44.2045 131.186 24.8117 120.131 13.1582 103.255V120.573L13.1553 120.78C13.1185 121.815 12.7029 122.805 11.9814 123.553C11.2117 124.352 10.157 124.812 9.04883 124.83C8.48931 124.839 7.9334 124.734 7.41504 124.523C6.89672 124.312 6.4262 123.997 6.03125 123.6C5.63634 123.203 5.32411 122.73 5.11426 122.211C4.90615 121.695 4.80288 121.143 4.80859 120.587H4.80762V90.7858H34.3828V90.7867C34.9324 90.7808 35.4777 90.8831 35.9873 91.0895C36.5013 91.2976 36.9687 91.6065 37.3623 91.9977C37.7559 92.3888 38.0674 92.8549 38.2803 93.3678C38.4931 93.8806 38.6035 94.4305 38.6035 94.986C38.6035 95.5415 38.4932 96.0922 38.2803 96.6051C38.0674 97.1177 37.7557 97.5833 37.3623 97.9742C36.9687 98.3654 36.5012 98.6743 35.9873 98.8824C35.4777 99.0889 34.9324 99.1911 34.3828 99.1852V99.1862H20.5488C30.7406 113.471 47.3303 122.786 66.1328 122.786C97.1722 122.786 122.282 97.4893 122.282 66.1862C122.276 65.6355 122.378 65.0883 122.582 64.5768C122.788 64.0612 123.094 63.5915 123.481 63.1949C123.87 62.7982 124.333 62.4827 124.844 62.2672C125.355 62.0519 125.903 61.9411 126.457 61.941ZM81.0518 36.4078C81.5975 36.2693 82.1656 36.2428 82.7217 36.3307C83.2779 36.4187 83.8112 36.6194 84.2881 36.9196C84.7648 37.2196 85.1757 37.6135 85.4971 38.0768C85.8185 38.5401 86.0437 39.0636 86.1592 39.6158C86.2746 40.1681 86.2783 40.738 86.1699 41.2916C86.064 41.8327 85.8518 42.3468 85.5479 42.8063L85.5488 42.8073L53.8066 93.9918L53.8076 93.9928C53.4582 94.5776 52.972 95.0686 52.3906 95.4225C51.8093 95.7763 51.1506 95.9824 50.4717 96.0221H50.4629C50.3262 96.029 50.1894 96.0288 50.0527 96.0221V96.0231C49.3172 95.9906 48.6037 95.7627 47.9844 95.3639C47.365 94.965 46.862 94.4087 46.5254 93.7526C46.1889 93.0966 46.0296 92.3634 46.0645 91.6266C46.0991 90.8943 46.3241 90.1834 46.7168 89.5651L78.4668 38.3658C78.7428 37.8893 79.1086 37.4708 79.5459 37.1364C79.9935 36.794 80.5059 36.5464 81.0518 36.4078ZM66.1328 1.18616C88.0665 1.18616 107.458 12.2459 119.107 29.1266V11.7858C119.102 11.2353 119.203 10.6887 119.407 10.1774C119.613 9.66152 119.919 9.19124 120.307 8.79456C120.695 8.39791 121.158 8.08226 121.669 7.86682C122.18 7.65154 122.728 7.54069 123.282 7.54065C123.837 7.54065 124.386 7.65141 124.896 7.86682C125.407 8.08228 125.871 8.39786 126.259 8.79456C126.647 9.19123 126.953 9.66156 127.158 10.1774C127.362 10.6887 127.463 11.2353 127.457 11.7858V41.5865H120.005C119.543 41.6652 119.072 41.6643 118.61 41.5856L97.8828 41.5797V41.5787C97.3332 41.5847 96.788 41.4824 96.2783 41.276C95.7644 41.0678 95.2969 40.7589 94.9033 40.3678C94.5099 39.9768 94.1982 39.5113 93.9854 38.9987C93.7725 38.4858 93.6621 37.935 93.6621 37.3795C93.6622 36.8242 93.7725 36.2741 93.9854 35.7614C94.1983 35.2485 94.5098 34.7823 94.9033 34.3912C95.2969 34.0001 95.7644 33.6912 96.2783 33.483C96.7918 33.2751 97.3417 33.1726 97.8955 33.1803L111.716 33.1852C101.526 18.9014 84.9364 9.58655 66.1328 9.58655C35.0934 9.58655 9.9834 34.883 9.9834 66.1862C9.99486 67.2911 9.57276 68.3576 8.80664 69.153C8.03684 69.9519 6.9814 70.4119 5.87305 70.4293C5.31367 70.4381 4.75848 70.3339 4.24023 70.1227C3.72179 69.9113 3.25047 69.5972 2.85547 69.1998C2.46064 68.8026 2.14924 68.33 1.93945 67.8102C1.72961 67.2902 1.62519 66.7333 1.63281 66.1725C1.64016 30.3267 30.5465 1.18616 66.1328 1.18616ZM92.5322 85.3864C92.5321 91.195 87.7901 95.9859 82.0078 95.986C76.2255 95.986 71.4825 91.195 71.4824 85.3864V78.986C71.4825 73.1773 76.2255 68.3864 82.0078 68.3864C86.5113 68.3864 89.5797 71.5909 91.0908 75.2965L91.7539 76.2242L91.8584 76.3707L91.9053 76.5436L92.498 78.7242L92.5322 78.8531V85.3864ZM60.7832 53.3864C60.7831 59.195 56.0402 63.986 50.2578 63.986C44.4755 63.9859 39.7335 59.195 39.7334 53.3864V46.986C39.7335 41.1773 44.4755 36.3864 50.2578 36.3864C54.7848 36.3864 57.8625 39.624 59.3652 43.3541L60.0693 44.6481L60.1143 44.7321L60.1436 44.8219L60.7354 46.6823L60.7832 46.8307V53.3864Z" fill="url(#paint0_linear_619_3)" stroke="url(#paint1_linear_619_3)" stroke-width="2"/>
<defs>
<linearGradient id="paint0_linear_619_3" x1="129.633" y1="130.186" x2="24.0426" y2="122.343" gradientUnits="userSpaceOnUse">
<stop offset="0.527703" stop-color="#D39F36"/>
<stop offset="1" stop-color="#E6B656"/>
</linearGradient>
<linearGradient id="paint1_linear_619_3" x1="129.633" y1="130.186" x2="24.0426" y2="122.343" gradientUnits="userSpaceOnUse">
<stop offset="0.527703" stop-color="#D39F36"/>
<stop offset="1" stop-color="#E6B656"/>
</linearGradient>
</defs>
</svg>
