<svg width="501" height="501" viewBox="0 0 501 501" fill="none" xmlns="http://www.w3.org/2000/svg">
<path d="M400.937 1.00001C397.968 1.39063 395.312 3.10939 393.749 5.68751L377.499 32.5625C372.421 32.1719 367.226 32.1328 362.187 32.5625L345.624 6.00001C342.968 1.82032 337.656 0.218759 333.124 2.25001L304.999 14.125C300.429 16 297.929 20.8828 299.062 25.6875L305.937 56C302.109 59.3203 298.632 62.9922 295.312 66.9375L264.687 60.0625C259.921 59.125 255.156 61.7813 253.437 66.3125L241.874 94.4375C239.843 98.9688 241.445 104.281 245.624 106.938L272.187 123.5C271.835 128.617 271.757 133.773 272.187 138.813L245.937 155.375C241.757 158.031 240.156 163.344 242.187 167.875L254.062 196C255.898 200.414 260.624 202.914 265.312 201.938L295.937 195.063C299.257 198.891 302.929 202.367 306.874 205.688L299.999 236.313C299.023 241 301.523 245.727 305.937 247.563L334.374 259.125C338.827 260.961 343.945 259.398 346.562 255.375L363.437 228.813C368.671 229.164 373.906 228.969 379.062 228.5L395.937 255.063C398.554 259.086 403.671 260.648 408.124 258.813L436.562 246.938C440.976 244.945 443.359 240.102 442.187 235.375L434.687 204.75C438.437 201.508 442.07 197.953 445.312 194.125L476.249 200.688C481.132 201.781 486.054 199.125 487.812 194.438L499.374 166.313C501.327 161.703 499.609 156.391 495.312 153.813L468.437 137.25C468.788 132.289 468.515 127.445 468.124 122.563L494.687 105.063C498.827 102.523 500.546 97.3672 498.749 92.875L486.562 64.75C484.687 60.1797 479.804 57.6797 474.999 58.8125L444.687 66.3125C441.327 62.4063 437.734 58.7344 433.749 55.375L440.312 24.75C441.445 19.9453 438.945 15.0625 434.374 13.1875L405.937 1.62501C404.335 1.00001 402.617 0.765634 400.937 1.00001ZM406.249 23.5L419.062 28.8125L413.124 56.625C412.343 60.4141 413.788 64.2813 416.874 66.625C423.32 71.3516 428.827 76.9766 433.437 83.1875C435.859 86.5078 440.077 87.9922 444.062 86.9375L471.562 80.0625L476.874 92.875L452.812 108.5C449.492 110.688 447.773 114.594 448.437 118.5C449.609 126.117 449.57 133.773 448.437 141.625C447.851 145.609 449.687 149.516 453.124 151.625L477.499 166.625L472.187 179.125L444.374 173.188C440.429 172.328 436.367 173.93 434.062 177.25C429.413 183.656 423.984 189.164 417.812 193.813C414.609 196.195 413.163 200.258 414.062 204.125L420.937 231.938L408.124 237.25L392.499 213.188C390.39 209.75 386.484 207.914 382.499 208.5C374.921 209.75 367.265 209.906 359.374 208.813C355.39 208.227 351.484 210.063 349.374 213.5L334.062 237.563L321.249 232.25L327.499 204.75C328.398 200.883 326.952 196.82 323.749 194.438C317.304 189.75 311.523 184.398 306.874 178.188C304.531 175.102 300.663 173.656 296.874 174.438L269.374 180.688L263.749 167.563L287.499 152.875C290.937 150.766 292.773 146.859 292.187 142.875C290.937 135.141 290.742 127.055 291.874 119.125C292.343 115.258 290.507 111.469 287.187 109.438L263.437 94.4375L268.749 81.625L295.937 87.5625C299.804 88.4609 303.867 87.0156 306.249 83.8125C311.015 77.3281 316.562 71.625 322.812 66.9375C325.898 64.5938 327.343 60.7266 326.562 56.9375L320.312 29.4375L333.124 24.125L348.124 47.875C350.312 51.1953 354.218 52.9141 358.124 52.25C365.781 51.0391 373.671 51.0781 381.562 52.25C385.546 52.8359 389.452 51 391.562 47.5625L406.249 23.5ZM369.687 79.75C349.843 80.0625 331.015 91.8594 323.124 111.313C312.577 137.25 325.312 167.328 351.249 177.875C377.187 188.422 406.952 175.688 417.499 149.75C428.046 123.813 415.624 94.0469 389.687 83.5C383.202 80.8828 376.288 79.6328 369.687 79.75ZM369.999 99.4375C374.023 99.3984 378.202 100.336 382.187 101.938C398.124 108.422 405.546 126.313 399.062 142.25C392.617 158.148 374.687 165.609 358.749 159.125C342.812 152.641 335.39 134.75 341.874 118.813C345.117 110.844 351.171 105.023 358.437 101.938C362.07 100.414 365.976 99.4766 369.999 99.4375ZM143.437 171C139.179 171.781 135.937 175.18 135.312 179.438L129.062 219.75C121.874 221.938 114.999 224.75 108.437 228.188L74.9994 204.438C71.054 201.586 65.6634 202.016 62.1869 205.375L34.6869 232.875C31.3275 236.352 30.8978 241.742 33.7494 245.688L57.1869 279.125C53.7494 285.648 51.015 292.602 48.7494 299.75L8.43685 306.625C3.63216 307.367 0.077477 311.469 -0.000648027 316.313V355.063C-0.078773 359.945 3.35873 364.164 8.12435 365.063L48.4369 371.938C50.7025 379.32 53.5931 386.156 57.1869 392.875L33.4369 426C30.5853 429.945 31.015 435.336 34.3744 438.813L61.8744 466.313C65.3509 469.672 70.7415 470.102 74.6869 467.25L108.124 443.813C114.648 447.25 121.601 450.023 128.749 452.25L135.312 492.563C136.093 497.484 140.351 501.078 145.312 501H184.062C188.945 501.078 193.163 497.641 194.062 492.875L201.249 451.938C208.32 449.711 215.117 446.938 221.562 443.5L255.312 467.25C259.257 470.102 264.648 469.672 268.124 466.313L295.624 438.813C298.984 435.336 299.413 429.945 296.562 426L272.499 392.25C275.898 385.727 278.749 379.086 280.937 371.938L321.874 365.063C326.64 364.164 330.077 359.945 329.999 355.063V316.313C329.921 311.469 326.367 307.367 321.562 306.625L280.624 299.75C278.437 292.758 275.859 286.117 272.499 279.75L296.249 245.688C299.101 241.742 298.671 236.352 295.312 232.875L267.812 205.375C264.335 202.016 258.945 201.586 254.999 204.438L221.562 228.5C215.038 225.063 208.085 222.289 200.937 220.063L194.062 179.438C193.281 174.516 189.023 170.922 184.062 171H145.312C144.999 171 144.687 171 144.374 171C144.062 171 143.749 171 143.437 171ZM154.062 191H175.624L182.187 228.5C182.812 232.484 185.781 235.688 189.687 236.625C199.687 239.125 209.218 242.992 217.812 248.188C221.21 250.258 225.507 250.141 228.749 247.875L259.687 225.688L274.999 241L253.124 272.563C250.742 275.766 250.507 280.063 252.499 283.5C257.656 292.094 261.562 301.352 264.062 311.313C264.999 315.219 268.202 318.188 272.187 318.813L309.999 325.063V346.625L272.187 353.188C268.202 353.813 264.999 356.781 264.062 360.688C261.601 370.648 257.656 379.945 252.499 388.5C250.39 392.016 250.624 396.469 253.124 399.75L275.312 430.688L259.999 446L228.749 424.125C225.507 421.859 221.21 421.742 217.812 423.813C209.296 429.008 199.687 432.836 189.687 435.375C185.898 436.43 183.085 439.633 182.499 443.5L175.624 481H153.749L147.499 443.5C146.757 439.633 143.827 436.586 139.999 435.688C129.96 433.227 120.507 429.008 111.874 423.813C108.515 421.977 104.374 422.211 101.249 424.438L69.9994 446L54.6869 430.688L76.5619 400.063C78.9837 396.742 79.1009 392.289 76.8744 388.813C71.64 380.141 67.8119 370.766 65.3119 360.688C64.3744 356.781 61.1712 353.813 57.1869 353.188L19.9994 346.625V324.75L57.1869 318.5C61.054 317.914 64.2572 315.102 65.3119 311.313C67.8509 301.195 71.64 291.547 76.8744 282.875C78.9447 279.477 78.8275 275.18 76.5619 271.938L54.9994 241L70.3119 225.375L101.249 247.563C104.492 249.828 108.788 249.945 112.187 247.875C120.781 242.719 130.273 239.086 140.312 236.625C144.218 235.688 147.187 232.484 147.812 228.5L154.062 191ZM164.999 274.438C131.054 274.438 103.437 302.055 103.437 336C103.437 369.945 131.054 397.563 164.999 397.563C198.945 397.563 226.562 369.945 226.562 336C226.562 302.055 198.945 274.438 164.999 274.438ZM164.999 294.438C188.124 294.438 206.562 312.875 206.562 336C206.562 359.125 188.124 377.563 164.999 377.563C141.874 377.563 123.437 359.125 123.437 336C123.437 312.875 141.874 294.438 164.999 294.438Z" fill="white"/>
<path d="M400.937 1.00001C397.968 1.39063 395.312 3.10939 393.749 5.68751L377.499 32.5625C372.421 32.1719 367.226 32.1328 362.187 32.5625L345.624 6.00001C342.968 1.82032 337.656 0.218759 333.124 2.25001L304.999 14.125C300.429 16 297.929 20.8828 299.062 25.6875L305.937 56C302.109 59.3203 298.632 62.9922 295.312 66.9375L264.687 60.0625C259.921 59.125 255.156 61.7813 253.437 66.3125L241.874 94.4375C239.843 98.9688 241.445 104.281 245.624 106.938L272.187 123.5C271.835 128.617 271.757 133.773 272.187 138.813L245.937 155.375C241.757 158.031 240.156 163.344 242.187 167.875L254.062 196C255.898 200.414 260.624 202.914 265.312 201.938L295.937 195.063C299.257 198.891 302.929 202.367 306.874 205.688L299.999 236.313C299.023 241 301.523 245.727 305.937 247.563L334.374 259.125C338.827 260.961 343.945 259.398 346.562 255.375L363.437 228.813C368.671 229.164 373.906 228.969 379.062 228.5L395.937 255.063C398.554 259.086 403.671 260.648 408.124 258.813L436.562 246.938C440.976 244.945 443.359 240.102 442.187 235.375L434.687 204.75C438.437 201.508 442.07 197.953 445.312 194.125L476.249 200.688C481.132 201.781 486.054 199.125 487.812 194.438L499.374 166.313C501.327 161.703 499.609 156.391 495.312 153.813L468.437 137.25C468.788 132.289 468.515 127.445 468.124 122.563L494.687 105.063C498.827 102.523 500.546 97.3672 498.749 92.875L486.562 64.75C484.687 60.1797 479.804 57.6797 474.999 58.8125L444.687 66.3125C441.327 62.4063 437.734 58.7344 433.749 55.375L440.312 24.75C441.445 19.9453 438.945 15.0625 434.374 13.1875L405.937 1.62501C404.335 1.00001 402.617 0.765634 400.937 1.00001ZM406.249 23.5L419.062 28.8125L413.124 56.625C412.343 60.4141 413.788 64.2813 416.874 66.625C423.32 71.3516 428.827 76.9766 433.437 83.1875C435.859 86.5078 440.077 87.9922 444.062 86.9375L471.562 80.0625L476.874 92.875L452.812 108.5C449.492 110.688 447.773 114.594 448.437 118.5C449.609 126.117 449.57 133.773 448.437 141.625C447.851 145.609 449.687 149.516 453.124 151.625L477.499 166.625L472.187 179.125L444.374 173.188C440.429 172.328 436.367 173.93 434.062 177.25C429.413 183.656 423.984 189.164 417.812 193.813C414.609 196.195 413.163 200.258 414.062 204.125L420.937 231.938L408.124 237.25L392.499 213.188C390.39 209.75 386.484 207.914 382.499 208.5C374.921 209.75 367.265 209.906 359.374 208.813C355.39 208.227 351.484 210.063 349.374 213.5L334.062 237.563L321.249 232.25L327.499 204.75C328.398 200.883 326.952 196.82 323.749 194.438C317.304 189.75 311.523 184.398 306.874 178.188C304.531 175.102 300.663 173.656 296.874 174.438L269.374 180.688L263.749 167.563L287.499 152.875C290.937 150.766 292.773 146.859 292.187 142.875C290.937 135.141 290.742 127.055 291.874 119.125C292.343 115.258 290.507 111.469 287.187 109.438L263.437 94.4375L268.749 81.625L295.937 87.5625C299.804 88.4609 303.867 87.0156 306.249 83.8125C311.015 77.3281 316.562 71.625 322.812 66.9375C325.898 64.5938 327.343 60.7266 326.562 56.9375L320.312 29.4375L333.124 24.125L348.124 47.875C350.312 51.1953 354.218 52.9141 358.124 52.25C365.781 51.0391 373.671 51.0781 381.562 52.25C385.546 52.8359 389.452 51 391.562 47.5625L406.249 23.5ZM369.687 79.75C349.843 80.0625 331.015 91.8594 323.124 111.313C312.577 137.25 325.312 167.328 351.249 177.875C377.187 188.422 406.952 175.688 417.499 149.75C428.046 123.813 415.624 94.0469 389.687 83.5C383.202 80.8828 376.288 79.6328 369.687 79.75ZM369.999 99.4375C374.023 99.3984 378.202 100.336 382.187 101.938C398.124 108.422 405.546 126.313 399.062 142.25C392.617 158.148 374.687 165.609 358.749 159.125C342.812 152.641 335.39 134.75 341.874 118.813C345.117 110.844 351.171 105.023 358.437 101.938C362.07 100.414 365.976 99.4766 369.999 99.4375ZM143.437 171C139.179 171.781 135.937 175.18 135.312 179.438L129.062 219.75C121.874 221.938 114.999 224.75 108.437 228.188L74.9994 204.438C71.054 201.586 65.6634 202.016 62.1869 205.375L34.6869 232.875C31.3275 236.352 30.8978 241.742 33.7494 245.688L57.1869 279.125C53.7494 285.648 51.015 292.602 48.7494 299.75L8.43685 306.625C3.63216 307.367 0.077477 311.469 -0.000648027 316.313V355.063C-0.078773 359.945 3.35873 364.164 8.12435 365.063L48.4369 371.938C50.7025 379.32 53.5931 386.156 57.1869 392.875L33.4369 426C30.5853 429.945 31.015 435.336 34.3744 438.813L61.8744 466.313C65.3509 469.672 70.7415 470.102 74.6869 467.25L108.124 443.813C114.648 447.25 121.601 450.023 128.749 452.25L135.312 492.563C136.093 497.484 140.351 501.078 145.312 501H184.062C188.945 501.078 193.163 497.641 194.062 492.875L201.249 451.938C208.32 449.711 215.117 446.938 221.562 443.5L255.312 467.25C259.257 470.102 264.648 469.672 268.124 466.313L295.624 438.813C298.984 435.336 299.413 429.945 296.562 426L272.499 392.25C275.898 385.727 278.749 379.086 280.937 371.938L321.874 365.063C326.64 364.164 330.077 359.945 329.999 355.063V316.313C329.921 311.469 326.367 307.367 321.562 306.625L280.624 299.75C278.437 292.758 275.859 286.117 272.499 279.75L296.249 245.688C299.101 241.742 298.671 236.352 295.312 232.875L267.812 205.375C264.335 202.016 258.945 201.586 254.999 204.438L221.562 228.5C215.038 225.063 208.085 222.289 200.937 220.063L194.062 179.438C193.281 174.516 189.023 170.922 184.062 171H145.312C144.999 171 144.687 171 144.374 171C144.062 171 143.749 171 143.437 171ZM154.062 191H175.624L182.187 228.5C182.812 232.484 185.781 235.688 189.687 236.625C199.687 239.125 209.218 242.992 217.812 248.188C221.21 250.258 225.507 250.141 228.749 247.875L259.687 225.688L274.999 241L253.124 272.563C250.742 275.766 250.507 280.063 252.499 283.5C257.656 292.094 261.562 301.352 264.062 311.313C264.999 315.219 268.202 318.188 272.187 318.813L309.999 325.063V346.625L272.187 353.188C268.202 353.813 264.999 356.781 264.062 360.688C261.601 370.648 257.656 379.945 252.499 388.5C250.39 392.016 250.624 396.469 253.124 399.75L275.312 430.688L259.999 446L228.749 424.125C225.507 421.859 221.21 421.742 217.812 423.813C209.296 429.008 199.687 432.836 189.687 435.375C185.898 436.43 183.085 439.633 182.499 443.5L175.624 481H153.749L147.499 443.5C146.757 439.633 143.827 436.586 139.999 435.688C129.96 433.227 120.507 429.008 111.874 423.813C108.515 421.977 104.374 422.211 101.249 424.438L69.9994 446L54.6869 430.688L76.5619 400.063C78.9837 396.742 79.1009 392.289 76.8744 388.813C71.64 380.141 67.8119 370.766 65.3119 360.688C64.3744 356.781 61.1712 353.813 57.1869 353.188L19.9994 346.625V324.75L57.1869 318.5C61.054 317.914 64.2572 315.102 65.3119 311.313C67.8509 301.195 71.64 291.547 76.8744 282.875C78.9447 279.477 78.8275 275.18 76.5619 271.938L54.9994 241L70.3119 225.375L101.249 247.563C104.492 249.828 108.788 249.945 112.187 247.875C120.781 242.719 130.273 239.086 140.312 236.625C144.218 235.688 147.187 232.484 147.812 228.5L154.062 191ZM164.999 274.438C131.054 274.438 103.437 302.055 103.437 336C103.437 369.945 131.054 397.563 164.999 397.563C198.945 397.563 226.562 369.945 226.562 336C226.562 302.055 198.945 274.438 164.999 274.438ZM164.999 294.438C188.124 294.438 206.562 312.875 206.562 336C206.562 359.125 188.124 377.563 164.999 377.563C141.874 377.563 123.437 359.125 123.437 336C123.437 312.875 141.874 294.438 164.999 294.438Z" fill="url(#paint0_linear_602_13)"/>
<defs>
<linearGradient id="paint0_linear_602_13" x1="-0.00195313" y1="0.910858" x2="415.818" y2="32.0469" gradientUnits="userSpaceOnUse">
<stop offset="0.527703" stop-color="#D39F36"/>
<stop offset="1" stop-color="#E6B656"/>
</linearGradient>
</defs>
</svg>
