<svg width="103" height="113" viewBox="0 0 103 113" fill="none" xmlns="http://www.w3.org/2000/svg">
<path d="M9.46875 64.9819C9.46875 44.5659 24.6408 28.0122 43.3568 28.0122H69.0438C87.7566 28.0122 102.932 44.5659 102.932 64.9819C102.932 85.3944 87.7599 101.948 69.0438 101.948H43.3568C24.644 101.948 9.46875 85.398 9.46875 64.9819Z" fill="#3868C7"/>
<path fill-rule="evenodd" clip-rule="evenodd" d="M9.50285 0.0382177C12.0232 0.0382177 14.4403 1.13035 16.2224 3.07435C18.0045 5.01835 19.0057 7.65498 19.0057 10.4042V64.989H0V10.4007C0 7.65143 1.00119 5.0148 2.78332 3.0708C4.56545 1.1268 6.98254 0.0382177 9.50285 0.0382177Z" fill="#76C451"/>
<path d="M53.8593 64.989C53.8593 70.7152 49.6513 75.355 44.4606 75.355C39.2665 75.355 35.0586 70.7152 35.0586 64.989C35.0586 59.2664 39.2665 54.623 44.4606 54.623C49.6513 54.623 53.8593 59.2664 53.8593 64.989ZM83.6175 64.989C83.6175 70.7152 79.4096 75.355 74.2188 75.355C69.028 75.355 64.8168 70.7152 64.8168 64.989C64.8168 59.2664 69.028 54.623 74.2188 54.623C79.4096 54.623 83.6175 59.2664 83.6175 64.989Z" fill="white"/>
<path fill-rule="evenodd" clip-rule="evenodd" d="M0 64.9887C0 38.8536 19.4093 17.6566 43.3649 17.6566H48.458C49.7206 17.6311 50.9751 17.8803 52.1483 18.3897C53.3215 18.8991 54.3899 19.6585 55.291 20.6234C56.1921 21.5883 56.9079 22.7395 57.3965 24.0096C57.8851 25.2797 58.1368 26.6434 58.1368 28.0208C58.1368 29.3982 57.8851 30.7618 57.3965 32.0319C56.9079 33.3021 56.1921 34.4532 55.291 35.4182C54.3899 36.3831 53.3215 37.1424 52.1483 37.6519C50.9751 38.1613 49.7206 38.4105 48.458 38.385H43.3649C29.9177 38.385 19.0025 50.2882 19.0025 64.9887C19.0025 79.6857 29.9177 91.5889 43.3649 91.5889H67.9877C69.2357 91.5889 70.4714 91.857 71.6243 92.3779C72.7772 92.8989 73.8248 93.6624 74.7072 94.625C75.5897 95.5876 76.2896 96.7303 76.7672 97.988C77.2448 99.2456 77.4906 100.594 77.4906 101.955C77.4906 103.316 77.2448 104.664 76.7672 105.922C76.2896 107.179 75.5897 108.322 74.7072 109.285C73.8248 110.247 72.7772 111.011 71.6243 111.532C70.4714 112.053 69.2357 112.321 67.9877 112.321H43.3649C19.4093 112.321 0 91.1203 0 64.9887Z" fill="#76C451"/>
</svg>
