<svg width="481" height="480" viewBox="0 0 481 480" fill="none" xmlns="http://www.w3.org/2000/svg">
<path d="M17.1875 0C16.875 0.07813 16.5625 0.19531 16.25 0.3125C16.1328 0.3125 16.0547 0.27344 15.9375 0.3125C15.7422 0.39063 15.5078 0.50781 15.3125 0.625C6.52344 2.73438 0 10.5859 0 20C0 31.0547 8.94531 40 20 40C31.0547 40 40 31.0547 40 20H86.875C99.3359 20 105.859 22.5391 110.625 26.875C115.312 31.1328 118.945 38.4375 122.188 49.375L202.188 372.5C205.195 384.062 208.203 395.781 216.562 405.312C219.961 409.219 224.297 412.305 229.375 414.688C223.594 421.641 220 430.352 220 440C220 461.992 238.008 480 260 480C281.992 480 300 461.992 300 440C300 432.656 297.852 425.938 294.375 420H355.625C352.148 425.938 350 432.656 350 440C350 461.992 368.008 480 390 480C411.992 480 430 461.992 430 440C430 429.727 425.82 420.547 419.375 413.438C420.508 410.391 420.039 406.953 418.203 404.297C416.328 401.602 413.281 400 410 400H256.875C241.523 400 235.703 396.602 231.562 391.875C227.422 387.148 224.531 378.945 221.562 367.5L214.688 340H398.125C402.305 340 406.055 337.383 407.5 333.438L479.375 143.438C480.664 140.117 480.039 136.328 477.773 133.555C475.547 130.781 471.953 129.414 468.438 130C464.844 130.586 461.836 133.125 460.625 136.562L391.25 320H209.688L141.562 44.6875C141.562 44.4922 141.562 44.2578 141.562 44.0625C137.852 31.2891 133.047 20.3516 124.062 12.1875C115.078 4.02344 102.422 0 86.875 0H20C19.6875 0 19.375 0 19.0625 0C18.75 0 18.4375 0 18.125 0C17.8125 0 17.5 0 17.1875 0ZM339.062 79.6875C338.633 79.7656 338.203 79.8828 337.812 80C334.062 80.6641 331.055 83.3984 330 87.0312C328.945 90.7031 330.039 94.6094 332.812 97.1875L365.625 130H230C229.688 130 229.375 130 229.062 130C228.75 130 228.438 130 228.125 130C222.617 130.508 218.555 135.43 219.062 140.938C219.57 146.445 224.492 150.508 230 150H365.625L332.812 182.812C328.828 186.797 328.828 193.203 332.812 197.188C336.797 201.172 343.203 201.172 347.188 197.188L397.188 147.188L404.062 140L397.188 132.812L347.188 82.8125C345.117 80.5859 342.109 79.4531 339.062 79.6875ZM260 420C271.172 420 280 428.828 280 440C280 451.172 271.172 460 260 460C248.828 460 240 451.172 240 440C240 428.828 248.828 420 260 420ZM390 420C401.172 420 410 428.828 410 440C410 451.172 401.172 460 390 460C378.828 460 370 451.172 370 440C370 428.828 378.828 420 390 420Z" fill="url(#paint0_linear_602_11)"/>
<defs>
<linearGradient id="paint0_linear_602_11" x1="0" y1="0" x2="399.077" y2="29.8794" gradientUnits="userSpaceOnUse">
<stop offset="0.527703" stop-color="#D39F36"/>
<stop offset="1" stop-color="#E6B656"/>
</linearGradient>
</defs>
</svg>
