<svg width="491" height="491" viewBox="0 0 491 491" fill="none" xmlns="http://www.w3.org/2000/svg">
<path d="M490.312 0.6875L479.688 1C479.688 1 406.172 1.97656 335.312 37.25C312.539 48.6172 289.648 64.2031 269.062 84.75C243.711 110.102 207.93 151.703 175.312 191H90C89.6875 191 89.375 191 89.0625 191C86.3672 191.273 83.8672 192.602 82.1875 194.75L32.1875 254.75C30.0781 257.406 29.4141 260.961 30.5078 264.164C31.5625 267.367 34.2188 269.828 37.5 270.688L98.4375 286C97.9688 286.586 95 290.375 95 290.375L93.75 291.625L93.125 293.5C93.125 293.5 92.2656 297.016 92.5 300.375C92.5781 301.625 92.8125 303.266 93.125 304.75L71.5625 341C71.5625 341 70.5859 342.953 70.3125 344.125C70.0391 345.297 69.9609 346.742 70 348.188C70.0781 351.078 70.7812 354.32 72.5 358.188C75.9375 365.922 83.2812 376.156 99.0625 391.938C114.844 407.68 125.039 415.062 132.812 418.5C136.68 420.219 139.922 420.922 142.812 421C144.258 421.039 145.703 420.961 146.875 420.688C148.047 420.414 150 419.438 150 419.438L186.562 397.875C187.93 398.148 189.492 398.422 190.625 398.5C193.984 398.734 197.5 397.875 197.5 397.875L199.375 397.25L200.938 396C200.938 396 204.492 393.266 205 392.875L220.312 453.5C221.172 456.781 223.633 459.437 226.836 460.492C230.039 461.586 233.594 460.922 236.25 458.812L296.25 408.812C298.633 406.898 300 404.047 300 401V315.375C339.57 282.484 381.445 246.742 406.25 221.938C426.719 201.43 442.07 178.5 453.438 155.688C488.555 84.9453 490 11.3125 490 11.3125L490.312 0.6875ZM468.75 22.25C467.93 37.2891 463.984 89.75 435.625 146.938C425.078 168.148 410.938 189.125 392.188 207.875C367.812 232.25 324.922 268.812 285 301.938C284.18 302.445 283.438 303.07 282.812 303.812C236.055 342.562 193.867 376.117 191.25 378.188C190.078 378.07 188.242 377.953 185 376.625C177.539 373.578 164.453 365.766 145 346.312C125.547 326.859 117.422 313.461 114.375 306C113.047 302.758 112.93 300.922 112.812 299.75C114.883 297.133 147.969 255.414 186.562 208.812C187.617 207.953 188.438 206.898 189.062 205.688C221.836 166.156 258.164 123.773 283.125 98.8125C301.953 79.9844 322.891 65.9609 344.062 55.375C401.328 26.8984 453.75 23.0312 468.75 22.25ZM340 101C312.5 101 290 123.5 290 151C290 178.5 312.5 201 340 201C367.5 201 390 178.5 390 151C390 123.5 367.5 101 340 101ZM340 121C356.68 121 370 134.32 370 151C370 167.68 356.68 181 340 181C323.32 181 310 167.68 310 151C310 134.32 323.32 121 340 121ZM94.6875 211H158.75C139.57 234.398 123.789 254.281 112.188 268.812L57.8125 255.062L94.6875 211ZM103.125 326.938C108.828 336.078 117.188 346.938 130.625 360.375C144.023 373.773 154.922 382.172 164.062 387.875L142.5 400.688C142.188 400.609 142.227 400.648 140.938 400.062C136.836 398.266 127.891 392.602 113.125 377.875C98.3984 363.109 92.7344 354.164 90.9375 350.062C90.3516 348.773 90.3906 348.812 90.3125 348.5L103.125 326.938ZM280 332.25V396.312L235.938 433.188L222.188 379.125C236.68 367.523 256.367 351.703 280 332.25ZM64.0625 373.188C47.7344 385.727 32.9688 387.328 19.6875 400.375C13.0469 406.898 7.77344 416.156 4.6875 428.812C1.60156 441.469 0.3125 457.797 0.3125 480.688V490.688H10.3125C56.25 490.688 78.7109 483.422 92.1875 469.75C105.664 456.078 107.891 440.844 118.125 426.938L101.875 415.062C88.9062 432.719 86.0156 447.367 77.8125 455.688C70.5859 463.031 54.4922 468.422 21.25 469.75C21.7578 455.219 22.4609 441.273 24.375 433.5C26.875 423.383 29.9219 418.5 33.75 414.75C41.3672 407.25 56.2891 403.891 75.9375 388.812L64.0625 373.188ZM140.938 401.625L140 402.25V401.938C140 401.938 140.547 401.781 140.938 401.625Z" fill="url(#paint0_linear_602_7)"/>
<defs>
<linearGradient id="paint0_linear_602_7" x1="0.3125" y1="0.6875" x2="407.672" y2="31.1847" gradientUnits="userSpaceOnUse">
<stop offset="0.527703" stop-color="#D39F36"/>
<stop offset="1" stop-color="#E6B656"/>
</linearGradient>
</defs>
</svg>
