<svg width="653" height="179" viewBox="0 0 653 179" fill="none" xmlns="http://www.w3.org/2000/svg">
<g clip-path="url(#clip0_657_93)">
<mask id="mask0_657_93" style="mask-type:luminance" maskUnits="userSpaceOnUse" x="0" y="2" width="653" height="174">
<path d="M652.262 2.3103H0.109375V175.366H652.262V2.3103Z" fill="white"/>
</mask>
<g mask="url(#mask0_657_93)">
<path d="M564.555 140.117C564.555 136.431 567.53 133.554 571.366 133.554C575.196 133.554 578.147 136.431 578.147 140.117C578.147 143.803 575.206 146.679 571.366 146.679C567.52 146.679 564.555 143.748 564.555 140.117ZM576.783 140.117C576.783 137.154 574.48 134.827 571.366 134.827C568.247 134.827 565.944 137.154 565.944 140.117C565.944 143.08 568.222 145.406 571.366 145.406C574.504 145.406 576.783 143.103 576.783 140.117ZM568.731 143.551V136.517H571.87C573.259 136.517 574.203 137.24 574.203 138.348C574.203 139.292 573.476 139.983 572.364 140.062V140.117C573.313 140.172 573.674 140.698 573.867 141.555L574.282 143.551H573.007L572.676 141.861C572.508 141.084 572.231 140.895 571.341 140.895H569.952V143.551H568.731ZM569.952 139.842H571.682C572.463 139.842 572.957 139.37 572.957 138.679C572.957 138.042 572.453 137.625 571.682 137.625H569.952V139.842Z" fill="#F1F0ED"/>
<path d="M650.346 33.9757H613.883L636.59 5.39118C637.574 4.14154 636.684 2.3103 635.083 2.3103H583.975C583.391 2.3103 582.833 2.57753 582.472 3.04123L566.927 22.7447C565.943 23.9943 566.833 25.8255 568.435 25.8255H600.488L578.137 54.4099C577.154 55.6599 578.043 57.4908 579.645 57.4908H616.607V77.1474C616.607 78.7272 618.609 79.411 619.577 78.1689L651.844 37.0566C652.832 35.807 651.947 33.9757 650.346 33.9757Z" fill="#00AB7A"/>
<path d="M75.0945 46.7398V146.632H56.7841V138.144C51.3722 145.092 43.925 148.566 34.4503 148.566C24.9756 148.566 16.5974 145.068 10.0022 138.073C3.40699 131.079 0.109375 122.394 0.109375 112.012C0.109375 101.629 3.40699 92.7799 10.0022 85.8557C16.5974 78.932 24.7468 75.4659 34.4503 75.4659C44.1538 75.4659 51.4197 78.8924 56.7841 85.7538V46.7319H75.0945V46.7398ZM51.6876 126.591C55.4905 122.717 57.3915 117.812 57.3915 111.894C57.3915 105.976 55.4905 101.229 51.6876 97.3935C47.8853 93.5661 43.1913 91.6481 37.6059 91.6481C32.0205 91.6481 27.2555 93.5423 23.5871 97.3308C19.9187 101.119 18.0885 105.976 18.0885 111.894C18.0885 117.812 19.9187 122.826 23.5871 126.662C27.2555 130.489 31.9258 132.407 37.6059 132.407C43.286 132.407 47.8932 130.466 51.6876 126.591Z" fill="#F1F0ED"/>
<path d="M96.1209 138.514C89.1234 131.81 85.6289 122.976 85.6289 112.02C85.6289 101.064 88.9974 92.7881 95.7186 85.8639C102.448 78.9397 111.205 75.4736 121.974 75.4736C132.742 75.4736 141.814 78.8453 148.228 85.5964C154.642 92.348 157.853 100.844 157.853 111.085C157.853 113.89 157.719 116.028 157.45 117.498H103.458C104.081 122.221 106.093 126.017 109.493 128.894C112.893 131.771 117.611 133.201 123.646 133.201C131.692 133.201 137.325 130.151 140.544 124.045L156.906 128.855C154.626 134.065 150.571 138.655 144.733 142.616C138.896 146.578 131.779 148.566 123.37 148.566C112.191 148.566 103.103 145.21 96.1051 138.514H96.1209ZM140.15 106.141C139.7 101.779 137.846 98.1246 134.58 95.1852C131.314 92.2457 127.07 90.7757 121.839 90.7757C116.609 90.7757 112.593 92.2927 109.264 95.3187C105.935 98.3447 104.002 101.952 103.466 106.141H140.15Z" fill="#F1F0ED"/>
<path d="M237.599 77.415L208.891 146.64H188.435L159.727 77.415H179.646L198.762 126.662L217.805 77.415H237.591H237.599Z" fill="#F1F0ED"/>
<path d="M302.995 137.484V146.641H244.309V139.693L287.43 87.5065H245.105V78.3503H301.709V85.636L258.714 137.484H302.979H302.995Z" fill="#F1F0ED"/>
<path d="M321.604 138.152C315.008 131.291 311.711 122.716 311.711 112.429C311.711 102.141 315.008 93.7232 321.604 86.9014C328.199 80.0869 336.435 76.6763 346.32 76.6763C358.303 76.6763 367.336 81.329 373.419 90.6423V78.3505H383.951V146.64H373.419V134.215C367.431 143.701 358.398 148.448 346.32 148.448C336.435 148.448 328.199 145.021 321.604 138.16V138.152ZM366.137 131.299C371.17 126.284 373.687 120.037 373.687 112.554C373.687 105.072 371.162 98.8239 366.106 93.8098C361.056 88.7951 354.974 86.2962 347.866 86.2962C340.356 86.2962 334.195 88.756 329.39 93.6763C324.586 98.596 322.18 104.891 322.18 112.554C322.18 120.217 324.586 126.395 329.39 131.362C334.195 136.329 340.356 138.813 347.866 138.813C355.377 138.813 361.112 136.305 366.145 131.299H366.137Z" fill="#F1F0ED"/>
<path d="M462.085 86.9014C468.68 93.7153 471.978 102.227 471.978 112.429C471.978 122.63 468.68 131.291 462.085 138.152C455.49 145.013 447.254 148.44 437.369 148.44C431.334 148.44 426.001 147.183 421.37 144.668C416.739 142.153 413.039 138.663 410.27 134.207V175.366H399.738V78.3505H410.27V90.6423C416.171 81.329 425.204 76.6763 437.369 76.6763C447.254 76.6763 455.49 80.0869 462.085 86.9014ZM454.298 131.37C459.103 126.403 461.509 120.131 461.509 112.562C461.509 104.994 459.103 98.6118 454.298 93.6837C449.494 88.764 443.333 86.3041 435.822 86.3041C428.312 86.3041 422.577 88.8109 417.544 93.8177C412.51 98.8318 409.994 105.08 409.994 112.562C409.994 120.044 412.51 126.292 417.544 131.307C422.577 136.321 428.667 138.82 435.822 138.82C443.333 138.82 449.494 136.337 454.298 131.37Z" fill="#F1F0ED"/>
<path d="M544.474 86.9014C551.073 93.7153 554.37 102.227 554.37 112.429C554.37 122.63 551.073 131.291 544.474 138.152C537.881 145.013 529.646 148.44 519.761 148.44C513.726 148.44 508.392 147.183 503.761 144.668C499.13 142.153 495.427 138.663 492.661 134.207V175.366H482.129V78.3505H492.661V90.6423C498.561 81.329 507.596 76.6763 519.761 76.6763C529.646 76.6763 537.881 80.0869 544.474 86.9014ZM536.699 131.37C541.504 126.403 543.906 120.131 543.906 112.562C543.906 104.994 541.504 98.6118 536.699 93.6837C531.895 88.764 525.731 86.3041 518.223 86.3041C510.71 86.3041 504.977 88.8109 499.94 93.8177C494.908 98.8239 492.393 105.08 492.393 112.562C492.393 120.044 494.908 126.292 499.94 131.307C504.977 136.321 511.066 138.82 518.223 138.82C525.731 138.82 531.895 136.337 536.699 131.37Z" fill="#F1F0ED"/>
</g>
</g>
<defs>
<clipPath id="clip0_657_93">
<rect width="652.444" height="178" fill="white" transform="translate(0.109375 0.333008)"/>
</clipPath>
</defs>
</svg>
