<svg width="61" height="49" viewBox="0 0 61 49" fill="none" xmlns="http://www.w3.org/2000/svg">
<path d="M12.7317 38.4737C8.75172 38.4737 4.76172 38.4737 0.781719 38.4737C0.0217187 38.4737 0.0117188 38.4637 0.0117188 37.6837C0.0117188 34.9337 0.0117188 32.1837 0.0117188 29.4337C0.0117188 28.7837 0.0317188 28.7637 0.681719 28.7637C6.70172 28.7637 12.7117 28.7637 18.7317 28.7737C19.2617 28.7737 19.5717 28.6137 19.8517 28.1637C21.6017 25.3537 23.3817 22.5637 25.1717 19.7737C25.4517 19.3437 25.1417 19.3937 24.8917 19.3937C16.8917 19.3937 8.89172 19.3937 0.891719 19.3937C0.351719 19.3937 0.0817188 19.117 0.0817188 18.5637C0.0817188 15.8337 0.0817188 13.1037 0.0817188 10.3637C0.0817188 9.67369 0.0817187 9.67369 0.781719 9.67369C6.71172 9.67369 12.6517 9.67369 18.5817 9.68369C19.1717 9.68369 19.5117 9.50369 19.8317 9.00369C21.6117 6.17369 23.4317 3.36369 25.2217 0.54369C25.4417 0.19369 25.6917 0.0536902 26.1117 0.0536902C35.1417 0.11369 43.2217 -1.03631 50.9117 4.85369C62.4217 13.2837 63.8617 30.4037 53.9317 40.6537C49.1317 45.7937 42.3517 48.2937 35.3817 48.1737C30.3017 48.1737 25.2117 48.1737 20.1317 48.1537C19.9117 48.1537 19.6017 48.2637 19.4917 48.0337C19.4017 47.8437 19.6617 47.6637 19.7717 47.4837C21.4517 44.8237 23.1317 42.1737 24.8017 39.5137C24.9917 39.2137 25.4417 38.8737 25.3117 38.6037C25.1417 38.2637 24.6117 38.4637 24.2517 38.4637C20.4217 38.4537 16.5817 38.4637 12.7517 38.4637L12.7317 38.4737ZM35.2517 24.1137C35.2517 27.8737 35.2517 31.6437 35.2517 35.4037C35.2517 35.5537 35.2017 35.7737 35.3417 35.8537C35.4717 35.9037 35.6017 35.7437 35.7217 35.6537C40.9717 31.9037 46.2217 28.1437 51.4717 24.3937C51.7217 24.2137 51.8017 24.1037 51.5017 23.8937C46.2517 20.1437 40.9917 16.3937 35.7517 12.6237C35.6217 12.5337 35.4817 12.3437 35.3217 12.4237C35.2417 12.4537 35.2417 12.8837 35.2417 12.8837C35.2417 12.8837 35.2417 20.3737 35.2417 24.1237L35.2517 24.1137Z" fill="white"/>
</svg>
