<svg width="654" height="653" viewBox="0 0 654 653" fill="none" xmlns="http://www.w3.org/2000/svg">
<path d="M52.5947 28.8179V624.632C36.32 612.745 23.1993 597.619 14.2233 580.396C5.2473 563.173 0.650516 544.303 0.780005 525.21V128.24C0.650516 109.147 5.2473 90.2768 14.2233 73.0536C23.1993 55.8305 36.32 40.7046 52.5947 28.8179Z" fill="white"/>
<path d="M311.552 71.9763V581.581L246.789 615.917V356.421H182.098V646.776C161.22 653.014 139.004 654.506 117.359 651.122V2.21797C139.003 -1.17586 161.222 0.315809 182.098 6.56428V297.028H246.789V37.6404L311.552 71.9763Z" fill="white"/>
<path d="M441.057 140.583V512.845L376.295 547.181V106.269L441.057 140.583Z" fill="white"/>
<path d="M557.587 202.344V451.105L499.287 482.008V171.442L557.587 202.344Z" fill="white"/>
<path d="M609.355 419.856V233.573C667.844 283.36 667.844 370.091 609.355 419.856Z" fill="white"/>
</svg>
