<svg width="646" height="718" viewBox="0 0 646 718" fill="none" xmlns="http://www.w3.org/2000/svg">
<path d="M622.549 340.962C606.65 313.608 584.287 291.68 556.328 275.171C535.435 263.008 513.77 255.288 489.355 251.973V165.059C513.77 154.692 528.921 131.748 528.921 104.98C528.921 68.4961 499.663 38.9307 463.208 38.9307C426.724 38.9307 396.953 68.4961 396.953 104.98C396.953 131.748 411.23 154.692 435.645 165.059V252.012C416.113 254.834 395.859 260.923 377.363 270.278C339.585 241.587 215.708 147.461 143.242 92.4854C144.961 86.2891 146.284 79.9023 146.284 73.1641C146.284 32.7539 113.56 0 73.1348 0C32.7099 0 0 32.7539 0 73.1641C0 113.569 32.7442 146.333 73.169 146.333C86.9581 146.333 99.7119 142.3 110.718 135.669L126.011 147.271L336.147 298.677C325.039 308.877 314.692 320.479 306.416 333.496C289.644 360.034 279.395 389.233 279.395 421.084V427.729C279.395 450.088 283.643 471.196 290.879 491.025C297.251 508.34 306.567 524.082 318.106 538.315L248.364 608.228C238.257 604.466 227.28 603.694 216.746 606.004C206.212 608.314 196.565 613.609 188.96 621.255C183.694 626.495 179.521 632.728 176.681 639.592C173.841 646.457 172.392 653.816 172.417 661.245C172.422 676.348 178.306 690.542 188.989 701.221C194.226 706.49 200.456 710.669 207.319 713.513C214.182 716.358 221.541 717.813 228.97 717.793C236.401 717.812 243.762 716.357 250.627 713.512C257.492 710.668 263.725 706.49 268.965 701.221C274.227 695.981 278.4 689.75 281.241 682.889C284.082 676.028 285.535 668.671 285.518 661.245C285.518 655.4 284.614 649.697 282.915 644.277L355 572.183C364.883 579.009 375.557 584.756 387.031 589.712C409.663 599.497 434.644 605.459 461.982 605.459H466.992C497.217 605.459 525.727 598.359 552.529 583.838C580.771 568.491 602.876 547.505 619.575 520.713C636.362 493.848 645.605 464.165 645.605 431.509V429.878C645.605 397.754 638.169 368.115 622.549 340.962ZM534.473 492.197C514.907 513.94 492.417 527.334 466.992 527.334H462.803C448.281 527.334 434.077 523.32 420.171 516.021C404.497 507.983 392.583 496.519 382.832 482.002C372.754 467.754 367.285 452.197 367.285 435.703V430.693C367.285 414.478 370.396 399.102 378.237 384.58C386.621 368.706 397.944 356.362 413.003 346.548C427.788 336.802 443.579 332.021 461.167 332.021H462.803C478.75 332.021 493.848 335.166 508.096 342.456C522.612 350.23 534.473 360.85 543.667 374.819C552.598 388.794 557.91 403.867 559.619 420.288C559.888 423.701 560.024 427.197 560.024 430.537C560.024 452.822 551.509 473.462 534.473 492.197Z" fill="#F8761F"/>
</svg>
