<svg width="62" height="20" viewBox="0 0 62 20" fill="none" xmlns="http://www.w3.org/2000/svg">
<path opacity="0.7" d="M35.1441 0H24.416V20L37.8743 6.62099C40.3261 4.18202 38.6002 0 35.1441 0Z" fill="white"/>
<path opacity="0.7" d="M35.1441 19.9979H24.416V0L37.8743 13.3812C40.3261 15.8137 38.6002 19.9979 35.1441 19.9979Z" fill="white"/>
<path d="M17.8751 4.44408C17.8699 3.9559 18.0568 3.48525 18.3955 3.13359C18.5632 2.95186 18.7679 2.80815 18.9958 2.71212C19.2237 2.61609 19.4695 2.56996 19.7167 2.57684C19.9653 2.57087 20.2125 2.61479 20.4439 2.706C20.6752 2.79721 20.8859 2.93387 21.0636 3.10789C21.4135 3.4646 21.6096 3.94436 21.6096 4.44408C21.6096 4.9438 21.4135 5.42356 21.0636 5.78027C20.8859 5.95429 20.6752 6.09095 20.4439 6.18216C20.2125 6.27337 19.9653 6.31729 19.7167 6.31132C19.4693 6.31821 19.2233 6.27188 18.9953 6.17545C18.7674 6.07903 18.5628 5.93477 18.3955 5.75243C18.0566 5.40181 17.8696 4.93169 17.8751 4.44408Z" fill="white"/>
<path d="M18.2861 8.14996L21.1962 7.61035V19.2506H18.2861V8.14996Z" fill="white"/>
<path d="M0.946414 4.44408C0.941114 3.95547 1.12888 3.48452 1.46889 3.13359C1.63662 2.95186 1.84131 2.80815 2.0692 2.71212C2.29709 2.61609 2.5429 2.56996 2.7901 2.57684C3.03837 2.57092 3.28531 2.61486 3.51629 2.70608C3.74728 2.7973 3.95761 2.93393 4.13485 3.10789C4.48482 3.4646 4.68087 3.94436 4.68087 4.44408C4.68087 4.9438 4.48482 5.42356 4.13485 5.78027C3.95761 5.95423 3.74728 6.09086 3.51629 6.18208C3.28531 6.2733 3.03837 6.31724 2.7901 6.31132C2.5427 6.31821 2.2967 6.27188 2.06876 6.17545C1.84082 6.07903 1.63625 5.93477 1.46889 5.75243C1.12861 5.40254 0.940747 4.93212 0.946414 4.44408Z" fill="white"/>
<path d="M1.35938 8.14996L4.2673 7.61035V19.2506H1.35938V8.14996Z" fill="white"/>
<path d="M6.8131 16.2399L12.4298 10.2099C12.4518 10.1871 12.4665 10.1583 12.4721 10.1271C12.4778 10.0959 12.474 10.0638 12.4615 10.0347C12.4489 10.0057 12.428 9.98097 12.4014 9.96375C12.3748 9.94654 12.3437 9.93757 12.312 9.93797H7.25636V7.61035H14.2885C14.7824 7.61092 15.2559 7.80737 15.6052 8.15662C15.9544 8.50587 16.1509 8.97939 16.1514 9.4733V9.4733C16.1511 9.9275 15.9781 10.3646 15.6675 10.696L10.1 16.5996C10.0784 16.6227 10.0639 16.6517 10.0584 16.6828C10.053 16.714 10.0567 16.7461 10.0692 16.7752C10.0817 16.8043 10.1024 16.8292 10.1288 16.8467C10.1552 16.8641 10.1861 16.8736 10.2178 16.8737H15.8688V19.2506H8.37413C8.11552 19.2506 7.85946 19.1996 7.62056 19.1006C7.38167 19.0016 7.16463 18.8564 6.98187 18.6735C6.79911 18.4905 6.6542 18.2733 6.55543 18.0343C6.45666 17.7953 6.40597 17.5392 6.40625 17.2806V17.2806C6.4055 16.8947 6.55086 16.5229 6.8131 16.2399V16.2399Z" fill="white"/>
<path d="M40.4025 4.44403C40.3973 3.95585 40.5842 3.4852 40.9228 3.13354C41.0907 2.95203 41.2954 2.80847 41.5233 2.71245C41.7511 2.61644 41.9968 2.57019 42.244 2.57679C42.4926 2.5707 42.7399 2.61456 42.9713 2.70578C43.2026 2.797 43.4133 2.93372 43.5909 3.10784C43.9409 3.46455 44.1369 3.94431 44.1369 4.44403C44.1369 4.94374 43.9409 5.42351 43.5909 5.78022C43.4133 5.95434 43.2026 6.09106 42.9713 6.18228C42.7399 6.27349 42.4926 6.31736 42.244 6.31127C41.9966 6.31802 41.7507 6.27162 41.5228 6.17521C41.2948 6.07879 41.0902 5.9346 40.9228 5.75238C40.5839 5.40176 40.3969 4.93164 40.4025 4.44403ZM40.8136 8.15067L43.7237 7.61105V19.2513H40.8029L40.8136 8.15067Z" fill="white"/>
<path d="M57.3204 4.44408C57.3153 3.9559 57.5021 3.48525 57.8408 3.13359C58.0085 2.95186 58.2132 2.80815 58.4411 2.71212C58.669 2.61609 58.9148 2.56996 59.162 2.57684C59.4106 2.57087 59.6578 2.61479 59.8892 2.706C60.1205 2.79721 60.3312 2.93387 60.5089 3.10789C60.8578 3.46513 61.0532 3.9447 61.0532 4.44408C61.0532 4.94346 60.8578 5.42303 60.5089 5.78027C60.3312 5.95429 60.1205 6.09095 59.8892 6.18216C59.6578 6.27337 59.4106 6.31729 59.162 6.31132C58.9146 6.31821 58.6686 6.27188 58.4406 6.17545C58.2127 6.07903 58.0081 5.93477 57.8408 5.75243C57.5019 5.40181 57.3149 4.93169 57.3204 4.44408ZM57.7316 8.15072L60.6416 7.61111V19.2514H57.7337L57.7316 8.15072Z" fill="white"/>
<path d="M46.2584 16.2399L51.8751 10.2099C51.8971 10.1871 51.9118 10.1583 51.9174 10.1271C51.9231 10.0959 51.9194 10.0638 51.9068 10.0347C51.8942 10.0057 51.8733 9.98097 51.8467 9.96375C51.8201 9.94654 51.789 9.93757 51.7573 9.93797H46.7017V7.61035H53.7316C54.2259 7.61035 54.7 7.80655 55.0497 8.15586C55.3994 8.50518 55.5962 8.97902 55.5967 9.4733C55.5967 9.92796 55.4228 10.3654 55.1107 10.696L49.5432 16.5996C49.5215 16.6227 49.5071 16.6517 49.5016 16.6828C49.4961 16.714 49.4999 16.7462 49.5124 16.7752C49.5249 16.8043 49.5456 16.8292 49.572 16.8467C49.5984 16.8641 49.6293 16.8736 49.661 16.8737H55.3141V19.2506H47.8194C47.5608 19.2506 47.3048 19.1996 47.0659 19.1006C46.827 19.0016 46.6099 18.8564 46.4272 18.6735C46.2444 18.4905 46.0995 18.2733 46.0007 18.0343C45.902 17.7953 45.8513 17.5392 45.8516 17.2806C45.8508 16.8947 45.9962 16.5229 46.2584 16.2399Z" fill="white"/>
</svg>
