<svg width="653" height="450" viewBox="0 0 653 450" fill="none" xmlns="http://www.w3.org/2000/svg">
<g clip-path="url(#clip0_655_19)">
<path d="M367.398 8.95898H287.121V434.363H367.398V8.95898Z" fill="#DADADA"/>
<path d="M545.168 8.95898H642.672L480.05 221.661L642.672 434.363H545.168L382.891 221.661L545.168 8.95898Z" fill="#DADADA"/>
<path d="M270.231 221.661L107.609 434.363H10.4492L172.727 221.661L10.4492 8.95898H107.609L270.231 221.661Z" fill="url(#paint0_linear_655_19)"/>
<path d="M651.637 276.943C651.637 254.021 655.771 232.785 664.385 212.222C672.654 191.997 684.712 174.131 699.527 158.962C714.687 143.794 732.603 131.658 753.965 122.894C775.326 114.13 798.41 109.411 824.25 109.411C849.746 109.411 873.175 113.793 894.536 122.894C915.897 131.995 933.813 143.794 948.973 158.962C964.133 174.131 975.847 191.997 984.116 212.222C992.385 232.447 996.864 254.021 996.864 276.943C996.864 299.865 992.729 321.101 984.116 341.664C975.503 361.889 963.788 379.754 948.973 395.261C933.813 410.767 915.897 422.902 894.536 431.666C873.175 440.43 850.091 445.149 824.25 445.149C798.754 445.149 775.326 440.767 753.965 431.666C732.603 422.902 714.687 410.429 699.527 395.261C684.368 379.754 672.654 361.889 664.385 341.664C655.771 321.101 651.637 299.528 651.637 276.943ZM824.25 376.721C839.755 376.721 853.192 373.687 864.561 367.619C875.931 361.552 885.578 353.799 892.813 343.686C900.393 333.911 905.906 323.124 909.696 311.663C913.486 300.202 915.208 288.404 915.208 276.943C915.208 265.819 913.486 254.358 909.696 242.56C905.906 230.762 900.393 219.975 892.813 210.537C885.234 201.098 875.931 193.008 864.561 186.941C853.192 180.873 839.755 177.839 824.25 177.839C808.746 177.839 795.309 180.873 783.939 186.941C772.57 193.008 762.923 200.761 755.687 210.537C748.107 219.975 742.595 230.762 738.805 242.56C735.015 254.358 733.292 265.819 733.292 276.943C733.292 288.404 735.015 300.202 738.805 311.663C742.595 323.124 748.107 333.911 755.687 343.686C763.267 353.462 772.57 361.552 783.939 367.619C795.309 373.687 808.746 376.721 824.25 376.721Z" fill="#DADADA"/>
</g>
<defs>
<linearGradient id="paint0_linear_655_19" x1="-46.0444" y1="12.3831" x2="200.547" y2="448.932" gradientUnits="userSpaceOnUse">
<stop stop-color="#85BD55"/>
<stop offset="1" stop-color="#29ADE0"/>
</linearGradient>
<clipPath id="clip0_655_19">
<rect width="652.444" height="449" fill="white" transform="translate(0.222656 0.833008)"/>
</clipPath>
</defs>
</svg>
