<svg width="237" height="237" viewBox="0 0 237 237" fill="none" xmlns="http://www.w3.org/2000/svg">
<g clip-path="url(#clip0_630_32)">
<path d="M213.53 236.68H23.2C10.42 236.66 0.05 226.32 0 213.53V23.2C0.03 10.4 10.4 0.03 23.2 0H213.53C226.34 0.02 236.72 10.4 236.73 23.2V213.53C236.68 226.31 226.31 236.66 213.53 236.68ZM23.2 14.85C18.59 14.85 14.86 18.59 14.85 23.2V213.53C14.85 218.15 18.58 221.89 23.2 221.9H213.53C218.13 221.87 221.84 218.13 221.84 213.53V23.2C221.83 18.61 218.12 14.88 213.53 14.85H23.2Z" fill="#0E171F"/>
<path d="M70.8808 79.25H40.0508V61.03H120.901V79.25H90.0708V172.83H70.8808V79.25Z" fill="#0E171F"/>
<path d="M196.33 97.14L158.77 154.96H194.57V172.85H126.18L163.72 115.01H128.86V97.14H196.33Z" fill="#0E171F"/>
</g>
<defs>
<clipPath id="clip0_630_32">
<rect width="237" height="237" fill="white"/>
</clipPath>
</defs>
</svg>
