<svg width="238" height="238" viewBox="0 0 238 238" fill="none" xmlns="http://www.w3.org/2000/svg">
<g clip-path="url(#clip0_630_32)">
<path d="M213.698 237.291H23.368C10.588 237.271 0.217969 226.931 0.167969 214.141V23.8113C0.197969 11.0113 10.568 0.641328 23.368 0.611328H213.698C226.508 0.631328 236.888 11.0113 236.898 23.8113V214.141C236.848 226.921 226.478 237.271 213.698 237.291ZM23.368 15.4613C18.758 15.4613 15.028 19.2013 15.018 23.8113V214.141C15.018 218.761 18.748 222.501 23.368 222.511H213.698C218.298 222.481 222.008 218.741 222.008 214.141V23.8113C221.998 19.2213 218.288 15.4913 213.698 15.4613H23.368Z" fill="#E9E9E9"/>
<path d="M71.0487 79.8611H40.2188V61.6411H121.069V79.8611H90.2388V173.441H71.0487V79.8611Z" fill="#E9E9E9"/>
<path d="M196.498 97.751L158.938 155.571H194.738V173.461H126.348L163.888 115.621H129.028V97.751H196.498Z" fill="#E9E9E9"/>
</g>
<defs>
<clipPath id="clip0_630_32">
<rect width="237" height="237" fill="white" transform="translate(0.167969 0.611328)"/>
</clipPath>
</defs>
</svg>
