<?xml version="1.0" encoding="UTF-8" standalone="no"?>
<!-- Created with Inkscape (http://www.inkscape.org/) -->

<svg
   version="1.1"
   id="svg2"
   xml:space="preserve"
   width="334.77505"
   height="337.10413"
   viewBox="0 0 334.77505 337.10412"
   sodipodi:docname="959151f8a0dae2043e5b1ab428943ce9-5.pdf"
   xmlns:inkscape="http://www.inkscape.org/namespaces/inkscape"
   xmlns:sodipodi="http://sodipodi.sourceforge.net/DTD/sodipodi-0.dtd"
   xmlns="http://www.w3.org/2000/svg"
   xmlns:svg="http://www.w3.org/2000/svg"><defs
     id="defs6"><clipPath
       clipPathUnits="userSpaceOnUse"
       id="clipPath16"><path
         d="M 0,330.648 H 331.597 V 0 H 0 Z"
         id="path14" /></clipPath></defs><sodipodi:namedview
     id="namedview4"
     pagecolor="#ffffff"
     bordercolor="#666666"
     borderopacity="1.0"
     inkscape:pageshadow="2"
     inkscape:pageopacity="0.0"
     inkscape:pagecheckerboard="0" /><g
     id="g8"
     inkscape:groupmode="layer"
     inkscape:label="959151f8a0dae2043e5b1ab428943ce9-5"
     transform="matrix(1.3333333,0,0,-1.3333333,-59.407732,387.87892)"><g
       id="g10"><g
         id="g12"
         clip-path="url(#clipPath16)"><g
           id="g18"
           transform="translate(259.4431,150.4922)"><path
             d="m 0,0 c 0,-1.619 -1.759,-2.624 -3.154,-1.802 l -9.413,5.545 c -1.402,0.825 -3.168,-0.194 -3.154,-1.821 l -0.113,-10.391 c 0,-27.997 -22.696,-50.692 -50.692,-50.692 h -27.886 c -27.996,0 -50.692,22.695 -50.692,50.692 l -0.364,97.575 c -0.013,3.692 2.976,6.693 6.669,6.693 h 14.211 c 3.673,0 6.655,-2.97 6.669,-6.644 l 0.363,-97.624 c 0,-12.761 10.383,-23.143 23.144,-23.143 h 27.885 c 12.782,0 23.144,10.361 23.144,23.143 V 1.914 c 0,1.619 -1.759,2.624 -3.154,1.803 l -9.369,-5.519 C -57.301,-2.624 -59.06,-1.619 -59.06,0 v 19.543 c 0,0.686 0.336,1.328 0.899,1.719 l 27.438,19.046 c 0.717,0.498 1.669,0.498 2.386,0 L -0.899,21.262 C -0.336,20.871 0,20.229 0,19.543 Z m -80.952,140.417 c -64.698,0 -117.147,-52.448 -117.147,-117.146 0,-64.699 52.449,-117.147 117.147,-117.147 64.698,0 117.146,52.448 117.146,117.147 0,64.698 -52.448,117.146 -117.146,117.146"
             style="fill:#231f20;fill-opacity:1;fill-rule:nonzero;stroke:none"
             id="path20" /></g><g
           id="g22"
           transform="translate(54.3168,171.9621)"><path
             d="M 0,0 C 0,25.003 7.464,48.253 20.254,67.685 1.578,46.306 -9.761,18.353 -9.761,-12.266 c 0,-67.166 54.447,-121.615 121.611,-121.615 33.719,0 64.226,13.728 86.254,35.894 -20.75,-15.867 -46.671,-25.312 -74.809,-25.312 C 55.201,-123.299 0,-68.096 0,0"
             style="fill:#231f20;fill-opacity:1;fill-rule:nonzero;stroke:none"
             id="path24" /></g></g></g></g></svg>
