<?xml version="1.0" encoding="UTF-8" standalone="no"?>
<!-- Created with Inkscape (http://www.inkscape.org/) -->

<svg
   version="1.1"
   id="svg2"
   xml:space="preserve"
   width="992.39105"
   height="337.10425"
   viewBox="0 0 992.39103 337.10425"
   sodipodi:docname="959151f8a0dae2043e5b1ab428943ce9-2.pdf"
   xmlns:inkscape="http://www.inkscape.org/namespaces/inkscape"
   xmlns:sodipodi="http://sodipodi.sourceforge.net/DTD/sodipodi-0.dtd"
   xmlns="http://www.w3.org/2000/svg"
   xmlns:svg="http://www.w3.org/2000/svg"><defs
     id="defs6"><clipPath
       clipPathUnits="userSpaceOnUse"
       id="clipPath16"><path
         d="M 0,330.648 H 841.89 V 0 H 0 Z"
         id="path14" /></clipPath></defs><sodipodi:namedview
     id="namedview4"
     pagecolor="#ffffff"
     bordercolor="#666666"
     borderopacity="1.0"
     inkscape:pageshadow="2"
     inkscape:pageopacity="0.0"
     inkscape:pagecheckerboard="0" /><g
     id="g8"
     inkscape:groupmode="layer"
     inkscape:label="959151f8a0dae2043e5b1ab428943ce9-2"
     transform="matrix(1.3333333,0,0,-1.3333333,-68.143065,390.33546)"><g
       id="g10"><g
         id="g12"
         clip-path="url(#clipPath16)"><g
           id="g18"
           transform="translate(372.4254,136.0005)"><path
             d="m 0,0 c -10.29,0 -18.662,8.37 -18.662,18.662 v 95.299 c 0,3.436 -2.785,6.219 -6.219,6.219 -3.437,0 -6.222,-2.783 -6.222,-6.219 V 18.662 c 0,-17.152 13.953,-31.103 31.103,-31.103 3.435,0 6.22,2.785 6.22,6.221 C 6.22,-2.783 3.435,0 0,0"
             style="fill:#231f20;fill-opacity:1;fill-rule:nonzero;stroke:none"
             id="path20" /></g><g
           id="g22"
           transform="translate(462.3507,223.0859)"><path
             d="m 0,0 c 0,3.436 -2.786,6.221 -6.221,6.221 -3.435,0 -6.22,-2.785 -6.22,-6.221 v -68.423 c 0,-10.292 -8.372,-18.662 -18.662,-18.662 h -6.219 c -10.29,0 -18.662,8.37 -18.662,18.662 V 0 c 0,3.436 -2.785,6.221 -6.22,6.221 -3.436,0 -6.221,-2.785 -6.221,-6.221 v -68.423 c 0,-17.152 13.952,-31.103 31.103,-31.103 h 6.219 c 17.15,0 31.103,13.951 31.103,31.103 z"
             style="fill:#231f20;fill-opacity:1;fill-rule:nonzero;stroke:none"
             id="path24" /></g><g
           id="g26"
           transform="translate(539.8099,160.8821)"><path
             d="m 0,0 c -3.435,0 -6.22,-2.783 -6.22,-6.22 0,-10.291 -8.371,-18.662 -18.662,-18.662 h -6.219 c -10.29,0 -18.662,8.371 -18.662,18.662 v 43.542 c 0,10.29 8.372,18.662 18.662,18.662 h 6.219 c 10.291,0 18.662,-8.372 18.662,-18.662 0,-3.436 2.785,-6.219 6.22,-6.219 3.435,0 6.221,2.783 6.221,6.219 0,17.152 -13.952,31.103 -31.103,31.103 h -6.219 c -17.15,0 -31.103,-13.951 -31.103,-31.103 V -6.22 c 0,-17.151 13.953,-31.102 31.103,-31.102 h 6.219 c 17.151,0 31.103,13.951 31.103,31.102 C 6.221,-2.783 3.435,0 0,0"
             style="fill:#231f20;fill-opacity:1;fill-rule:nonzero;stroke:none"
             id="path28" /></g><g
           id="g30"
           transform="translate(623.4889,191.9848)"><path
             d="m 0,0 c 3.435,0 6.221,2.783 6.221,6.22 0,17.151 -13.952,31.102 -31.103,31.102 h -6.219 c -17.15,0 -31.103,-13.951 -31.103,-31.102 v -68.424 c 0,-3.436 2.785,-6.221 6.221,-6.221 3.435,0 6.22,2.785 6.22,6.221 V 6.22 c 0,10.29 8.372,18.662 18.662,18.662 h 6.219 C -14.592,24.882 -6.22,16.51 -6.22,6.22 -6.22,2.783 -3.435,0 0,0"
             style="fill:#231f20;fill-opacity:1;fill-rule:nonzero;stroke:none"
             id="path32" /></g><g
           id="g34"
           transform="translate(657.4047,198.2043)"><path
             d="m 0,0 c 0,10.29 8.372,18.662 18.662,18.662 h 6.219 c 10.291,0 18.662,-8.372 18.662,-18.662 0,-6.227 0,-13.287 -1.097,-14.139 -1.815,-1.412 -10.554,-1.412 -20.674,-1.412 H 0 Z m 21.772,-27.991 c 30.346,0 34.212,1.557 34.212,27.991 0,17.152 -13.952,31.103 -31.103,31.103 H 18.662 C 1.512,31.103 -12.441,17.152 -12.441,0 v -43.542 c 0,-17.152 13.953,-31.103 31.103,-31.103 h 6.219 c 17.151,0 31.103,13.951 31.103,31.103 0,3.436 -2.786,6.22 -6.221,6.22 -3.435,0 -6.22,-2.784 -6.22,-6.22 0,-10.292 -8.371,-18.662 -18.662,-18.662 H 18.662 C 8.372,-62.204 0,-53.834 0,-43.542 v 15.551 z"
             style="fill:#231f20;fill-opacity:1;fill-rule:nonzero;stroke:none"
             id="path36" /></g><g
           id="g38"
           transform="translate(355.9728,92.9373)"><path
             d="m 0,0 -9.463,0.082 v 13.27 h 9.447 C 4.163,13.352 7.197,10.556 7.197,6.7 7.197,2.753 3.396,0 0,0 m -0.016,16.827 h -11.185 c -0.959,0 -1.737,-0.778 -1.737,-1.738 v -33.555 c 0,-0.96 0.778,-1.738 1.737,-1.738 0.959,0 1.738,0.778 1.738,1.738 v 15.073 l 9.447,-0.08 c 5.692,0 10.685,4.754 10.685,10.173 0,5.774 -4.593,10.127 -10.685,10.127"
             style="fill:#231f20;fill-opacity:1;fill-rule:nonzero;stroke:none"
             id="path40" /></g><g
           id="g42"
           transform="translate(400.9338,89.2344)"><path
             d="m 0,0 h -16.66 v 9.845 c 0,3.976 3.234,7.21 7.211,7.21 h 2.237 C -3.236,17.055 0,13.821 0,9.845 Z m -7.212,20.53 h -2.237 c -5.891,0 -10.685,-4.794 -10.685,-10.685 v -24.608 c 0,-0.96 0.778,-1.738 1.736,-1.738 0.959,0 1.738,0.778 1.738,1.738 V -3.474 H 0 v -11.289 c 0,-0.96 0.777,-1.738 1.736,-1.738 0.959,0 1.737,0.778 1.737,1.738 V 9.845 c 0,5.891 -4.793,10.685 -10.685,10.685"
             style="fill:#231f20;fill-opacity:1;fill-rule:nonzero;stroke:none"
             id="path44" /></g><g
           id="g46"
           transform="translate(429.2511,106.2896)"><path
             d="m 0,0 h 2.237 c 3.976,0 7.212,-3.234 7.212,-7.211 0,-0.96 0.778,-1.738 1.736,-1.738 0.959,0 1.737,0.778 1.737,1.738 0,5.891 -4.793,10.685 -10.685,10.685 H 0 c -5.892,0 -10.685,-4.794 -10.685,-10.685 v -15.658 c 0,-5.893 4.793,-10.687 10.685,-10.687 h 2.237 c 5.892,0 10.685,4.794 10.685,10.687 v 7.827 c 0,0.961 -0.778,1.738 -1.737,1.738 H 1.119 c -0.96,0 -1.738,-0.777 -1.738,-1.738 0,-0.958 0.778,-1.736 1.738,-1.736 h 8.33 v -6.091 c 0,-3.979 -3.236,-7.213 -7.212,-7.213 H 0 c -3.977,0 -7.212,3.234 -7.212,7.213 V -7.211 C -7.212,-3.234 -3.977,0 0,0"
             style="fill:#231f20;fill-opacity:1;fill-rule:nonzero;stroke:none"
             id="path48" /></g><g
           id="g50"
           transform="translate(476.4647,89.2344)"><path
             d="m 0,0 h -16.661 v 9.845 c 0,3.976 3.235,7.21 7.212,7.21 h 2.237 C -3.236,17.055 0,13.821 0,9.845 Z m -7.212,20.53 h -2.237 c -5.891,0 -10.685,-4.794 -10.685,-10.685 v -24.608 c 0,-0.96 0.778,-1.738 1.736,-1.738 0.959,0 1.737,0.778 1.737,1.738 V -3.474 H 0 v -11.289 c 0,-0.96 0.777,-1.738 1.736,-1.738 0.959,0 1.737,0.778 1.737,1.738 V 9.845 c 0,5.891 -4.793,10.685 -10.685,10.685"
             style="fill:#231f20;fill-opacity:1;fill-rule:nonzero;stroke:none"
             id="path52" /></g><g
           id="g54"
           transform="translate(526.5408,109.6875)"><path
             d="m 0,0 c -0.73,0.221 -1.52,-0.056 -1.949,-0.689 l -13.659,-20.243 -13.661,20.243 c -0.427,0.633 -1.217,0.91 -1.947,0.689 -0.731,-0.223 -1.23,-0.896 -1.23,-1.661 v -33.555 c 0,-0.96 0.778,-1.738 1.737,-1.738 0.959,0 1.736,0.778 1.736,1.738 V -7.34 l 11.925,-17.668 c 0.322,-0.48 0.863,-0.766 1.44,-0.766 0.577,0 1.115,0.286 1.44,0.766 L -2.245,-7.34 v -27.876 c 0,-0.96 0.777,-1.738 1.736,-1.738 0.959,0 1.738,0.778 1.738,1.738 V -1.661 C 1.229,-0.896 0.729,-0.223 0,0"
             style="fill:#231f20;fill-opacity:1;fill-rule:nonzero;stroke:none"
             id="path56" /></g><g
           id="g58"
           transform="translate(560.1927,106.2896)"><path
             d="M 0,0 C 0.959,0 1.736,0.778 1.736,1.736 1.736,2.697 0.959,3.474 0,3.474 h -16.501 c -0.959,0 -1.736,-0.777 -1.736,-1.738 v -33.554 c 0,-0.961 0.777,-1.738 1.736,-1.738 H 0 c 0.959,0 1.736,0.777 1.736,1.738 0,0.959 -0.777,1.736 -1.736,1.736 h -14.763 v 13.304 h 10.71 c 0.959,0 1.736,0.778 1.736,1.736 0,0.961 -0.777,1.738 -1.736,1.738 h -10.71 V 0 Z"
             style="fill:#231f20;fill-opacity:1;fill-rule:nonzero;stroke:none"
             id="path60" /></g><g
           id="g62"
           transform="translate(597.9608,109.7641)"><path
             d="m 0,0 c -0.959,0 -1.736,-0.778 -1.736,-1.738 v -27.285 l -16.909,28.179 c -0.401,0.668 -1.198,0.987 -1.953,0.781 -0.751,-0.209 -1.272,-0.894 -1.272,-1.675 v -33.554 c 0,-0.961 0.777,-1.739 1.736,-1.739 0.959,0 1.738,0.778 1.738,1.739 v 27.285 l 16.907,-28.18 c 0.319,-0.532 0.889,-0.844 1.489,-0.844 0.153,0 0.31,0.021 0.464,0.063 0.751,0.209 1.272,0.895 1.272,1.676 V -1.738 C 1.736,-0.778 0.959,0 0,0"
             style="fill:#231f20;fill-opacity:1;fill-rule:nonzero;stroke:none"
             id="path64" /></g><g
           id="g66"
           transform="translate(635.7271,109.7641)"><path
             d="m 0,0 h -20.134 c -0.959,0 -1.736,-0.778 -1.736,-1.738 0,-0.959 0.777,-1.736 1.736,-1.736 h 8.33 v -31.818 c 0,-0.961 0.777,-1.739 1.738,-1.739 0.959,0 1.736,0.778 1.736,1.739 V -3.474 H 0 c 0.959,0 1.736,0.777 1.736,1.736 C 1.736,-0.778 0.959,0 0,0"
             style="fill:#231f20;fill-opacity:1;fill-rule:nonzero;stroke:none"
             id="path68" /></g><g
           id="g70"
           transform="translate(671.7552,83.4203)"><path
             d="m 0,0 c 0,-3.978 -3.236,-7.212 -7.212,-7.212 h -2.237 c -3.977,0 -7.212,3.234 -7.212,7.212 v 15.659 c 0,3.976 3.235,7.21 7.212,7.21 h 2.237 C -3.236,22.869 0,19.635 0,15.659 Z m -7.212,26.344 h -2.237 c -5.893,0 -10.685,-4.794 -10.685,-10.685 V 0 c 0,-5.893 4.792,-10.687 10.685,-10.687 h 2.237 c 5.892,0 10.685,4.794 10.685,10.687 v 15.659 c 0,5.891 -4.793,10.685 -10.685,10.685"
             style="fill:#231f20;fill-opacity:1;fill-rule:nonzero;stroke:none"
             id="path72" /></g><g
           id="g74"
           transform="translate(700.0708,106.2896)"><path
             d="m 0,0 h 2.237 c 3.976,0 7.212,-3.234 7.212,-7.211 0,-0.96 0.777,-1.738 1.736,-1.738 0.959,0 1.737,0.778 1.737,1.738 0,5.891 -4.793,10.685 -10.685,10.685 H 0 c -5.891,0 -10.685,-4.794 -10.685,-10.685 0,-7.384 6.4,-8.629 11.541,-9.628 5.488,-1.067 8.593,-1.874 8.593,-6.03 0,-3.979 -3.236,-7.213 -7.212,-7.213 H 0 c -3.977,0 -7.212,3.234 -7.212,7.213 0,0.959 -0.778,1.736 -1.737,1.736 -0.958,0 -1.736,-0.777 -1.736,-1.736 0,-5.893 4.794,-10.687 10.685,-10.687 h 2.237 c 5.892,0 10.685,4.794 10.685,10.687 0,7.222 -6.322,8.451 -11.404,9.44 -5.575,1.084 -8.73,1.907 -8.73,6.218 C -7.212,-3.234 -3.977,0 0,0"
             style="fill:#231f20;fill-opacity:1;fill-rule:nonzero;stroke:none"
             id="path76" /></g><g
           id="g78"
           transform="translate(789.7926,228.2225)"><path
             d="m 0,0 h -22.639 v 22.639 c 0,3.099 -2.512,5.61 -5.609,5.61 -3.097,0 -5.608,-2.511 -5.608,-5.61 V 0 h -22.639 c -3.1,0 -5.611,-2.511 -5.611,-5.61 0,-3.098 2.511,-5.608 5.611,-5.608 h 22.639 v -22.641 c 0,-3.098 2.511,-5.609 5.608,-5.609 3.097,0 5.609,2.511 5.609,5.609 v 22.641 H 0 c 3.097,0 5.608,2.51 5.608,5.608 C 5.608,-2.511 3.097,0 0,0"
             style="fill:#231f20;fill-opacity:1;fill-rule:nonzero;stroke:none"
             id="path80" /></g><g
           id="g82"
           transform="translate(265.9945,152.3346)"><path
             d="m 0,0 c 0,-1.619 -1.759,-2.624 -3.154,-1.802 l -9.413,5.545 c -1.402,0.825 -3.168,-0.194 -3.154,-1.821 l -0.113,-10.391 c 0,-27.996 -22.696,-50.692 -50.692,-50.692 h -27.886 c -27.996,0 -50.692,22.696 -50.692,50.692 l -0.364,97.575 c -0.013,3.692 2.976,6.693 6.669,6.693 h 14.211 c 3.673,0 6.655,-2.97 6.669,-6.644 l 0.363,-97.624 c 0,-12.761 10.383,-23.143 23.144,-23.143 h 27.886 c 12.781,0 23.143,10.361 23.143,23.143 V 1.914 c 0,1.619 -1.759,2.624 -3.154,1.803 l -9.369,-5.519 C -57.301,-2.624 -59.06,-1.619 -59.06,0 v 19.543 c 0,0.686 0.336,1.328 0.899,1.719 l 27.438,19.046 c 0.717,0.498 1.669,0.498 2.386,0 L -0.899,21.262 C -0.336,20.871 0,20.229 0,19.543 Z m -80.952,140.417 c -64.698,0 -117.147,-52.448 -117.147,-117.146 0,-64.699 52.449,-117.147 117.147,-117.147 64.698,0 117.146,52.448 117.146,117.147 0,64.698 -52.448,117.146 -117.146,117.146"
             style="fill:#231f20;fill-opacity:1;fill-rule:nonzero;stroke:none"
             id="path84" /></g><g
           id="g86"
           transform="translate(60.8683,173.8044)"><path
             d="M 0,0 C 0,25.003 7.464,48.253 20.254,67.685 1.578,46.306 -9.761,18.353 -9.761,-12.266 c 0,-67.166 54.447,-121.615 121.611,-121.615 33.719,0 64.226,13.728 86.254,35.894 -20.75,-15.867 -46.671,-25.312 -74.809,-25.312 C 55.201,-123.299 0,-68.096 0,0"
             style="fill:#231f20;fill-opacity:1;fill-rule:nonzero;stroke:none"
             id="path88" /></g></g></g></g></svg>
