<svg width="58" height="33" viewBox="0 0 58 33" fill="none" xmlns="http://www.w3.org/2000/svg">
<path d="M44.977 32.9445H6.28144C1.77247 32.9445 -0.907905 27.9123 1.6098 24.1739L15.6684 3.29906C17.9002 -0.0148876 22.7799 -0.0148876 25.0116 3.29906L44.977 32.9445Z" fill="#2626B0"/>
<path d="M56.664 24.1739C59.1818 27.9123 56.5014 32.9445 51.9925 32.9445H13.2969L33.2622 3.29906C35.4939 -0.0148876 40.3736 -0.0148876 42.6055 3.29906L56.664 24.1739Z" fill="url(#paint0_radial_595_1688)"/>
<path d="M56.664 24.1739C59.1818 27.9123 56.5014 32.9445 51.9925 32.9445H13.2969L33.2622 3.29906C35.4939 -0.0148876 40.3736 -0.0148876 42.6055 3.29906L56.664 24.1739Z" fill="url(#paint1_linear_595_1688)"/>
<defs>
<radialGradient id="paint0_radial_595_1688" cx="0" cy="0" r="1" gradientUnits="userSpaceOnUse" gradientTransform="translate(14.3527 32.9445) rotate(-27.2463) scale(58.3923 55.482)">
<stop stop-color="#0FFFF1"/>
<stop offset="1" stop-color="#3C25EF"/>
</radialGradient>
<linearGradient id="paint1_linear_595_1688" x1="63.4505" y1="38.0449" x2="17.3967" y2="20.4365" gradientUnits="userSpaceOnUse">
<stop stop-color="#FFB5F5"/>
<stop offset="1" stop-color="#FFBDF6" stop-opacity="0"/>
</linearGradient>
</defs>
</svg>
