<svg width="500" height="460" viewBox="0 0 500 460" fill="none" xmlns="http://www.w3.org/2000/svg">
<path d="M170.001 0C136.993 0 110.001 26.9922 110.001 60C110.001 79.8438 119.766 97.5 134.688 108.438C126.68 112.461 119.376 117.656 113.126 124.062C105.86 121.484 98.1257 120 90.0007 120C51.446 120 20.0007 151.445 20.0007 190C20.0007 214.492 32.696 236.25 51.8757 248.75C21.3289 263.203 0.000733414 294.141 0.000733414 330V375C-0.0383291 378.203 1.48511 381.211 4.06323 383.125C4.06323 383.125 11.1335 388.125 24.6882 392.188C38.2429 396.25 59.1804 400 90.0007 400C120.821 400 141.759 396.25 155.313 392.188C157.071 391.68 158.477 391.172 160.001 390.625V435C159.962 438.203 161.485 441.211 164.063 443.125C164.063 443.125 171.134 448.125 184.688 452.188C198.243 456.25 219.18 460 250.001 460C280.821 460 301.759 456.25 315.313 452.188C328.868 448.125 335.938 443.125 335.938 443.125C338.516 441.211 340.04 438.203 340.001 435V390.625C341.524 391.172 342.93 391.68 344.688 392.188C358.243 396.25 379.18 400 410.001 400C440.821 400 461.759 396.25 475.313 392.188C488.868 388.125 495.938 383.125 495.938 383.125C498.516 381.211 500.04 378.203 500.001 375V330C500.001 294.141 478.673 263.203 448.126 248.75C467.305 236.25 480.001 214.492 480.001 190C480.001 151.445 448.555 120 410.001 120C401.29 120 393.009 121.758 385.313 124.688C379.024 118.086 371.602 112.578 363.438 108.438C378.36 97.5 388.126 79.8438 388.126 60C388.126 26.9922 361.134 0 328.126 0C295.118 0 268.126 26.9922 268.126 60C268.126 79.8438 277.891 97.5 292.813 108.438C269.844 119.766 253.048 141.562 249.063 167.812C245.079 141.523 228.321 119.727 205.313 108.438C220.235 97.5 230.001 79.8438 230.001 60C230.001 26.9922 203.009 0 170.001 0ZM170.001 20C192.227 20 210.001 37.7734 210.001 60C210.001 82.2266 192.227 100 170.001 100C147.774 100 130.001 82.2266 130.001 60C130.001 37.7734 147.774 20 170.001 20ZM328.126 20C350.352 20 368.126 37.7734 368.126 60C368.126 82.2266 350.352 100 328.126 100C305.899 100 288.126 82.2266 288.126 60C288.126 37.7734 305.899 20 328.126 20ZM170.001 120C203.712 120 230.001 146.289 230.001 180V183.125C201.251 191.836 180.001 218.477 180.001 250C180.001 274.492 192.696 296.25 211.876 308.75C199.337 314.688 188.594 323.398 180.001 334.062V330C180.001 294.141 158.673 263.203 128.126 248.75C147.305 236.25 160.001 214.492 160.001 190C160.001 167.188 148.868 146.875 131.876 134.062C142.266 125.195 155.157 120 170.001 120ZM328.126 120C343.399 120 356.68 125.352 367.188 134.688C350.704 147.5 340.001 167.617 340.001 190C340.001 214.492 352.696 236.25 371.876 248.75C341.329 263.203 320.001 294.141 320.001 330V334.062C311.407 323.398 300.665 314.688 288.126 308.75C307.305 296.25 320.001 274.492 320.001 250C320.001 217.773 297.891 190.547 268.126 182.5V180C268.126 146.289 294.415 120 328.126 120ZM90.0007 140C97.7742 140 105.001 141.875 111.563 145C128.36 153.047 140.001 170.039 140.001 190C140.001 217.734 117.735 240 90.0007 240C62.2664 240 40.0007 217.734 40.0007 190C40.0007 162.266 62.2664 140 90.0007 140ZM410.001 140C437.735 140 460.001 162.266 460.001 190C460.001 217.734 437.735 240 410.001 240C382.266 240 360.001 217.734 360.001 190C360.001 171.523 369.884 155.547 384.688 146.875C384.766 146.836 384.923 146.914 385.001 146.875C386.485 146.562 387.852 145.938 389.063 145C389.415 144.844 389.649 144.531 390.001 144.375C390.196 144.297 390.43 144.18 390.626 144.062C396.602 141.523 403.087 140 410.001 140ZM250.001 200C277.735 200 300.001 222.266 300.001 250C300.001 277.734 277.735 300 250.001 300C222.266 300 200.001 277.734 200.001 250C200.001 222.266 222.266 200 250.001 200ZM90.0007 260C128.555 260 160.001 291.445 160.001 330V368.438C158.516 369.336 157.93 370.352 149.688 372.812C138.243 376.25 119.18 380 90.0007 380C60.821 380 41.7585 376.25 30.3132 372.812C22.071 370.352 21.4851 369.336 20.0007 368.438V330C20.0007 291.445 51.446 260 90.0007 260ZM410.001 260C448.555 260 480.001 291.445 480.001 330V368.438C478.516 369.336 477.93 370.352 469.688 372.812C458.243 376.25 439.18 380 410.001 380C380.821 380 361.759 376.25 350.313 372.812C342.071 370.352 341.485 369.336 340.001 368.438V330C340.001 291.445 371.446 260 410.001 260ZM250.001 320C288.555 320 320.001 351.445 320.001 390V428.438C318.516 429.336 317.93 430.352 309.688 432.812C298.243 436.25 279.18 440 250.001 440C220.821 440 201.759 436.25 190.313 432.812C182.071 430.352 181.485 429.336 180.001 428.438V390C180.001 351.445 211.446 320 250.001 320Z" fill="white"/>
<path d="M170.001 0C136.993 0 110.001 26.9922 110.001 60C110.001 79.8438 119.766 97.5 134.688 108.438C126.68 112.461 119.376 117.656 113.126 124.062C105.86 121.484 98.1257 120 90.0007 120C51.446 120 20.0007 151.445 20.0007 190C20.0007 214.492 32.696 236.25 51.8757 248.75C21.3289 263.203 0.000733414 294.141 0.000733414 330V375C-0.0383291 378.203 1.48511 381.211 4.06323 383.125C4.06323 383.125 11.1335 388.125 24.6882 392.188C38.2429 396.25 59.1804 400 90.0007 400C120.821 400 141.759 396.25 155.313 392.188C157.071 391.68 158.477 391.172 160.001 390.625V435C159.962 438.203 161.485 441.211 164.063 443.125C164.063 443.125 171.134 448.125 184.688 452.188C198.243 456.25 219.18 460 250.001 460C280.821 460 301.759 456.25 315.313 452.188C328.868 448.125 335.938 443.125 335.938 443.125C338.516 441.211 340.04 438.203 340.001 435V390.625C341.524 391.172 342.93 391.68 344.688 392.188C358.243 396.25 379.18 400 410.001 400C440.821 400 461.759 396.25 475.313 392.188C488.868 388.125 495.938 383.125 495.938 383.125C498.516 381.211 500.04 378.203 500.001 375V330C500.001 294.141 478.673 263.203 448.126 248.75C467.305 236.25 480.001 214.492 480.001 190C480.001 151.445 448.555 120 410.001 120C401.29 120 393.009 121.758 385.313 124.688C379.024 118.086 371.602 112.578 363.438 108.438C378.36 97.5 388.126 79.8438 388.126 60C388.126 26.9922 361.134 0 328.126 0C295.118 0 268.126 26.9922 268.126 60C268.126 79.8438 277.891 97.5 292.813 108.438C269.844 119.766 253.048 141.562 249.063 167.812C245.079 141.523 228.321 119.727 205.313 108.438C220.235 97.5 230.001 79.8438 230.001 60C230.001 26.9922 203.009 0 170.001 0ZM170.001 20C192.227 20 210.001 37.7734 210.001 60C210.001 82.2266 192.227 100 170.001 100C147.774 100 130.001 82.2266 130.001 60C130.001 37.7734 147.774 20 170.001 20ZM328.126 20C350.352 20 368.126 37.7734 368.126 60C368.126 82.2266 350.352 100 328.126 100C305.899 100 288.126 82.2266 288.126 60C288.126 37.7734 305.899 20 328.126 20ZM170.001 120C203.712 120 230.001 146.289 230.001 180V183.125C201.251 191.836 180.001 218.477 180.001 250C180.001 274.492 192.696 296.25 211.876 308.75C199.337 314.688 188.594 323.398 180.001 334.062V330C180.001 294.141 158.673 263.203 128.126 248.75C147.305 236.25 160.001 214.492 160.001 190C160.001 167.188 148.868 146.875 131.876 134.062C142.266 125.195 155.157 120 170.001 120ZM328.126 120C343.399 120 356.68 125.352 367.188 134.688C350.704 147.5 340.001 167.617 340.001 190C340.001 214.492 352.696 236.25 371.876 248.75C341.329 263.203 320.001 294.141 320.001 330V334.062C311.407 323.398 300.665 314.688 288.126 308.75C307.305 296.25 320.001 274.492 320.001 250C320.001 217.773 297.891 190.547 268.126 182.5V180C268.126 146.289 294.415 120 328.126 120ZM90.0007 140C97.7742 140 105.001 141.875 111.563 145C128.36 153.047 140.001 170.039 140.001 190C140.001 217.734 117.735 240 90.0007 240C62.2664 240 40.0007 217.734 40.0007 190C40.0007 162.266 62.2664 140 90.0007 140ZM410.001 140C437.735 140 460.001 162.266 460.001 190C460.001 217.734 437.735 240 410.001 240C382.266 240 360.001 217.734 360.001 190C360.001 171.523 369.884 155.547 384.688 146.875C384.766 146.836 384.923 146.914 385.001 146.875C386.485 146.562 387.852 145.938 389.063 145C389.415 144.844 389.649 144.531 390.001 144.375C390.196 144.297 390.43 144.18 390.626 144.062C396.602 141.523 403.087 140 410.001 140ZM250.001 200C277.735 200 300.001 222.266 300.001 250C300.001 277.734 277.735 300 250.001 300C222.266 300 200.001 277.734 200.001 250C200.001 222.266 222.266 200 250.001 200ZM90.0007 260C128.555 260 160.001 291.445 160.001 330V368.438C158.516 369.336 157.93 370.352 149.688 372.812C138.243 376.25 119.18 380 90.0007 380C60.821 380 41.7585 376.25 30.3132 372.812C22.071 370.352 21.4851 369.336 20.0007 368.438V330C20.0007 291.445 51.446 260 90.0007 260ZM410.001 260C448.555 260 480.001 291.445 480.001 330V368.438C478.516 369.336 477.93 370.352 469.688 372.812C458.243 376.25 439.18 380 410.001 380C380.821 380 361.759 376.25 350.313 372.812C342.071 370.352 341.485 369.336 340.001 368.438V330C340.001 291.445 371.446 260 410.001 260ZM250.001 320C288.555 320 320.001 351.445 320.001 390V428.438C318.516 429.336 317.93 430.352 309.688 432.812C298.243 436.25 279.18 440 250.001 440C220.821 440 201.759 436.25 190.313 432.812C182.071 430.352 181.485 429.336 180.001 428.438V390C180.001 351.445 211.446 320 250.001 320Z" fill="url(#paint0_linear_602_9)"/>
<defs>
<linearGradient id="paint0_linear_602_9" x1="0" y1="0" x2="415.255" y2="33.7917" gradientUnits="userSpaceOnUse">
<stop offset="0.527703" stop-color="#D39F36"/>
<stop offset="1" stop-color="#E6B656"/>
</linearGradient>
</defs>
</svg>
