<?xml version="1.0" encoding="utf-8"?>
<svg xmlns="http://www.w3.org/2000/svg" fill="none" height="58" viewBox="0 0 65 58" width="65">
<path d="M45.4632 0.373562H2.10495C1.88426 0.370617 1.66518 0.41142 1.46034 0.493614C1.25551 0.575808 1.06899 0.697765 0.911548 0.852442C0.754108 1.00712 0.628868 1.19145 0.543062 1.3948C0.457255 1.59815 0.412582 1.81648 0.411621 2.03719V29.0414C0.411621 29.4905 0.590026 29.9212 0.907587 30.2387C1.22515 30.5563 1.65585 30.7347 2.10495 30.7347H5.3505V7.31028C5.34756 6.93779 5.41839 6.5684 5.5589 6.22342C5.69942 5.87844 5.90683 5.56468 6.1692 5.30025C6.43156 5.03582 6.74367 4.82594 7.08754 4.68272C7.4314 4.5395 7.80022 4.46577 8.17272 4.46578H47.1342V2.03719C47.1342 1.81809 47.0909 1.60115 47.0069 1.39882C46.9228 1.1965 46.7996 1.01277 46.6443 0.858192C46.489 0.703613 46.3048 0.581227 46.1021 0.49806C45.8994 0.414893 45.6822 0.372584 45.4632 0.373562Z" fill="#D197FF"/>
<path d="M8.17204 6.79745C8.10605 6.79841 8.04091 6.81248 7.98042 6.83885C7.91992 6.86522 7.86527 6.90336 7.81966 6.95105C7.77404 6.99874 7.73836 7.05503 7.71471 7.11664C7.69105 7.17825 7.67989 7.24395 7.68186 7.30991V30.7566H7.74871H10.7715C11.0575 30.8047 11.3307 30.9105 11.5746 31.0676C11.8185 31.2246 12.0278 31.4296 12.19 31.6701L13.8388 34.0467V15.6874C13.8484 15.3 14.0092 14.9316 14.2867 14.661C14.5642 14.3905 14.9365 14.2391 15.3241 14.2392L47.1112 14.2838L47.2004 6.79745H8.17204Z" fill="#FFDD71"/>
<path d="M62.9172 14.2244H49.8013V31.388C49.7994 31.8286 49.6235 32.2506 49.3119 32.5622C49.0003 32.8737 48.5783 33.0496 48.1377 33.0516H30.1126C29.8405 33.0541 29.573 33.1231 29.3335 33.2525C29.0941 33.382 28.8899 33.5679 28.7387 33.7943L23.0868 42.105C22.9367 42.3333 22.7322 42.5207 22.4918 42.6504C22.2513 42.7801 21.9823 42.848 21.7091 42.848C21.4359 42.848 21.167 42.7801 20.9265 42.6504C20.686 42.5207 20.4815 42.3333 20.3314 42.105L18.7421 39.8398L17.9028 38.5995V42.9219C17.9028 43.3612 18.0773 43.7824 18.3879 44.093C18.6985 44.4036 19.1198 44.5781 19.559 44.5781H28.0851C28.3536 44.5836 28.6168 44.654 28.8522 44.7834C29.0876 44.9127 29.2882 45.0971 29.4368 45.3208L35.1778 53.6761C35.3313 53.8997 35.537 54.0826 35.777 54.209C36.017 54.3354 36.2842 54.4014 36.5555 54.4014C36.8267 54.4014 37.0939 54.3354 37.334 54.209C37.574 54.0826 37.7796 53.8997 37.9332 53.6761L43.5479 45.3283C43.6979 45.099 43.9029 44.911 44.1441 44.7812C44.3854 44.6515 44.6553 44.5842 44.9293 44.5856H62.9024C63.1218 44.5875 63.3395 44.5462 63.543 44.4641C63.7465 44.3819 63.9318 44.2604 64.0884 44.1066C64.2449 43.9529 64.3696 43.7697 64.4554 43.5677C64.5412 43.3657 64.5863 43.1488 64.5883 42.9294V15.8806C64.5844 15.44 64.4066 15.0188 64.0936 14.7086C63.7807 14.3984 63.3579 14.2244 62.9172 14.2244Z" fill="#90D5FC"/>
<path d="M25.1804 46.9549C24.7216 46.9544 24.2697 46.8427 23.8635 46.6293C23.4573 46.4158 23.109 46.1071 22.8483 45.7295L17.1074 37.3742C17.0614 37.306 16.9995 37.2501 16.927 37.2112C16.8545 37.1724 16.7737 37.1519 16.6915 37.1514H8.18023C7.42976 37.1514 6.71003 36.8533 6.17937 36.3226C5.64871 35.7919 5.35059 35.0722 5.35059 34.3217V7.29528C5.35255 6.54542 5.6513 5.82682 6.18154 5.29659C6.71177 4.76635 7.43037 4.4676 8.18023 4.46564H51.5533C52.3032 4.4676 53.0217 4.76635 53.552 5.29659C54.0822 5.82682 54.381 6.54542 54.3829 7.29528V34.3217C54.3829 35.0722 54.0848 35.7919 53.5541 36.3226C53.0235 36.8533 52.3038 37.1514 51.5533 37.1514H33.5579C33.4768 37.1524 33.3972 37.1733 33.326 37.2121C33.2548 37.2509 33.1942 37.3066 33.1494 37.3742L27.5273 45.6775C27.2687 46.0587 26.9213 46.3715 26.5151 46.5888C26.1089 46.8062 25.6559 46.9216 25.1952 46.9252L25.1804 46.9549ZM8.18023 6.79768C8.04826 6.79768 7.92169 6.85011 7.82837 6.94343C7.73506 7.03674 7.68263 7.16331 7.68263 7.29528V34.3217C7.68263 34.4537 7.73506 34.5803 7.82837 34.6736C7.92169 34.7669 8.04826 34.8193 8.18023 34.8193H16.6915C17.1506 34.8162 17.6037 34.9239 18.0123 35.1333C18.4209 35.3428 18.7729 35.6478 19.0383 36.0225L24.7793 44.3778C24.823 44.4459 24.8836 44.5016 24.9552 44.5394C25.0268 44.5771 25.1069 44.5956 25.1878 44.5931C25.2684 44.5886 25.3471 44.5671 25.4188 44.53C25.4905 44.4929 25.5535 44.441 25.6037 44.3778L31.2185 36.0448C31.4776 35.6605 31.8271 35.3458 32.2363 35.1282C32.6455 34.9107 33.1019 34.7969 33.5653 34.7971H51.5533C51.6853 34.7971 51.8118 34.7446 51.9051 34.6513C51.9985 34.558 52.0509 34.4314 52.0509 34.2995V7.29528C52.0509 7.16331 51.9985 7.03674 51.9051 6.94343C51.8118 6.85011 51.6853 6.79768 51.5533 6.79768H8.18023Z" fill="#757575"/>
<path d="M49.6673 57.6271H48.583C48.7883 57.6154 48.9941 57.6154 49.1994 57.6271C49.3552 57.616 49.5116 57.616 49.6673 57.6271Z" fill="#757575"/>
</svg>