<svg width="653" height="95" viewBox="0 0 653 95" fill="none" xmlns="http://www.w3.org/2000/svg">
<g clip-path="url(#clip0_656_68)">
<path d="M413.77 62.3255V20.1946C413.77 20.1946 413.851 19.8279 413.973 19.7057C414.094 19.5834 414.257 19.502 414.46 19.502H427.29C427.29 19.502 427.656 19.5834 427.777 19.7057C427.899 19.8279 427.98 19.9909 427.98 20.1946V48.0646C427.98 51.9762 426.397 55.5618 423.839 58.1287C421.281 60.6957 417.708 62.2848 413.81 62.2848L413.77 62.3255Z" fill="#786CF7"/>
<path d="M456.321 76.5459H427.94C424.042 76.5459 420.469 74.9568 417.911 72.3898C415.353 69.8229 413.77 66.2373 413.77 62.3257H456.321C456.524 62.3257 456.687 62.4072 456.808 62.5294C456.93 62.6516 457.011 62.8146 457.011 63.0184V75.894C457.011 75.894 456.93 76.2607 456.808 76.3829C456.687 76.5051 456.524 76.5866 456.321 76.5866V76.5459Z" fill="#786CF7"/>
<path d="M638.828 19.3797V26.1027C638.828 26.3472 638.706 26.5509 638.543 26.6731C638.381 26.7954 638.137 26.8361 637.934 26.7546C636.757 26.3472 635.579 26.0212 634.321 25.7767C633.062 25.5323 631.803 25.4508 630.504 25.4508H617.389C611.299 25.4508 605.818 27.9363 601.839 31.9293C597.86 35.9224 595.383 41.4638 595.383 47.5349V54.2171C595.383 60.329 597.86 65.8296 601.839 69.8227C605.818 73.8158 611.34 76.3012 617.389 76.3012H630.504C636.595 76.3012 642.076 73.8158 646.055 69.8227C650.034 65.8296 652.511 60.2882 652.511 54.2171V19.3797C652.511 19.3797 652.43 19.013 652.308 18.8907C652.186 18.7685 652.024 18.687 651.821 18.687H639.477C639.477 18.687 639.112 18.7685 638.99 18.8907C638.868 19.013 638.787 19.176 638.787 19.3797H638.828ZM638.828 54.2171C638.828 56.4989 637.894 58.6177 636.392 60.1252C634.889 61.6328 632.818 62.57 630.504 62.57H617.389C615.116 62.57 613.004 61.6328 611.502 60.1252C610 58.6177 609.066 56.5396 609.066 54.2171V47.5349C609.066 45.2531 610 43.1343 611.502 41.6268C613.004 40.1192 615.075 39.182 617.389 39.182H630.504C632.778 39.182 634.889 40.1192 636.392 41.6268C637.894 43.1343 638.828 45.2124 638.828 47.5349V54.2171Z" fill="#786CF7"/>
<path d="M513.203 76.3016H487.421C481.33 76.3016 475.849 73.8161 471.87 69.8231C467.891 65.83 465.414 60.2886 465.414 54.2175V46.7203C465.414 40.6085 467.891 35.1078 471.87 31.1148C475.849 27.1217 481.371 24.6362 487.421 24.6362H506.951C511.255 24.6362 515.152 26.3883 517.995 29.2405C520.837 32.0927 522.583 36.0042 522.583 40.3233C522.583 44.6423 520.837 48.5539 517.995 51.4061C515.152 54.2583 511.255 56.0103 506.951 56.0103H489.207C489.207 56.0103 488.842 55.9288 488.72 55.8066C488.598 55.6843 488.517 55.5214 488.517 55.3176V45.6202C488.517 45.6202 488.598 45.2535 488.72 45.1312C488.842 45.009 489.004 44.9275 489.207 44.9275H505.611C506.504 44.9275 507.316 44.5608 507.925 43.9904C508.534 43.4199 508.859 42.5643 508.859 41.6679C508.859 40.7715 508.494 39.9566 507.925 39.3454C507.357 38.7342 506.504 38.4082 505.611 38.4082H487.421C485.106 38.4082 483.036 39.3454 481.533 40.853C480.031 42.3606 479.097 44.4386 479.097 46.7611V54.2583C479.097 56.5808 480.031 58.6588 481.533 60.1664C483.036 61.6739 485.106 62.6111 487.421 62.6111H513.203C513.203 62.6111 513.569 62.6926 513.691 62.8148C513.812 62.9371 513.894 63.1 513.894 63.3038V75.6904C513.894 75.6904 513.812 76.0571 513.691 76.1794C513.569 76.3016 513.406 76.3831 513.203 76.3831V76.3016Z" fill="#786CF7"/>
<path d="M538.582 24.6362H564.365C570.455 24.6362 575.937 27.1217 579.916 31.1147C583.895 35.1078 586.372 40.6492 586.372 46.7203V54.2175C586.372 60.3293 583.895 65.8299 579.916 69.823C575.937 73.8161 570.415 76.3016 564.365 76.3016H544.835C540.531 76.3016 536.633 74.5495 533.791 71.6973C530.949 68.8451 529.203 64.9335 529.203 60.6145C529.203 56.2955 530.949 52.3839 533.791 49.5317C536.633 46.6795 540.531 44.9275 544.835 44.9275H562.579C562.579 44.9275 562.944 45.009 563.066 45.1312C563.188 45.2534 563.269 45.4164 563.269 45.6201V55.3176C563.269 55.3176 563.188 55.6843 563.066 55.8065C562.944 55.9288 562.782 56.0103 562.579 56.0103H546.175C545.282 56.0103 544.47 56.377 543.861 56.9474C543.252 57.5178 542.927 58.3735 542.927 59.2699C542.927 60.1663 543.292 60.9812 543.861 61.5924C544.429 62.2036 545.282 62.5295 546.175 62.5295H564.365C566.679 62.5295 568.75 61.5924 570.252 60.0848C571.755 58.5772 572.689 56.4992 572.689 54.1767V46.6795C572.689 44.357 571.755 42.279 570.252 40.7714C568.75 39.2638 566.679 38.3267 564.365 38.3267H538.582C538.582 38.3267 538.217 38.2452 538.095 38.123C537.973 38.0007 537.892 37.8377 537.892 37.634V25.2474C537.892 25.2474 537.973 24.8807 538.095 24.7584C538.217 24.6362 538.379 24.5547 538.582 24.5547V24.6362Z" fill="#786CF7"/>
<path d="M46.3949 1.69651H1.52893C1.1229 1.69651 0.79808 1.85949 0.554464 2.10396C0.310848 2.34844 0.148438 2.71515 0.148438 3.08186V92.0702C0.148438 92.4776 0.310848 92.8036 0.554464 93.0481C0.79808 93.2925 1.1635 93.4555 1.52893 93.4555H17.5264C17.9324 93.4555 18.2572 93.2925 18.5008 93.0481C18.7445 92.8036 18.9069 92.4369 18.9069 92.0702V71.8604C18.9069 70.964 19.2723 70.1898 19.8407 69.5786C20.4092 68.9674 21.2212 68.6415 22.1145 68.6415H46.3949C55.0839 68.6415 62.9202 65.0966 68.6046 59.3922C74.2889 53.6878 77.8214 45.8239 77.8214 37.1044V33.1928C77.8214 24.4733 74.2889 16.6094 68.6046 10.905C62.9202 5.20063 55.0839 1.65576 46.3949 1.65576V1.69651ZM59.0223 37.1451C59.0223 40.6493 57.6012 43.7867 55.3275 46.1092C53.0537 48.4317 49.8867 49.817 46.3949 49.817H22.1145C21.2212 49.817 20.4498 49.4503 19.8407 48.8799C19.2317 48.3094 18.9069 47.4945 18.9069 46.5981V21.9878C18.9069 21.5803 19.0693 21.2544 19.3129 21.0099C19.5565 20.7654 19.9219 20.6024 20.2874 20.6024H46.3543C49.8461 20.6024 52.9725 22.0285 55.2869 24.3103C57.5606 26.592 58.9817 29.7702 58.9817 33.2743V37.1859L59.0223 37.1451Z" fill="#E0E0E0"/>
<path d="M155.128 93.496H94.7516C94.3456 93.496 94.0207 93.333 93.7771 93.0885C93.5335 92.844 93.3711 92.4773 93.3711 92.1106V3.0001C93.3711 2.59264 93.5335 2.26668 93.7771 2.0222C94.0207 1.77773 94.3862 1.61475 94.7516 1.61475H110.749C111.155 1.61475 111.48 1.77773 111.724 2.0222C111.967 2.26668 112.13 2.63339 112.13 3.0001V71.4119C112.13 72.3083 112.495 73.0824 113.063 73.6936C113.632 74.3048 114.444 74.6308 115.337 74.6308H155.128C155.534 74.6308 155.859 74.7938 156.102 75.0382C156.346 75.2827 156.508 75.6494 156.508 76.0161V92.0699C156.508 92.4773 156.346 92.8033 156.102 93.0478C155.859 93.2922 155.493 93.4552 155.128 93.4552V93.496Z" fill="#E0E0E0"/>
<path d="M209.741 94.4739H206.939C195.692 94.4739 185.501 89.9104 178.152 82.4947C170.803 75.079 166.215 64.8926 166.215 53.6061V3.0001C166.215 2.59264 166.377 2.26668 166.621 2.0222C166.864 1.77773 167.23 1.61475 167.595 1.61475H183.593C183.999 1.61475 184.324 1.77773 184.567 2.0222C184.811 2.26668 184.973 2.63339 184.973 3.0001V53.6061C184.973 59.6772 187.409 65.1778 191.389 69.1709C195.368 73.1639 200.849 75.6087 206.899 75.6087H209.7C215.75 75.6087 221.231 73.1639 225.211 69.1709C229.19 65.1778 231.626 59.6772 231.626 53.6061V3.0001C231.626 2.59264 231.788 2.26668 232.032 2.0222C232.275 1.77773 232.641 1.61475 233.006 1.61475H249.004C249.41 1.61475 249.735 1.77773 249.978 2.0222C250.222 2.26668 250.384 2.63339 250.384 3.0001V53.6061C250.384 64.8926 245.837 75.1197 238.447 82.4947C231.098 89.8696 220.907 94.4739 209.66 94.4739H209.741Z" fill="#E0E0E0"/>
<path d="M355.624 62.2035V62.8554C355.624 68.5598 353.634 73.8975 350.143 78.5425C346.651 83.1467 341.657 87.0583 335.647 89.8697C333.78 90.7661 331.79 91.581 329.638 92.233C327.486 92.8849 325.172 93.4553 322.655 93.822C321.193 94.0665 319.731 94.2295 318.188 94.3925C316.645 94.5555 315.143 94.5962 313.6 94.5962H312.179C298.943 94.5962 287.005 89.0548 278.479 80.213C269.952 71.3305 264.877 59.1476 265.364 45.7423C265.851 33.3964 271.089 22.2728 279.332 14.1237C287.614 5.97462 298.821 0.840676 311.123 0.555457C320.787 0.310984 329.841 3.08168 337.393 7.9304C344.945 12.7791 351.036 19.7466 354.812 28.018C355.015 28.4662 354.974 28.9959 354.731 29.3626C354.487 29.7293 354.04 30.0145 353.553 30.0145H334.795C334.592 30.0145 334.389 29.9737 334.186 29.8923C333.983 29.8108 333.82 29.6885 333.699 29.5255C331.141 26.4696 327.892 23.9434 324.279 22.1913C320.665 20.4393 316.564 19.4614 312.22 19.4614C304.262 19.4614 297.075 22.8025 291.959 28.1402C286.843 33.4779 283.838 40.8528 284.204 48.9204C284.529 56.2139 287.696 62.7739 292.568 67.5819C297.44 72.3899 304.018 75.4458 311.286 75.6903C311.448 75.6903 313.397 75.6903 313.519 75.6903C318.676 75.731 323.954 74.7531 328.258 72.5936C332.562 70.4341 335.891 67.0115 337.15 62.2035H355.665H355.624Z" fill="#E0E0E0"/>
<path d="M355.626 62.2442H308.689C308.283 62.2442 307.958 62.0813 307.715 61.8368C307.471 61.5923 307.309 61.2256 307.309 60.8589V43.8272C307.309 43.4198 307.471 43.0938 307.715 42.8494C307.958 42.6049 308.324 42.4419 308.689 42.4419H335.852C341.293 42.4419 346.247 44.6422 349.82 48.2685C353.393 51.8949 355.626 56.8251 355.626 62.285V62.2442Z" fill="#738BAA"/>
</g>
<defs>
<clipPath id="clip0_656_68">
<rect width="652.444" height="94" fill="white" transform="translate(0.109375 0.555664)"/>
</clipPath>
</defs>
</svg>
