<svg style="fill-rule:evenodd;clip-rule:evenodd;stroke-linejoin:round;stroke-miterlimit:2;" xml:space="preserve" xmlns:xlink="http://www.w3.org/1999/xlink" xmlns="http://www.w3.org/2000/svg" version="1.1" viewBox="0 0 2138 691" height="100%" width="100%"><path style="fill:#fff;fill-rule:nonzero;" d="M0,222.522c0,-37.454 21.296,-61.692 54.346,-61.692c24.233,0 41.858,12.483 53.608,38.188c30.113,-30.109 49.204,-40.388 74.175,-40.388c30.842,0 55.079,24.967 55.079,55.813c0,25.7 -11.016,35.983 -55.079,49.204c-58.754,19.829 -75.642,35.987 -74.175,71.971l0,135.862c0,25.704 -0.733,32.313 -7.346,44.796c-8.075,16.158 -27.171,27.171 -46.262,27.171c-19.829,-0 -38.925,-11.013 -47,-27.171c-6.613,-12.483 -7.346,-18.358 -7.346,-44.796l-0,-248.958Z"></path><path style="fill:#fff;fill-rule:nonzero;" d="M479.561,314.319c-5.137,-20.563 -8.812,-29.375 -15.421,-39.659c-12.483,-17.625 -33.05,-27.904 -55.079,-27.904c-35.987,0 -59.483,20.563 -74.908,67.563l145.408,-0Zm-141.737,73.441c16.154,43.325 43.329,63.892 85.921,63.892c25.704,0 32.316,-2.204 88.866,-30.112c6.609,-2.938 15.421,-5.138 23.5,-5.138c22.029,0 43.329,21.296 43.329,44.063c0,44.062 -78.583,85.191 -161.566,85.191c-115.3,0 -196.084,-77.846 -196.084,-188.008c0,-114.567 78.58,-199.017 185.067,-199.017c100.613,0 179.192,81.513 179.192,186.534c-0,30.108 -13.954,42.595 -47.004,42.595l-201.221,0Z"></path><path style="fill:#fff;fill-rule:nonzero;" d="M873.202,180.66c18.358,10.283 30.112,29.375 30.112,49.208c0,26.434 -19.091,48.467 -42.596,48.467c-9.545,0 -12.483,-0.733 -38.925,-11.017c-15.42,-5.875 -27.17,-8.079 -38.92,-8.079c-46.267,0 -79.317,38.925 -79.317,93.267c-0,55.817 33.05,92.533 82.254,92.533c13.217,0 27.908,-3.671 42.596,-10.279c18.358,-8.812 21.296,-9.55 30.842,-9.55c24.975,0 44.8,21.3 44.8,49.208c-0,14.688 -8.08,30.113 -20.563,39.659c-25.704,19.096 -67.562,31.579 -107.954,31.579c-52.879,-0 -96.942,-19.096 -130.721,-55.817c-34.521,-37.454 -49.208,-78.579 -49.208,-138.8c-0,-58.75 19.829,-110.158 55.812,-142.471c34.521,-31.579 82.988,-49.937 128.521,-49.937c33.05,-0 68.3,8.075 93.267,22.029"></path><path style="fill:#fff;fill-rule:nonzero;" d="M1615.74,490.576c-0,33.046 -27.171,60.217 -59.484,60.217c-33.783,-0 -60.22,-27.171 -60.22,-60.217c-0,-33.05 27.17,-59.487 60.95,-59.487c32.316,-0 58.754,27.171 58.754,59.487"></path><path style="fill:#fff;fill-rule:nonzero;" d="M1634.84,232.8c-0,-25.7 0.737,-32.312 7.346,-44.796c8.075,-16.158 27.17,-27.171 47,-27.171c19.095,0 38.187,11.013 46.266,27.171c6.609,12.484 7.342,18.359 7.342,44.796l-0,238.679c-0,25.704 -0.733,32.313 -7.342,44.796c-8.079,16.158 -27.171,27.175 -46.266,27.175c-19.83,0 -38.925,-11.017 -47,-27.175c-6.609,-12.483 -7.346,-18.358 -7.346,-44.796l-0,-238.679Zm117.504,-170.379c-0,35.25 -27.908,63.162 -62.425,63.162c-35.25,0 -63.154,-27.912 -63.154,-63.162c-0,-34.517 28.641,-62.421 63.891,-62.421c33.78,-0 61.688,28.642 61.688,62.421"></path><path style="fill:#fff;fill-rule:nonzero;" d="M1800.81,223.991c-0,-38.188 22.029,-63.158 55.079,-63.158c24.233,-0 39.654,11.012 49.937,37.454c31.579,-29.379 57.284,-39.659 99.142,-39.659c37.454,0 69.033,11.017 94.004,32.313c28.642,25.704 38.921,52.142 38.921,103.55l-0,176.987c-0,25.705 -0.729,32.313 -7.342,44.796c-8.079,16.159 -27.175,27.175 -46.266,27.175c-19.83,0 -38.925,-11.016 -47,-27.175c-6.613,-12.483 -7.346,-18.358 -7.346,-44.796l-0,-151.283c-0,-41.858 -23.5,-68.3 -60.221,-68.3c-34.517,0 -60.954,27.913 -60.954,63.892l-0,155.691c-0,25.705 -0.734,32.313 -7.346,44.796c-8.075,16.159 -27.171,27.175 -46.263,27.175c-19.829,0 -38.925,-11.016 -47,-27.175c-6.612,-12.483 -7.345,-18.358 -7.345,-44.796l-0,-247.487Z"></path><path style="fill:#fff;fill-rule:nonzero;" d="M1249.28,392.9c-0,38.187 -8.079,66.095 -26.442,88.862c-30.841,39.658 -84.45,63.892 -141.004,63.892c-56.546,-0 -110.154,-24.234 -141,-63.892c-18.363,-22.767 -26.438,-50.675 -26.438,-88.862l0,-160.1c0,-25.7 0.734,-32.313 7.346,-44.796c8.075,-16.159 27.171,-27.171 47,-27.171c19.092,-0 38.188,11.012 46.263,27.171c6.612,12.483 7.346,18.358 7.346,44.796l-0,146.879c-0,22.766 4.408,33.787 16.891,46.271c11.75,11.012 26.442,16.887 42.592,16.887c16.158,0 30.85,-5.875 42.596,-16.887c12.487,-12.484 16.891,-23.505 16.891,-46.271l0,-146.879c0,-25.7 0.738,-32.313 7.346,-44.796c8.079,-16.159 27.171,-27.171 47,-27.171c19.096,-0 38.192,11.012 46.267,27.171c6.608,12.483 7.346,18.358 7.346,44.796l-0,160.1Z"></path><path style="fill:#fff;fill-rule:nonzero;" d="M1311.39,401.851c-3.225,-3.225 -5.991,-6.033 -8.421,-8.562l-16.616,16.621c-13.684,13.683 -37.079,3.991 -37.079,-15.363l-0,-109.95c-0,-11.996 9.725,-21.721 21.72,-21.721l109.95,0c19.355,0 29.046,23.4 15.363,37.084l-17.138,17.133c2.517,2.417 5.317,5.179 8.559,8.425l103.15,103.15c8.533,-24.154 13.229,-51.067 13.229,-79.833c-0,-107.221 -69.767,-190.205 -159.363,-190.205c-41.125,0 -67.566,11.746 -96.204,43.325c-13.958,-30.841 -27.171,-41.125 -52.146,-41.125c-32.312,0 -52.137,24.238 -52.137,63.892l-0,393.638c-0,26.437 0.729,32.312 7.342,44.795c8.079,16.159 27.175,27.171 47.004,27.171c19.091,0 38.187,-11.012 46.262,-27.171c6.613,-11.745 7.346,-18.358 7.346,-44.795l0,-104.284c31.579,24.234 52.142,31.579 85.925,31.579c33.067,0 63.258,-10.316 88.567,-28.491l-115.313,-115.313Z"></path></svg>