<svg width="171" height="32" viewBox="0 0 171 32" fill="none" xmlns="http://www.w3.org/2000/svg">
    <path fill-rule="evenodd" clip-rule="evenodd" d="M5.4271 0.221182C3.66335 0.281312 2.73841 0.366351 0.980872 0.629864L0 0.776858V12.8558V24.9348H2.7364H5.4729L5.49653 20.4866L5.52026 16.0385L6.88891 16.0181L8.25757 15.9979L8.7023 16.5656C9.75808 17.9137 11.7024 21.0171 13.3597 23.9995L13.8794 24.9348H16.9371H19.9947L19.9327 24.7295C19.8257 24.3757 18.3408 21.5691 17.5794 20.2813C16.7766 18.9238 15.127 16.4333 14.4714 15.5891C14.2405 15.2918 14.0516 15.0209 14.0516 14.9871C14.0516 14.9533 14.2257 14.8476 14.4385 14.7521C15.0253 14.489 16.1081 13.7584 16.6175 13.2819C17.2691 12.6724 17.8973 11.6839 18.1837 10.8173C18.595 9.57295 18.668 7.50217 18.3493 6.12165C17.5939 2.84928 14.8623 0.909161 10.221 0.348832C8.79427 0.176564 7.63958 0.145815 5.4271 0.221182ZM103.215 1.28947L100.634 1.71092L100.666 10.5628C100.698 19.3626 100.699 19.4198 100.904 20.3237C101.155 21.4307 101.371 21.9644 101.895 22.7655C103.111 24.6275 105.371 25.4999 108.626 25.3636C109.278 25.3362 110.141 25.2456 110.542 25.162C111.588 24.9442 112.96 24.489 112.959 24.3602C112.956 24.1345 112.258 20.4618 112.208 20.4118C112.18 20.3833 111.891 20.4419 111.566 20.5423C110.334 20.9225 108.535 21.0324 107.683 20.7793C107.129 20.6147 106.635 20.2124 106.385 19.7226C105.978 18.9259 105.937 18.4431 105.936 14.4645L105.934 10.7007H109.082H112.23V8.51087V6.32102H109.082H105.934V3.5837C105.934 2.07818 105.903 0.851221 105.866 0.857152C105.828 0.863083 104.635 1.05762 103.215 1.28947ZM9.94558 5.07518C11.4085 5.40575 12.2076 5.92374 12.6014 6.79658C12.7863 7.20636 12.8191 7.42352 12.8194 8.23714C12.8198 9.10305 12.795 9.24548 12.5633 9.71748C11.9111 11.0457 10.6672 11.4927 7.36676 11.5848L5.47235 11.6376L5.49626 8.3178L5.52026 4.99798L5.93085 4.93721C6.60925 4.83694 9.30058 4.92937 9.94558 5.07518ZM28.8635 5.99993C26.9806 6.34155 25.446 7.15207 24.1687 8.47958C22.8777 9.82123 22.0099 11.5792 21.6658 13.5507C21.4699 14.6729 21.4688 16.8615 21.6636 17.9709C22.3688 21.987 24.9083 24.526 28.9629 25.2689C31.2093 25.6804 35.5919 25.2541 37.5304 24.4355C37.8382 24.3055 37.8731 24.2594 37.8285 24.0412C37.8008 23.9054 37.654 23.0346 37.5022 22.1062C37.3504 21.1778 37.2069 20.3327 37.1833 20.2283L37.1405 20.0384L36.5225 20.2451C34.7376 20.8421 31.9739 21.0911 30.4753 20.7899C28.5582 20.4046 27.1808 19.2154 26.9537 17.7493L26.8936 17.3615H32.8683H38.8432L38.9021 16.6634C39.0868 14.4791 38.7638 12.048 38.0827 10.4962C37.0074 8.0458 34.9598 6.4807 32.2158 6.01179C31.2026 5.83861 29.7802 5.83359 28.8635 5.99993ZM71.3983 5.92931C68.2017 6.36317 65.4947 8.4449 64.3277 11.367C63.4334 13.606 63.2832 16.3333 63.9217 18.7397C64.3875 20.495 65.483 22.3034 66.7252 23.3677C69.3508 25.6172 73.5129 26.111 76.8145 24.5646C80.0289 23.059 81.7875 19.8752 81.7757 15.5823C81.7682 12.8192 81.0384 10.6508 79.5057 8.8367C78.2382 7.33647 76.2138 6.25085 74.1481 5.96353C73.4696 5.86918 71.9782 5.85057 71.3983 5.92931ZM120.761 5.92977C119.147 6.0815 116.336 6.63034 116.336 6.79366C116.336 6.91602 116.983 10.9224 117.007 10.946C117.019 10.9576 117.273 10.8912 117.572 10.7985C118.984 10.3607 121.809 10.1169 123.044 10.3265C124.655 10.6 125.413 11.42 125.528 13.0151C125.576 13.6899 125.569 13.7297 125.406 13.6801C124.521 13.4116 121.578 13.3508 120.209 13.5728C118.378 13.8697 117.005 14.4887 116.062 15.4421C115.736 15.772 115.355 16.2536 115.216 16.5124C114.203 18.3984 114.466 21.4747 115.777 23.0611C117.236 24.8272 119.664 25.4628 124.286 25.2885C126.122 25.2193 127.069 25.1054 129.274 24.6892L130.579 24.4431L130.549 17.914C130.519 11.5066 130.514 11.3715 130.317 10.6551C129.533 7.81842 127.702 6.37394 124.368 5.96061C123.643 5.87073 121.577 5.85312 120.761 5.92977ZM161.182 5.92977C159.338 6.10322 156.757 6.62888 156.757 6.83116C156.757 6.98692 157.395 10.9131 157.425 10.9433C157.439 10.9564 157.694 10.8912 157.993 10.7984C159.095 10.456 160.299 10.3038 161.958 10.2969C163.756 10.2893 164.272 10.391 164.943 10.8851C165.502 11.2965 165.896 12.1357 165.954 13.0404C165.995 13.6864 165.987 13.7287 165.826 13.6797C164.929 13.4074 161.998 13.3509 160.592 13.5789C157.619 14.0611 155.68 15.5458 155.164 17.735C154.989 18.4771 154.986 20.046 155.159 20.8594C155.631 23.0871 157.269 24.5311 159.936 25.0701C161.024 25.2901 162.678 25.3653 164.71 25.2872C166.65 25.2126 167.1 25.1599 169.422 24.735L171 24.4462L170.97 17.9613L170.94 11.4763L170.697 10.5877C170.374 9.40287 169.912 8.55093 169.21 7.8416C168.242 6.8641 166.672 6.19145 164.832 5.96599C164.066 5.8721 162.013 5.85175 161.182 5.92977ZM48.5418 6.01763C46.6879 6.2056 44.4941 6.5713 43.4093 6.87314L43.0671 6.9683V19.2363V31.5043H45.6676H48.268V28.0371C48.268 26.1301 48.2946 24.5698 48.3271 24.5698C48.3594 24.5698 48.7598 24.6894 49.2167 24.8355C50.3902 25.211 51.3754 25.335 52.6852 25.2721C53.9426 25.2117 54.6858 25.0445 55.6442 24.6065C57.2698 23.8635 58.5502 22.5615 59.3156 20.8735C60.3623 18.5649 60.6146 15.126 59.9314 12.48C59.7182 11.6547 59.1097 10.2922 58.6607 9.63518C57.393 7.77983 55.2472 6.50415 52.6986 6.09081C51.9442 5.96845 49.4584 5.92466 48.5418 6.01763ZM91.4538 6.05331C90.1385 6.18069 88.1895 6.60616 86.4764 7.14012L85.8605 7.332V16.1334V24.9348H88.5066H91.1526V17.8281V10.7213L91.7685 10.5997C92.8007 10.3959 94.5741 10.4566 95.8843 10.7408C96.5044 10.8753 97.0382 10.9592 97.0705 10.9273C97.1028 10.8954 97.3187 9.92497 97.5504 8.77074L97.9717 6.67222L97.7329 6.57988C97.3701 6.43954 95.8679 6.16298 94.8744 6.05358C93.8842 5.94455 92.5785 5.94446 91.4538 6.05331ZM140.424 6.06052C139.256 6.18151 137.486 6.48015 136.387 6.74202L135.406 6.9756V15.9552V24.9348H138.052H140.698V17.7819C140.698 11.054 140.708 10.6254 140.858 10.5672C140.946 10.5332 141.596 10.4817 142.303 10.4528C143.442 10.4063 143.66 10.4222 144.219 10.5919C145.287 10.9163 145.765 11.5806 146.032 13.1129C146.148 13.7778 146.173 14.878 146.173 19.4265V24.9348H148.819H151.465V19.3848C151.465 16.0215 151.425 13.442 151.365 12.838C150.963 8.84282 149.125 6.71729 145.541 6.1034C144.591 5.94071 141.807 5.91745 140.424 6.06052ZM31.6682 10.3843C32.8447 10.7911 33.6397 11.8925 33.8231 13.3696L33.8769 13.803H30.3969C27.0422 13.803 26.9169 13.7968 26.9169 13.6301C26.9169 13.3372 27.2861 12.2268 27.5157 11.829C27.8215 11.2994 28.5742 10.6517 29.1344 10.4364C29.7356 10.2052 31.0711 10.1777 31.6682 10.3843ZM73.4919 10.4758C74.7495 10.6763 75.738 11.7831 76.2075 13.5161C76.4769 14.5107 76.476 16.7325 76.2057 17.7396C75.8125 19.205 75.1859 20.0898 74.1962 20.577C73.6358 20.8529 73.5257 20.8744 72.6758 20.8744C71.8243 20.8744 71.7164 20.8532 71.1503 20.5745C70.1436 20.079 69.458 19.1076 69.1015 17.6718C68.8829 16.7915 68.8834 14.4625 69.1023 13.5808C69.5466 11.7905 70.6252 10.6448 72.0644 10.4346C72.5806 10.3591 72.7995 10.3654 73.4919 10.4758ZM51.6624 10.5288C53.2777 10.869 54.4318 12.2075 54.8045 14.1729C55.0262 15.342 54.9382 17.3426 54.622 18.3235C54.2549 19.4621 53.6745 20.1673 52.7693 20.5746C51.84 20.9927 49.9239 20.876 48.747 20.3296L48.268 20.1072V15.3601V10.6129L48.4733 10.5674C49.1435 10.4188 51.0312 10.3959 51.6624 10.5288ZM124.636 17.0094L125.552 17.1135V19.1449V21.1763L124.576 21.2427C122.337 21.3953 120.909 21.1483 120.295 20.5024C119.631 19.8037 119.665 18.3988 120.363 17.7282C121.073 17.0466 122.642 16.7827 124.636 17.0094ZM165.562 17.0707L165.927 17.1364L165.952 19.0902C165.965 20.1648 165.94 21.08 165.897 21.1238C165.758 21.2624 162.979 21.3227 162.287 21.2022C160.789 20.9412 160.132 20.197 160.25 18.8933C160.319 18.1323 160.61 17.7254 161.338 17.371C161.654 17.2175 162.179 17.0519 162.505 17.0034C163.111 16.9131 164.905 16.9526 165.562 17.0707Z" fill="white"/>
    <path fill-rule="evenodd" clip-rule="evenodd" d="M21.0135 11.6136C17.5869 17.998 14.5776 23.6013 14.3261 24.0656L13.8691 24.9096L16.9979 24.907L20.1268 24.9044L26.1489 13.5296C29.461 7.27351 32.4274 1.67004 32.7408 1.07741L33.3105 0L30.2772 0.00282856L27.2438 0.00565712L21.0135 11.6136Z" fill="#00E676"/>
</svg>
