<svg width="203" height="198" viewBox="0 0 203 198" fill="none" xmlns="http://www.w3.org/2000/svg">
<g clip-path="url(#clip0_630_16)">
<path d="M172.717 9.43457H36.9267C20.3367 9.43457 6.88672 22.8846 6.88672 39.4746C6.88672 56.0646 20.3367 69.5146 36.9267 69.5146H172.717C189.307 69.5146 202.757 56.0646 202.757 39.4746C202.757 22.8846 189.307 9.43457 172.717 9.43457Z" fill="white"/>
<path d="M72.4492 159.772C72.4492 177.642 86.9392 192.172 104.809 192.172C122.679 192.172 137.169 177.642 137.169 159.772C137.169 141.902 122.679 127.372 104.809 127.372C86.9392 127.372 72.4492 141.902 72.4492 159.772Z" fill="white"/>
</g>
<defs>
<clipPath id="clip0_630_16">
<rect width="202" height="197" fill="white" transform="translate(0.667969 0.833008)"/>
</clipPath>
</defs>
</svg>
