<svg width="71" height="71" viewBox="0 0 71 71" fill="none" xmlns="http://www.w3.org/2000/svg">
<g clip-path="url(#clip0_378_321)">
<path d="M70.1669 32.8976C70.1669 51.0663 55.5098 65.7949 37.4293 65.7949C19.3488 65.7949 4.69141 51.0663 4.69141 32.8976C4.69141 14.7289 19.3488 0.000283407 37.4293 0.000283407C55.5098 0.000283407 70.1669 14.7289 70.1669 32.8976Z" fill="white"/>
<path d="M0 36.8484C0 55.7104 15.2157 71.001 33.9854 71.001C43.4085 71.001 51.934 67.1456 58.0899 60.9208C52.2914 65.3766 45.0472 68.0293 37.1841 68.0293C18.1545 68.0293 2.72781 52.527 2.72781 33.4041C2.72781 26.3824 4.8137 19.8532 8.38799 14.3963C3.16907 20.4003 0 28.2501 0 36.8484Z" fill="#CDA155"/>
<path d="M21.2622 12.5302C20.2304 12.5302 19.3948 13.373 19.3984 14.4101L19.5002 41.8114C19.5002 49.6733 25.8428 56.0469 33.6665 56.0469H41.4596C49.2833 56.0469 55.6259 49.6733 55.6259 41.8114L55.6575 38.8934C55.6536 38.4362 56.1471 38.15 56.5389 38.382L59.1698 39.9391C59.5593 40.1697 60.0509 39.8875 60.0509 39.4328V33.9447C60.0509 33.7523 59.9573 33.572 59.7997 33.4619L52.1319 28.1137C51.9315 27.9738 51.6654 27.9738 51.4651 28.1137L43.7975 33.4619C43.6399 33.572 43.546 33.7523 43.546 33.9447V39.4328C43.546 39.8875 44.0376 40.1697 44.4274 39.9391L47.046 38.3893C47.4355 38.1584 47.9274 38.4409 47.9274 38.8953V41.8111C47.9274 45.4006 45.0316 48.3105 41.4596 48.3105H33.6665C30.1001 48.3105 27.199 45.395 27.199 41.8111L27.0973 14.396C27.0934 13.3643 26.26 12.5302 25.2336 12.5302H21.2622Z" fill="#1E1E1E"/>
</g>
<defs>
<clipPath id="clip0_378_321">
<rect width="71" height="71.0007" fill="white"/>
</clipPath>
</defs>
</svg>
