<svg width="208" height="71" viewBox="0 0 208 71" fill="none" xmlns="http://www.w3.org/2000/svg">
<g clip-path="url(#clip0_377_241)">
<mask id="mask0_377_241" style="mask-type:luminance" maskUnits="userSpaceOnUse" x="-16" y="-11" width="236" height="94">
<path d="M-15.5254 -10.6422H219.749V82.2114H-15.5254V-10.6422Z" fill="white"/>
</mask>
<g mask="url(#mask0_377_241)">
<path d="M89.7956 44.0192C86.9199 44.0192 84.5803 41.6687 84.5803 38.7785V12.0166C84.5803 11.0514 83.802 10.2699 82.8423 10.2699C81.8818 10.2699 81.1035 11.0514 81.1035 12.0166V38.7785C81.1035 43.5952 85.0028 47.5129 89.7956 47.5129C90.7555 47.5129 91.5338 46.7308 91.5338 45.7659C91.5338 44.8007 90.7555 44.0192 89.7956 44.0192Z" fill="white"/>
<path d="M113.186 17.8165C112.226 17.8165 111.448 18.5986 111.448 19.5635V38.7785C111.448 41.6685 109.109 44.0193 106.233 44.0193H104.495C101.619 44.0193 99.2795 41.6685 99.2795 38.7785V19.5635C99.2795 18.5986 98.5012 17.8165 97.5413 17.8165C96.581 17.8165 95.8027 18.5986 95.8027 19.5635V38.7785C95.8027 43.5949 99.702 47.5127 104.495 47.5127H106.233C111.026 47.5127 114.925 43.5949 114.925 38.7785V19.5635C114.925 18.5986 114.146 17.8165 113.186 17.8165Z" fill="white"/>
<path d="M127.881 21.3102H129.62C132.495 21.3102 134.835 23.6612 134.835 26.5509C134.835 27.5158 135.613 28.2976 136.573 28.2976C137.533 28.2976 138.311 27.5158 138.311 26.5509C138.311 21.7342 134.412 17.8164 129.62 17.8164H127.881C123.089 17.8164 119.189 21.7342 119.189 26.5509V38.7785C119.189 43.5952 123.089 47.5129 127.881 47.5129H129.62C134.412 47.5129 138.311 43.5952 138.311 38.7785C138.311 37.8136 137.533 37.0318 136.573 37.0318C135.613 37.0318 134.835 37.8136 134.835 38.7785C134.835 41.6687 132.495 44.0192 129.62 44.0192H127.881C125.006 44.0192 122.666 41.6687 122.666 38.7785V26.5509C122.666 23.6612 125.006 21.3102 127.881 21.3102Z" fill="white"/>
<path d="M153.004 17.8165H151.266C146.473 17.8165 142.574 21.7342 142.574 26.5509V45.7657C142.574 46.7306 143.353 47.5127 144.313 47.5127C145.273 47.5127 146.051 46.7306 146.051 45.7657V26.5509C146.051 23.6613 148.39 21.3102 151.266 21.3102H153.004C155.88 21.3102 158.219 23.6613 158.219 26.5509C158.219 27.5158 158.998 28.2974 159.958 28.2974C160.917 28.2974 161.696 27.5158 161.696 26.5509C161.696 21.7342 157.797 17.8165 153.004 17.8165Z" fill="white"/>
<path d="M169.436 26.5509C169.436 23.6612 171.775 21.3102 174.651 21.3102H176.389C179.265 21.3102 181.604 23.6612 181.604 26.5509C181.604 28.2999 181.604 30.2822 181.298 30.5215C180.791 30.918 178.348 30.918 175.52 30.918H169.436V26.5509ZM183.342 37.0318C182.383 37.0318 181.604 37.8136 181.604 38.7785C181.604 41.6687 179.265 44.0192 176.389 44.0192H174.651C171.775 44.0192 169.436 41.6687 169.436 38.7785V34.4114H175.52C184.001 34.4114 185.081 33.9742 185.081 26.5509C185.081 21.7342 181.182 17.8164 176.389 17.8164H174.651C169.858 17.8164 165.959 21.7342 165.959 26.5509V38.7785C165.959 43.5952 169.858 47.5129 174.651 47.5129H176.389C181.182 47.5129 185.081 43.5952 185.081 38.7785C185.081 37.8136 184.302 37.0318 183.342 37.0318Z" fill="white"/>
<path d="M82.5532 56.0894L85.1977 56.1124C86.1467 56.1124 87.2087 55.3393 87.2087 54.2309C87.2087 53.148 86.3611 52.3628 85.1932 52.3628H82.5532V56.0894ZM85.1932 57.0877L82.5532 57.0652V61.2981C82.5532 61.5677 82.3355 61.7861 82.0675 61.7861C81.7995 61.7861 81.582 61.5677 81.582 61.2981V51.875C81.582 51.6054 81.7995 51.387 82.0675 51.387H85.1932C86.8957 51.387 88.1792 52.6094 88.1792 54.2309C88.1792 55.7526 86.7839 57.0877 85.1932 57.0877Z" fill="#C1C1C1"/>
<path d="M93.1056 54.3876V57.1523H97.7611V54.3876C97.7611 53.2707 96.8571 52.3625 95.7457 52.3625H95.1208C94.0094 52.3625 93.1056 53.2707 93.1056 54.3876ZM92.6199 61.7861C92.3519 61.7861 92.1348 61.5677 92.1348 61.2978V54.3876C92.1348 52.7332 93.4745 51.387 95.1208 51.387H95.7457C97.3925 51.387 98.7317 52.7332 98.7317 54.3876V61.2978C98.7317 61.5677 98.5146 61.7861 98.2465 61.7861C97.9785 61.7861 97.7611 61.5677 97.7611 61.2978V58.1278H93.1056V61.2978C93.1056 61.5677 92.8879 61.7861 92.6199 61.7861Z" fill="#C1C1C1"/>
<path d="M105.675 61.7861C104.029 61.7861 102.689 60.4399 102.689 58.785V54.3876C102.689 52.7335 104.029 51.387 105.675 51.387H106.301C107.947 51.387 109.287 52.7335 109.287 54.3876C109.287 54.6574 109.069 54.8759 108.801 54.8759C108.534 54.8759 108.316 54.6574 108.316 54.3876C108.316 53.271 107.412 52.3628 106.301 52.3628H105.675C104.564 52.3628 103.66 53.271 103.66 54.3876V58.785C103.66 59.9024 104.564 60.8103 105.675 60.8103H106.301C107.412 60.8103 108.316 59.9024 108.316 58.785V57.0745H105.988C105.72 57.0745 105.502 56.856 105.502 56.587C105.502 56.3171 105.72 56.0986 105.988 56.0986H108.801C109.069 56.0986 109.287 56.3171 109.287 56.587V58.785C109.287 60.4399 107.947 61.7861 106.301 61.7861H105.675Z" fill="#C1C1C1"/>
<path d="M114.215 54.3876V57.1523H118.871V54.3876C118.871 53.2707 117.967 52.3625 116.855 52.3625H116.23C115.119 52.3625 114.215 53.2707 114.215 54.3876ZM113.73 61.7861C113.462 61.7861 113.244 61.5677 113.244 61.2978V54.3876C113.244 52.7332 114.584 51.387 116.23 51.387H116.855C118.502 51.387 119.841 52.7332 119.841 54.3876V61.2978C119.841 61.5677 119.624 61.7861 119.356 61.7861C119.088 61.7861 118.871 61.5677 118.871 61.2978V58.1278H114.215V61.2978C114.215 61.5677 113.997 61.7861 113.73 61.7861Z" fill="#C1C1C1"/>
<path d="M132.237 61.2981V53.4698L128.905 58.4317C128.814 58.5662 128.663 58.6465 128.502 58.6465C128.341 58.6465 128.19 58.5662 128.1 58.4317L124.767 53.4698V61.2981C124.767 61.5679 124.55 61.7861 124.282 61.7861C124.014 61.7861 123.797 61.5679 123.797 61.2981V51.8753C123.797 51.6602 123.936 51.4712 124.14 51.4086C124.344 51.3465 124.565 51.4243 124.684 51.6021L128.502 57.2871L132.319 51.6021C132.439 51.4243 132.66 51.3465 132.864 51.4086C133.068 51.4712 133.208 51.6602 133.208 51.8753V61.2981C133.208 61.5679 132.99 61.7861 132.722 61.7861C132.454 61.7861 132.237 61.5679 132.237 61.2981Z" fill="#C1C1C1"/>
<path d="M138.143 52.3628V56.0989H141.135C141.403 56.0989 141.621 56.3171 141.621 56.587C141.621 56.8563 141.403 57.0745 141.135 57.0745H138.143V60.8106H142.268C142.536 60.8106 142.754 61.0288 142.754 61.2981C142.754 61.5679 142.536 61.7861 142.268 61.7861H137.657C137.389 61.7861 137.172 61.5679 137.172 61.2981V51.8753C137.172 51.6054 137.389 51.387 137.657 51.387H142.268C142.536 51.387 142.754 51.6054 142.754 51.8753C142.754 52.1443 142.536 52.3628 142.268 52.3628H138.143Z" fill="#C1C1C1"/>
<path d="M152.407 61.5491L147.682 53.6355V61.2981C147.682 61.5677 147.464 61.7861 147.196 61.7861C146.928 61.7861 146.711 61.5677 146.711 61.2981V51.875C146.711 51.6557 146.857 51.4634 147.067 51.4047C147.278 51.3468 147.5 51.4364 147.612 51.624L152.338 59.5376V51.875C152.338 51.6054 152.555 51.387 152.823 51.387C153.091 51.387 153.308 51.6054 153.308 51.875V61.2981C153.308 61.5174 153.163 61.7097 152.953 61.7684C152.91 61.7802 152.866 61.7861 152.823 61.7861C152.655 61.7861 152.496 61.6985 152.407 61.5491Z" fill="#C1C1C1"/>
<path d="M161.05 52.3628V61.2981C161.05 61.5679 160.832 61.7861 160.565 61.7861C160.296 61.7861 160.079 61.5679 160.079 61.2981V52.3628H157.751C157.483 52.3628 157.266 52.1443 157.266 51.8753C157.266 51.6054 157.483 51.387 157.751 51.387H163.378C163.646 51.387 163.863 51.6054 163.863 51.8753C163.863 52.1443 163.646 52.3628 163.378 52.3628H161.05Z" fill="#C1C1C1"/>
<path d="M168.789 58.785C168.789 59.9021 169.693 60.8103 170.804 60.8103H171.43C172.541 60.8103 173.445 59.9021 173.445 58.785V54.3876C173.445 53.271 172.541 52.3628 171.43 52.3628H170.804C169.693 52.3628 168.789 53.271 168.789 54.3876V58.785ZM170.804 51.387H171.43C173.076 51.387 174.416 52.7332 174.416 54.3876V58.785C174.416 60.4399 173.076 61.7861 171.43 61.7861H170.804C169.158 61.7861 167.818 60.4399 167.818 58.785V54.3876C167.818 52.7332 169.158 51.387 170.804 51.387Z" fill="#C1C1C1"/>
<path d="M178.373 54.3876C178.373 52.7332 179.713 51.387 181.359 51.387H181.984C183.631 51.387 184.97 52.7332 184.97 54.3876C184.97 54.6574 184.753 54.8756 184.485 54.8756C184.217 54.8756 184 54.6574 184 54.3876C184 53.2707 183.095 52.3625 181.984 52.3625H181.359C180.248 52.3625 179.344 53.2707 179.344 54.3876C179.344 55.5982 180.225 55.8293 181.783 56.134C183.204 56.4115 184.97 56.7566 184.97 58.785C184.97 60.4396 183.631 61.7861 181.984 61.7861H181.359C179.713 61.7861 178.373 60.4396 178.373 58.785C178.373 58.5157 178.59 58.2972 178.858 58.2972C179.126 58.2972 179.344 58.5157 179.344 58.785C179.344 59.9021 180.248 60.8103 181.359 60.8103H181.984C183.095 60.8103 184 59.9021 184 58.785C184 57.6179 183.132 57.391 181.598 57.0916C180.162 56.8111 178.373 56.4614 178.373 54.3876Z" fill="#C1C1C1"/>
<path d="M190.644 18.1211H196.971V11.7635C196.971 10.8932 197.673 10.1881 198.538 10.1881C199.404 10.1881 200.106 10.8932 200.106 11.7635V18.1211H206.432C207.298 18.1211 208 18.8262 208 19.6965C208 20.5665 207.298 21.2713 206.432 21.2713H200.106V27.6295C200.106 28.4994 199.404 29.2046 198.538 29.2046C197.673 29.2046 196.971 28.4994 196.971 27.6295V21.2713H190.644C189.778 21.2713 189.076 20.5665 189.076 19.6965C189.076 18.8262 189.778 18.1211 190.644 18.1211Z" fill="#CDA155"/>
<path d="M70.1669 32.8974C70.1669 51.0661 55.5098 65.7947 37.4293 65.7947C19.3488 65.7947 4.69141 51.0661 4.69141 32.8974C4.69141 14.7287 19.3488 3.92659e-05 37.4293 3.92659e-05C55.5098 3.92659e-05 70.1669 14.7287 70.1669 32.8974Z" fill="white"/>
</g>
<path d="M0 36.8474C0 55.7095 15.2157 71 33.9854 71C43.4085 71 51.934 67.1446 58.0899 60.9199C52.2914 65.3757 45.0472 68.0283 37.1841 68.0283C18.1545 68.0283 2.72781 52.526 2.72781 33.4031C2.72781 26.3814 4.8137 19.8523 8.38799 14.3953C3.16907 20.3993 0 28.2492 0 36.8474Z" fill="#CDA155"/>
<path d="M21.2622 12.5297C20.2304 12.5297 19.3948 13.3725 19.3984 14.4096L19.5002 41.8109C19.5002 49.6728 25.8428 56.0464 33.6665 56.0464H41.4596C49.2833 56.0464 55.6259 49.6728 55.6259 41.8109L55.6575 38.8929C55.6536 38.4357 56.1471 38.1495 56.5389 38.3815L59.1698 39.9386C59.5593 40.1692 60.0509 39.887 60.0509 39.4323V33.9442C60.0509 33.7518 59.9573 33.5715 59.7997 33.4615L52.1319 28.1132C51.9315 27.9733 51.6654 27.9733 51.4651 28.1132L43.7975 33.4615C43.6399 33.5715 43.546 33.7518 43.546 33.9442V39.4323C43.546 39.887 44.0376 40.1692 44.4274 39.9386L47.046 38.3888C47.4355 38.1579 47.9274 38.4405 47.9274 38.8948V41.8106C47.9274 45.4001 45.0316 48.31 41.4596 48.31H33.6665C30.1001 48.31 27.199 45.3945 27.199 41.8106L27.0973 14.3955C27.0934 13.3638 26.26 12.5297 25.2336 12.5297H21.2622Z" fill="#1E1E1E"/>
</g>
<defs>
<clipPath id="clip0_377_241">
<rect width="208" height="71" fill="white"/>
</clipPath>
</defs>
</svg>
