<?xml version="1.0" encoding="UTF-8" standalone="no"?>
<!-- Created with Inkscape (http://www.inkscape.org/) -->

<svg
   version="1.1"
   id="svg2"
   xml:space="preserve"
   width="334.77493"
   height="337.10385"
   viewBox="0 0 334.77493 337.10385"
   sodipodi:docname="959151f8a0dae2043e5b1ab428943ce9-4.pdf"
   xmlns:inkscape="http://www.inkscape.org/namespaces/inkscape"
   xmlns:sodipodi="http://sodipodi.sourceforge.net/DTD/sodipodi-0.dtd"
   xmlns="http://www.w3.org/2000/svg"
   xmlns:svg="http://www.w3.org/2000/svg"><defs
     id="defs6"><clipPath
       clipPathUnits="userSpaceOnUse"
       id="clipPath16"><path
         d="M 0,330.648 H 331.597 V 0 H 0 Z"
         id="path14" /></clipPath><linearGradient
       x1="0"
       y1="0"
       x2="1"
       y2="0"
       gradientUnits="userSpaceOnUse"
       gradientTransform="matrix(207.86554,0,0,-207.86554,43.525635,137.79317)"
       spreadMethod="pad"
       id="linearGradient42"><stop
         style="stop-opacity:1;stop-color:#b37f2b"
         offset="0"
         id="stop34" /><stop
         style="stop-opacity:1;stop-color:#f8df7d"
         offset="0.30049741"
         id="stop36" /><stop
         style="stop-opacity:1;stop-color:#f8df7d"
         offset="0.328041"
         id="stop38" /><stop
         style="stop-opacity:1;stop-color:#d8a732"
         offset="1"
         id="stop40" /></linearGradient><linearGradient
       x1="0"
       y1="0"
       x2="1"
       y2="0"
       gradientUnits="userSpaceOnUse"
       gradientTransform="matrix(148.71556,-85.86097,-85.86097,-148.71556,89.024162,198.90784)"
       spreadMethod="pad"
       id="linearGradient70"><stop
         style="stop-opacity:1;stop-color:#7e7e7e"
         offset="0"
         id="stop58" /><stop
         style="stop-opacity:1;stop-color:#7e7e7e"
         offset="0.0925238"
         id="stop60" /><stop
         style="stop-opacity:1;stop-color:#ffffff"
         offset="0.5350919"
         id="stop62" /><stop
         style="stop-opacity:1;stop-color:#ffffff"
         offset="0.564474"
         id="stop64" /><stop
         style="stop-opacity:1;stop-color:#ffffff"
         offset="0.70176806"
         id="stop66" /><stop
         style="stop-opacity:1;stop-color:#515252"
         offset="1"
         id="stop68" /></linearGradient></defs><sodipodi:namedview
     id="namedview4"
     pagecolor="#ffffff"
     bordercolor="#666666"
     borderopacity="1.0"
     inkscape:pageshadow="2"
     inkscape:pageopacity="0.0"
     inkscape:pagecheckerboard="0" /><g
     id="g8"
     inkscape:groupmode="layer"
     inkscape:label="959151f8a0dae2043e5b1ab428943ce9-4"
     transform="matrix(1.3333333,0,0,-1.3333333,-58.034665,386.45052)"><g
       id="g10"><g
         id="g12"
         clip-path="url(#clipPath16)"><g
           id="g18"
           transform="translate(294.6072,172.6919)"><path
             d="m 0,0 c 0,-64.698 -52.448,-117.146 -117.146,-117.146 -64.698,0 -117.147,52.448 -117.147,117.146 0,64.698 52.449,117.146 117.147,117.146 C -52.448,117.146 0,64.698 0,0"
             style="fill:#231f20;fill-opacity:1;fill-rule:nonzero;stroke:none"
             id="path20" /></g></g></g><g
       id="g22"><g
         id="g24"><g
           id="g30"><g
             id="g32"><path
               d="M 43.526,158.626 C 43.526,91.459 97.973,37.01 165.137,37.01 v 0 c 33.719,0 64.226,13.728 86.255,35.895 v 0 C 230.641,57.038 204.72,47.592 176.582,47.592 v 0 c -68.094,0 -123.295,55.202 -123.295,123.299 v 0 c 0,25.004 7.464,48.254 20.254,67.686 v 0 C 54.865,217.197 43.526,189.244 43.526,158.626"
               style="fill:url(#linearGradient42);stroke:none"
               id="path44" /></g></g></g></g><g
       id="g46"><g
         id="g48"><g
           id="g54"><g
             id="g56"><path
               d="m 119.615,245.22 c -3.693,0 -6.683,-3 -6.669,-6.693 v 0 l 0.363,-97.575 c 0,-27.997 22.695,-50.692 50.692,-50.692 v 0 h 27.886 c 27.996,0 50.692,22.695 50.692,50.692 v 0 l 0.113,10.391 c -0.014,1.627 1.753,2.647 3.154,1.821 v 0 l 9.414,-5.545 c 1.394,-0.822 3.153,0.184 3.153,1.803 v 0 19.542 c 0,0.686 -0.335,1.328 -0.899,1.719 v 0 l -27.438,19.046 c -0.717,0.498 -1.669,0.498 -2.386,0 v 0 l -27.438,-19.046 c -0.563,-0.391 -0.899,-1.033 -0.899,-1.719 v 0 -19.542 c 0,-1.619 1.759,-2.625 3.154,-1.803 v 0 l 9.369,5.519 c 1.395,0.821 3.154,-0.184 3.154,-1.802 v 0 -10.383 c 0,-12.782 -10.362,-23.144 -23.144,-23.144 v 0 h -27.884 c -12.762,0 -23.145,10.382 -23.145,23.144 v 0 l -0.363,97.624 c -0.014,3.673 -2.996,6.643 -6.668,6.643 v 0 z"
               style="fill:url(#linearGradient70);stroke:none"
               id="path72" /></g></g></g></g></g></svg>
