<?xml version="1.0" encoding="UTF-8" standalone="no"?>
<!-- Created with Inkscape (http://www.inkscape.org/) -->

<svg
   version="1.1"
   id="svg2"
   xml:space="preserve"
   width="992.39093"
   height="337.10413"
   viewBox="0 0 992.39091 337.10412"
   sodipodi:docname="959151f8a0dae2043e5b1ab428943ce9-1.pdf"
   xmlns:inkscape="http://www.inkscape.org/namespaces/inkscape"
   xmlns:sodipodi="http://sodipodi.sourceforge.net/DTD/sodipodi-0.dtd"
   xmlns="http://www.w3.org/2000/svg"
   xmlns:svg="http://www.w3.org/2000/svg"><defs
     id="defs6"><clipPath
       clipPathUnits="userSpaceOnUse"
       id="clipPath16"><path
         d="M 0,330.648 H 841.89 V 0 H 0 Z"
         id="path14" /></clipPath><linearGradient
       x1="0"
       y1="0"
       x2="1"
       y2="0"
       gradientUnits="userSpaceOnUse"
       gradientTransform="matrix(207.86554,0,0,-207.86554,55.551674,140.70642)"
       spreadMethod="pad"
       id="linearGradient106"><stop
         style="stop-opacity:1;stop-color:#b37f2b"
         offset="0"
         id="stop98" /><stop
         style="stop-opacity:1;stop-color:#f8df7d"
         offset="0.30049741"
         id="stop100" /><stop
         style="stop-opacity:1;stop-color:#f8df7d"
         offset="0.328041"
         id="stop102" /><stop
         style="stop-opacity:1;stop-color:#d8a732"
         offset="1"
         id="stop104" /></linearGradient><linearGradient
       x1="0"
       y1="0"
       x2="1"
       y2="0"
       gradientUnits="userSpaceOnUse"
       gradientTransform="matrix(148.71556,-85.86097,-85.86097,-148.71556,101.05021,201.82109)"
       spreadMethod="pad"
       id="linearGradient134"><stop
         style="stop-opacity:1;stop-color:#7e7e7e"
         offset="0"
         id="stop122" /><stop
         style="stop-opacity:1;stop-color:#7e7e7e"
         offset="0.0925238"
         id="stop124" /><stop
         style="stop-opacity:1;stop-color:#ffffff"
         offset="0.5350919"
         id="stop126" /><stop
         style="stop-opacity:1;stop-color:#ffffff"
         offset="0.564474"
         id="stop128" /><stop
         style="stop-opacity:1;stop-color:#ffffff"
         offset="0.70176806"
         id="stop130" /><stop
         style="stop-opacity:1;stop-color:#515252"
         offset="1"
         id="stop132" /></linearGradient></defs><sodipodi:namedview
     id="namedview4"
     pagecolor="#ffffff"
     bordercolor="#666666"
     borderopacity="1.0"
     inkscape:pageshadow="2"
     inkscape:pageopacity="0.0"
     inkscape:pagecheckerboard="0" /><g
     id="g8"
     inkscape:groupmode="layer"
     inkscape:label="959151f8a0dae2043e5b1ab428943ce9-1"
     transform="matrix(1.3333333,0,0,-1.3333333,-74.069331,390.33479)"><g
       id="g10"><g
         id="g12"
         clip-path="url(#clipPath16)"><g
           id="g18"
           transform="translate(376.8702,136.0005)"><path
             d="m 0,0 c -10.29,0 -18.662,8.37 -18.662,18.662 v 95.298 c 0,3.437 -2.785,6.22 -6.219,6.22 -3.437,0 -6.222,-2.783 -6.222,-6.22 V 18.662 c 0,-17.152 13.953,-31.103 31.103,-31.103 3.435,0 6.22,2.785 6.22,6.221 C 6.22,-2.783 3.435,0 0,0"
             style="fill:#231f20;fill-opacity:1;fill-rule:nonzero;stroke:none"
             id="path20" /></g><g
           id="g22"
           transform="translate(460.5742,229.3071)"><path
             d="m 0,0 c -3.435,0 -6.22,-2.785 -6.22,-6.221 v -68.424 c 0,-10.291 -8.371,-18.662 -18.662,-18.662 h -6.219 c -10.29,0 -18.662,8.371 -18.662,18.662 v 68.424 c 0,3.436 -2.785,6.221 -6.22,6.221 -3.436,0 -6.221,-2.785 -6.221,-6.221 v -68.424 c 0,-17.151 13.953,-31.102 31.103,-31.102 h 6.219 c 17.151,0 31.103,13.951 31.103,31.102 V -6.221 C 6.221,-2.785 3.435,0 0,0"
             style="fill:#231f20;fill-opacity:1;fill-rule:nonzero;stroke:none"
             id="path24" /></g><g
           id="g26"
           transform="translate(513.1535,216.8663)"><path
             d="m 0,0 h 6.22 c 10.29,0 18.662,-8.372 18.662,-18.662 0,-3.436 2.784,-6.22 6.219,-6.22 3.435,0 6.221,2.784 6.221,6.22 0,17.152 -13.952,31.103 -31.102,31.103 H 0 c -17.15,0 -31.103,-13.951 -31.103,-31.103 v -43.542 c 0,-17.152 13.953,-31.103 31.103,-31.103 h 6.22 c 17.15,0 31.102,13.951 31.102,31.103 0,3.436 -2.786,6.22 -6.221,6.22 -3.435,0 -6.219,-2.784 -6.219,-6.22 0,-10.292 -8.372,-18.662 -18.662,-18.662 H 0 c -10.29,0 -18.662,8.37 -18.662,18.662 v 43.542 C -18.662,-8.372 -10.29,0 0,0"
             style="fill:#231f20;fill-opacity:1;fill-rule:nonzero;stroke:none"
             id="path28" /></g><g
           id="g30"
           transform="translate(603.0521,229.3071)"><path
             d="m 0,0 h -6.22 c -17.15,0 -31.102,-13.951 -31.102,-31.103 v -68.423 c 0,-3.436 2.785,-6.221 6.221,-6.221 3.435,0 6.219,2.785 6.219,6.221 v 68.423 c 0,10.29 8.372,18.662 18.662,18.662 H 0 c 10.29,0 18.662,-8.372 18.662,-18.662 0,-3.436 2.785,-6.219 6.22,-6.219 3.434,0 6.221,2.783 6.221,6.219 C 31.103,-13.951 17.15,0 0,0"
             style="fill:#231f20;fill-opacity:1;fill-rule:nonzero;stroke:none"
             id="path32" /></g><g
           id="g34"
           transform="translate(661.8493,198.2044)"><path
             d="m 0,0 c 0,10.29 8.372,18.662 18.662,18.662 h 6.22 c 10.29,0 18.661,-8.372 18.661,-18.662 0,-6.228 0,-13.287 -1.097,-14.139 -1.814,-1.412 -10.554,-1.412 -20.674,-1.412 H 0 Z m 49.763,-37.322 c -3.435,0 -6.22,-2.784 -6.22,-6.22 0,-10.292 -8.371,-18.662 -18.661,-18.662 h -6.22 C 8.372,-62.204 0,-53.834 0,-43.542 v 15.551 h 21.772 c 30.346,0 34.212,1.557 34.212,27.991 0,17.152 -13.952,31.103 -31.102,31.103 h -6.22 C 1.512,31.103 -12.441,17.152 -12.441,0 v -43.542 c 0,-17.152 13.953,-31.103 31.103,-31.103 h 6.22 c 17.15,0 31.102,13.951 31.102,31.103 0,3.436 -2.786,6.22 -6.221,6.22"
             style="fill:#231f20;fill-opacity:1;fill-rule:nonzero;stroke:none"
             id="path36" /></g><g
           id="g38"
           transform="translate(350.9546,93.0192)"><path
             d="m 0,0 9.463,-0.082 c 3.396,0 7.196,2.753 7.196,6.7 0,3.856 -3.033,6.652 -7.212,6.652 H 0 Z M 9.447,-3.555 0,-3.475 v -15.073 c 0,-0.96 -0.779,-1.738 -1.738,-1.738 -0.959,0 -1.737,0.778 -1.737,1.738 v 33.555 c 0,0.96 0.778,1.738 1.737,1.738 H 9.447 c 6.092,0 10.685,-4.353 10.685,-10.127 0,-5.419 -4.993,-10.173 -10.685,-10.173"
             style="fill:#6d6f71;fill-opacity:1;fill-rule:nonzero;stroke:none"
             id="path40" /></g><g
           id="g42"
           transform="translate(388.7191,99.0791)"><path
             d="M 0,0 V -9.845 H 16.659 V 0 c 0,3.977 -3.235,7.211 -7.212,7.211 H 7.211 C 3.234,7.211 0,3.977 0,0 m -1.738,-26.346 c -0.959,0 -1.736,0.778 -1.736,1.739 V 0 c 0,5.891 4.794,10.685 10.685,10.685 H 9.447 C 15.34,10.685 20.132,5.891 20.132,0 v -24.607 c 0,-0.961 -0.777,-1.739 -1.736,-1.739 -0.959,0 -1.737,0.778 -1.737,1.739 v 11.288 H 0 v -11.288 c 0,-0.961 -0.779,-1.739 -1.738,-1.739"
             style="fill:#6d6f71;fill-opacity:1;fill-rule:nonzero;stroke:none"
             id="path44" /></g><g
           id="g46"
           transform="translate(433.6959,72.7335)"><path
             d="m 0,0 c -5.893,0 -10.685,4.794 -10.685,10.687 v 15.659 c 0,5.89 4.792,10.685 10.685,10.685 h 2.237 c 5.892,0 10.685,-4.795 10.685,-10.685 0,-0.961 -0.778,-1.739 -1.737,-1.739 -0.958,0 -1.736,0.778 -1.736,1.739 0,3.976 -3.236,7.21 -7.212,7.21 H 0 c -3.977,0 -7.212,-3.234 -7.212,-7.21 V 10.687 C -7.212,6.708 -3.977,3.475 0,3.475 h 2.237 c 3.976,0 7.212,3.233 7.212,7.212 v 6.091 h -8.33 c -0.96,0 -1.738,0.778 -1.738,1.736 0,0.961 0.778,1.739 1.738,1.739 h 10.066 c 0.959,0 1.737,-0.778 1.737,-1.739 V 10.687 C 12.922,4.794 8.129,0 2.237,0 Z"
             style="fill:#6d6f71;fill-opacity:1;fill-rule:nonzero;stroke:none"
             id="path48" /></g><g
           id="g50"
           transform="translate(464.2482,99.0791)"><path
             d="M 0,0 V -9.845 H 16.661 V 0 c 0,3.977 -3.235,7.211 -7.212,7.211 H 7.212 C 3.236,7.211 0,3.977 0,0 m -1.736,-26.346 c -0.959,0 -1.737,0.778 -1.737,1.739 V 0 c 0,5.891 4.794,10.685 10.685,10.685 H 9.449 C 15.342,10.685 20.134,5.891 20.134,0 v -24.607 c 0,-0.961 -0.778,-1.739 -1.736,-1.739 -0.959,0 -1.737,0.778 -1.737,1.739 v 11.288 H 0 v -11.288 c 0,-0.961 -0.778,-1.739 -1.736,-1.739"
             style="fill:#6d6f71;fill-opacity:1;fill-rule:nonzero;stroke:none"
             id="path52" /></g><g
           id="g54"
           transform="translate(528.7401,74.4716)"><path
             d="M 0,0 V 27.876 L -11.923,10.207 c -0.324,-0.479 -0.863,-0.765 -1.44,-0.765 -0.577,0 -1.117,0.286 -1.44,0.765 L -26.727,27.876 V 0 c 0,-0.961 -0.778,-1.738 -1.737,-1.738 -0.959,0 -1.736,0.777 -1.736,1.738 v 33.554 c 0,0.766 0.498,1.439 1.229,1.662 0.73,0.221 1.52,-0.056 1.947,-0.689 L -13.363,14.283 0.296,34.527 c 0.429,0.633 1.219,0.91 1.949,0.689 0.729,-0.223 1.23,-0.896 1.23,-1.662 V 0 c 0,-0.961 -0.78,-1.738 -1.739,-1.738 C 0.778,-1.738 0,-0.961 0,0"
             style="fill:#6d6f71;fill-opacity:1;fill-rule:nonzero;stroke:none"
             id="path56" /></g><g
           id="g58"
           transform="translate(549.8748,106.2896)"><path
             d="m 0,0 v -13.304 h 10.709 c 0.959,0 1.737,-0.777 1.737,-1.738 0,-0.959 -0.778,-1.736 -1.737,-1.736 H 0 v -13.304 h 14.763 c 0.959,0 1.736,-0.777 1.736,-1.736 0,-0.961 -0.777,-1.738 -1.736,-1.738 H -1.738 c -0.959,0 -1.736,0.777 -1.736,1.738 V 1.736 c 0,0.961 0.777,1.739 1.736,1.739 h 16.501 c 0.959,0 1.736,-0.778 1.736,-1.739 C 16.499,0.778 15.722,0 14.763,0 Z"
             style="fill:#6d6f71;fill-opacity:1;fill-rule:nonzero;stroke:none"
             id="path60" /></g><g
           id="g62"
           transform="translate(600.9167,73.5773)"><path
             d="M 0,0 -16.907,28.18 V 0.894 c 0,-0.96 -0.779,-1.738 -1.738,-1.738 -0.959,0 -1.737,0.778 -1.737,1.738 v 33.555 c 0,0.781 0.522,1.466 1.273,1.675 0.755,0.206 1.552,-0.113 1.953,-0.781 L -0.248,7.163 v 27.286 c 0,0.96 0.778,1.738 1.737,1.738 0.959,0 1.736,-0.778 1.736,-1.738 V 0.894 C 3.225,0.113 2.704,-0.572 1.953,-0.781 1.799,-0.823 1.642,-0.844 1.489,-0.844 0.889,-0.844 0.319,-0.532 0,0"
             style="fill:#6d6f71;fill-opacity:1;fill-rule:nonzero;stroke:none"
             id="path64" /></g><g
           id="g66"
           transform="translate(631.842,106.2896)"><path
             d="m 0,0 v -31.818 c 0,-0.961 -0.778,-1.738 -1.736,-1.738 -0.961,0 -1.738,0.777 -1.738,1.738 V 0 h -8.33 c -0.959,0 -1.737,0.778 -1.737,1.736 0,0.961 0.778,1.739 1.737,1.739 H 8.33 c 0.959,0 1.736,-0.778 1.736,-1.739 C 10.066,0.778 9.289,0 8.33,0 Z"
             style="fill:#6d6f71;fill-opacity:1;fill-rule:nonzero;stroke:none"
             id="path68" /></g><g
           id="g70"
           transform="translate(659.5388,83.4203)"><path
             d="m 0,0 c 0,-3.978 3.236,-7.212 7.212,-7.212 h 2.237 c 3.977,0 7.212,3.234 7.212,7.212 v 15.659 c 0,3.976 -3.235,7.21 -7.212,7.21 H 7.212 C 3.236,22.869 0,19.635 0,15.659 Z m 7.212,26.344 h 2.237 c 5.892,0 10.685,-4.794 10.685,-10.685 V 0 c 0,-5.893 -4.793,-10.687 -10.685,-10.687 H 7.212 C 1.32,-10.687 -3.473,-5.893 -3.473,0 v 15.659 c 0,5.891 4.793,10.685 10.685,10.685"
             style="fill:#6d6f71;fill-opacity:1;fill-rule:nonzero;stroke:none"
             id="path72" /></g><g
           id="g74"
           transform="translate(693.8305,99.0791)"><path
             d="m 0,0 c 0,5.891 4.794,10.685 10.685,10.685 h 2.237 c 5.892,0 10.685,-4.794 10.685,-10.685 0,-0.961 -0.778,-1.738 -1.737,-1.738 -0.958,0 -1.736,0.777 -1.736,1.738 0,3.977 -3.236,7.211 -7.212,7.211 H 10.685 C 6.708,7.211 3.473,3.977 3.473,0 c 0,-4.311 3.155,-5.134 8.73,-6.219 5.082,-0.988 11.404,-2.217 11.404,-9.44 0,-5.892 -4.793,-10.687 -10.685,-10.687 H 10.685 C 4.794,-26.346 0,-21.551 0,-15.659 c 0,0.959 0.778,1.737 1.736,1.737 0.959,0 1.737,-0.778 1.737,-1.737 0,-3.978 3.235,-7.212 7.212,-7.212 h 2.237 c 3.976,0 7.212,3.234 7.212,7.212 0,4.156 -3.105,4.964 -8.593,6.03 C 6.4,-8.63 0,-7.385 0,0"
             style="fill:#6d6f71;fill-opacity:1;fill-rule:nonzero;stroke:none"
             id="path76" /></g><g
           id="g78"
           transform="translate(737.7422,228.2225)"><path
             d="m 0,0 h 22.639 v 22.639 c 0,3.099 2.511,5.61 5.609,5.61 3.097,0 5.608,-2.511 5.608,-5.61 L 33.856,0 h 22.639 c 3.097,0 5.608,-2.511 5.608,-5.61 0,-3.098 -2.511,-5.608 -5.608,-5.608 H 33.856 v -22.641 c 0,-3.098 -2.511,-5.609 -5.608,-5.609 -3.098,0 -5.609,2.511 -5.609,5.609 v 22.641 H 0 c -3.1,0 -5.611,2.51 -5.611,5.608 C -5.611,-2.511 -3.1,0 0,0"
             style="fill:#cda155;fill-opacity:1;fill-rule:nonzero;stroke:none"
             id="path80" /></g><g
           id="g82"
           transform="translate(306.6333,175.6051)"><path
             d="m 0,0 c 0,-64.698 -52.448,-117.146 -117.146,-117.146 -64.698,0 -117.147,52.448 -117.147,117.146 0,64.698 52.449,117.146 117.147,117.146 C -52.448,117.146 0,64.698 0,0"
             style="fill:#231f20;fill-opacity:1;fill-rule:nonzero;stroke:none"
             id="path84" /></g></g></g><g
       id="g86"><g
         id="g88"><g
           id="g94"><g
             id="g96"><path
               d="m 55.552,161.539 c 0,-67.167 54.447,-121.616 121.611,-121.616 v 0 c 33.719,0 64.226,13.729 86.254,35.895 v 0 C 242.668,59.951 216.746,50.505 188.609,50.505 v 0 c -68.094,0 -123.296,55.203 -123.296,123.299 v 0 c 0,25.004 7.464,48.254 20.254,67.686 v 0 C 66.892,220.11 55.552,192.157 55.552,161.539"
               style="fill:url(#linearGradient106);stroke:none"
               id="path108" /></g></g></g></g><g
       id="g110"><g
         id="g112"><g
           id="g118"><g
             id="g120"><path
               d="m 131.64,248.134 c -3.692,0 -6.682,-3.001 -6.669,-6.694 v 0 l 0.364,-97.575 c 0,-27.996 22.696,-50.692 50.692,-50.692 v 0 h 27.886 c 27.996,0 50.692,22.696 50.692,50.692 v 0 l 0.113,10.391 c -0.014,1.628 1.752,2.647 3.154,1.821 v 0 l 9.414,-5.545 c 1.394,-0.821 3.153,0.184 3.153,1.803 v 0 19.543 c 0,0.685 -0.335,1.327 -0.899,1.719 v 0 l -27.438,19.045 c -0.717,0.498 -1.669,0.498 -2.386,0 v 0 l -27.437,-19.045 c -0.564,-0.392 -0.9,-1.034 -0.9,-1.719 v 0 -19.543 c 0,-1.619 1.759,-2.624 3.154,-1.803 v 0 l 9.37,5.519 c 1.394,0.822 3.154,-0.184 3.154,-1.802 v 0 -10.383 c 0,-12.782 -10.362,-23.144 -23.144,-23.144 v 0 h -27.886 c -12.762,0 -23.143,10.382 -23.143,23.144 v 0 l -0.364,97.624 c -0.014,3.674 -2.996,6.644 -6.669,6.644 v 0 z"
               style="fill:url(#linearGradient134);stroke:none"
               id="path136" /></g></g></g></g></g></svg>
