<svg width="146" height="167" viewBox="0 0 146 167" fill="none" xmlns="http://www.w3.org/2000/svg">
<path d="M6 164C6 165.657 4.65685 167 3 167C1.34315 167 0 165.657 0 164C0 162.343 1.34315 161 3 161C4.65685 161 6 162.343 6 164Z" fill="#D39F36"/>
<path d="M26 164C26 165.657 24.6569 167 23 167C21.3431 167 20 165.657 20 164C20 162.343 21.3431 161 23 161C24.6569 161 26 162.343 26 164Z" fill="#D39F36"/>
<path d="M46 164C46 165.657 44.6569 167 43 167C41.3431 167 40 165.657 40 164C40 162.343 41.3431 161 43 161C44.6569 161 46 162.343 46 164Z" fill="#D39F36"/>
<path d="M66 164C66 165.657 64.6569 167 63 167C61.3431 167 60 165.657 60 164C60 162.343 61.3431 161 63 161C64.6569 161 66 162.343 66 164Z" fill="#D39F36"/>
<path d="M86 164C86 165.657 84.6569 167 83 167C81.3431 167 80 165.657 80 164C80 162.343 81.3431 161 83 161C84.6569 161 86 162.343 86 164Z" fill="#D39F36"/>
<path d="M106 164C106 165.657 104.657 167 103 167C101.343 167 100 165.657 100 164C100 162.343 101.343 161 103 161C104.657 161 106 162.343 106 164Z" fill="#D39F36"/>
<path d="M126 164C126 165.657 124.657 167 123 167C121.343 167 120 165.657 120 164C120 162.343 121.343 161 123 161C124.657 161 126 162.343 126 164Z" fill="#D39F36"/>
<path d="M146 164C146 165.657 144.657 167 143 167C141.343 167 140 165.657 140 164C140 162.343 141.343 161 143 161C144.657 161 146 162.343 146 164Z" fill="#D39F36"/>
<path d="M6 141C6 142.657 4.65685 144 3 144C1.34315 144 0 142.657 0 141C0 139.343 1.34315 138 3 138C4.65685 138 6 139.343 6 141Z" fill="#D39F36"/>
<path d="M6 118C6 119.657 4.65685 121 3 121C1.34315 121 0 119.657 0 118C0 116.343 1.34315 115 3 115C4.65685 115 6 116.343 6 118Z" fill="#D39F36"/>
<path d="M6 95C6 96.6569 4.65685 98 3 98C1.34315 98 0 96.6569 0 95C0 93.3431 1.34315 92 3 92C4.65685 92 6 93.3431 6 95Z" fill="#D39F36"/>
<path d="M6 72C6 73.6569 4.65685 75 3 75C1.34315 75 0 73.6569 0 72C0 70.3431 1.34315 69 3 69C4.65685 69 6 70.3431 6 72Z" fill="#D39F36"/>
<path d="M6 49C6 50.6569 4.65685 52 3 52C1.34315 52 0 50.6569 0 49C0 47.3431 1.34315 46 3 46C4.65685 46 6 47.3431 6 49Z" fill="#D39F36"/>
<path d="M6 26C6 27.6569 4.65685 29 3 29C1.34315 29 0 27.6569 0 26C0 24.3431 1.34315 23 3 23C4.65685 23 6 24.3431 6 26Z" fill="#D39F36"/>
<path d="M6 3C6 4.65685 4.65685 6 3 6C1.34315 6 0 4.65685 0 3C0 1.34315 1.34315 0 3 0C4.65685 0 6 1.34315 6 3Z" fill="#D39F36"/>
<path d="M26 141C26 142.657 24.6569 144 23 144C21.3431 144 20 142.657 20 141C20 139.343 21.3431 138 23 138C24.6569 138 26 139.343 26 141Z" fill="#D39F36"/>
<path d="M26 118C26 119.657 24.6569 121 23 121C21.3431 121 20 119.657 20 118C20 116.343 21.3431 115 23 115C24.6569 115 26 116.343 26 118Z" fill="#D39F36"/>
<path d="M26 95C26 96.6569 24.6569 98 23 98C21.3431 98 20 96.6569 20 95C20 93.3431 21.3431 92 23 92C24.6569 92 26 93.3431 26 95Z" fill="#D39F36"/>
<path d="M26 72C26 73.6569 24.6569 75 23 75C21.3431 75 20 73.6569 20 72C20 70.3431 21.3431 69 23 69C24.6569 69 26 70.3431 26 72Z" fill="#D39F36"/>
<path d="M26 49C26 50.6569 24.6569 52 23 52C21.3431 52 20 50.6569 20 49C20 47.3431 21.3431 46 23 46C24.6569 46 26 47.3431 26 49Z" fill="#D39F36"/>
<path d="M26 26C26 27.6569 24.6569 29 23 29C21.3431 29 20 27.6569 20 26C20 24.3431 21.3431 23 23 23C24.6569 23 26 24.3431 26 26Z" fill="#D39F36"/>
<path d="M26 3C26 4.65685 24.6569 6 23 6C21.3431 6 20 4.65685 20 3C20 1.34315 21.3431 0 23 0C24.6569 0 26 1.34315 26 3Z" fill="#D39F36"/>
<path d="M46 141C46 142.657 44.6569 144 43 144C41.3431 144 40 142.657 40 141C40 139.343 41.3431 138 43 138C44.6569 138 46 139.343 46 141Z" fill="#D39F36"/>
<path d="M46 118C46 119.657 44.6569 121 43 121C41.3431 121 40 119.657 40 118C40 116.343 41.3431 115 43 115C44.6569 115 46 116.343 46 118Z" fill="#D39F36"/>
<path d="M46 95C46 96.6569 44.6569 98 43 98C41.3431 98 40 96.6569 40 95C40 93.3431 41.3431 92 43 92C44.6569 92 46 93.3431 46 95Z" fill="#D39F36"/>
<path d="M46 72C46 73.6569 44.6569 75 43 75C41.3431 75 40 73.6569 40 72C40 70.3431 41.3431 69 43 69C44.6569 69 46 70.3431 46 72Z" fill="#D39F36"/>
<path d="M46 49C46 50.6569 44.6569 52 43 52C41.3431 52 40 50.6569 40 49C40 47.3431 41.3431 46 43 46C44.6569 46 46 47.3431 46 49Z" fill="#D39F36"/>
<path d="M46 26C46 27.6569 44.6569 29 43 29C41.3431 29 40 27.6569 40 26C40 24.3431 41.3431 23 43 23C44.6569 23 46 24.3431 46 26Z" fill="#D39F36"/>
<path d="M46 3C46 4.65685 44.6569 6 43 6C41.3431 6 40 4.65685 40 3C40 1.34315 41.3431 0 43 0C44.6569 0 46 1.34315 46 3Z" fill="#D39F36"/>
<path d="M66 141C66 142.657 64.6569 144 63 144C61.3431 144 60 142.657 60 141C60 139.343 61.3431 138 63 138C64.6569 138 66 139.343 66 141Z" fill="#D39F36"/>
<path d="M66 118C66 119.657 64.6569 121 63 121C61.3431 121 60 119.657 60 118C60 116.343 61.3431 115 63 115C64.6569 115 66 116.343 66 118Z" fill="#D39F36"/>
<path d="M66 95C66 96.6569 64.6569 98 63 98C61.3431 98 60 96.6569 60 95C60 93.3431 61.3431 92 63 92C64.6569 92 66 93.3431 66 95Z" fill="#D39F36"/>
<path d="M66 72C66 73.6569 64.6569 75 63 75C61.3431 75 60 73.6569 60 72C60 70.3431 61.3431 69 63 69C64.6569 69 66 70.3431 66 72Z" fill="#D39F36"/>
<path d="M66 49C66 50.6569 64.6569 52 63 52C61.3431 52 60 50.6569 60 49C60 47.3431 61.3431 46 63 46C64.6569 46 66 47.3431 66 49Z" fill="#D39F36"/>
<path d="M66 26C66 27.6569 64.6569 29 63 29C61.3431 29 60 27.6569 60 26C60 24.3431 61.3431 23 63 23C64.6569 23 66 24.3431 66 26Z" fill="#D39F36"/>
<path d="M66 3C66 4.65685 64.6569 6 63 6C61.3431 6 60 4.65685 60 3C60 1.34315 61.3431 0 63 0C64.6569 0 66 1.34315 66 3Z" fill="#D39F36"/>
<path d="M86 141C86 142.657 84.6569 144 83 144C81.3431 144 80 142.657 80 141C80 139.343 81.3431 138 83 138C84.6569 138 86 139.343 86 141Z" fill="#D39F36"/>
<path d="M106 141C106 142.657 104.657 144 103 144C101.343 144 100 142.657 100 141C100 139.343 101.343 138 103 138C104.657 138 106 139.343 106 141Z" fill="#D39F36"/>
<path d="M126 141C126 142.657 124.657 144 123 144C121.343 144 120 142.657 120 141C120 139.343 121.343 138 123 138C124.657 138 126 139.343 126 141Z" fill="#D39F36"/>
<path d="M146 141C146 142.657 144.657 144 143 144C141.343 144 140 142.657 140 141C140 139.343 141.343 138 143 138C144.657 138 146 139.343 146 141Z" fill="#D39F36"/>
<path d="M86 118C86 119.657 84.6569 121 83 121C81.3431 121 80 119.657 80 118C80 116.343 81.3431 115 83 115C84.6569 115 86 116.343 86 118Z" fill="#D39F36"/>
<path d="M106 118C106 119.657 104.657 121 103 121C101.343 121 100 119.657 100 118C100 116.343 101.343 115 103 115C104.657 115 106 116.343 106 118Z" fill="#D39F36"/>
<path d="M126 118C126 119.657 124.657 121 123 121C121.343 121 120 119.657 120 118C120 116.343 121.343 115 123 115C124.657 115 126 116.343 126 118Z" fill="#D39F36"/>
<path d="M146 118C146 119.657 144.657 121 143 121C141.343 121 140 119.657 140 118C140 116.343 141.343 115 143 115C144.657 115 146 116.343 146 118Z" fill="#D39F36"/>
<path d="M86 95C86 96.6569 84.6569 98 83 98C81.3431 98 80 96.6569 80 95C80 93.3431 81.3431 92 83 92C84.6569 92 86 93.3431 86 95Z" fill="#D39F36"/>
<path d="M106 95C106 96.6569 104.657 98 103 98C101.343 98 100 96.6569 100 95C100 93.3431 101.343 92 103 92C104.657 92 106 93.3431 106 95Z" fill="#D39F36"/>
<path d="M126 95C126 96.6569 124.657 98 123 98C121.343 98 120 96.6569 120 95C120 93.3431 121.343 92 123 92C124.657 92 126 93.3431 126 95Z" fill="#D39F36"/>
<path d="M146 95C146 96.6569 144.657 98 143 98C141.343 98 140 96.6569 140 95C140 93.3431 141.343 92 143 92C144.657 92 146 93.3431 146 95Z" fill="#D39F36"/>
<path d="M86 72C86 73.6569 84.6569 75 83 75C81.3431 75 80 73.6569 80 72C80 70.3431 81.3431 69 83 69C84.6569 69 86 70.3431 86 72Z" fill="#D39F36"/>
<path d="M106 72C106 73.6569 104.657 75 103 75C101.343 75 100 73.6569 100 72C100 70.3431 101.343 69 103 69C104.657 69 106 70.3431 106 72Z" fill="#D39F36"/>
<path d="M126 72C126 73.6569 124.657 75 123 75C121.343 75 120 73.6569 120 72C120 70.3431 121.343 69 123 69C124.657 69 126 70.3431 126 72Z" fill="#D39F36"/>
<path d="M146 72C146 73.6569 144.657 75 143 75C141.343 75 140 73.6569 140 72C140 70.3431 141.343 69 143 69C144.657 69 146 70.3431 146 72Z" fill="#D39F36"/>
<path d="M86 49C86 50.6569 84.6569 52 83 52C81.3431 52 80 50.6569 80 49C80 47.3431 81.3431 46 83 46C84.6569 46 86 47.3431 86 49Z" fill="#D39F36"/>
<path d="M106 49C106 50.6569 104.657 52 103 52C101.343 52 100 50.6569 100 49C100 47.3431 101.343 46 103 46C104.657 46 106 47.3431 106 49Z" fill="#D39F36"/>
<path d="M126 49C126 50.6569 124.657 52 123 52C121.343 52 120 50.6569 120 49C120 47.3431 121.343 46 123 46C124.657 46 126 47.3431 126 49Z" fill="#D39F36"/>
<path d="M146 49C146 50.6569 144.657 52 143 52C141.343 52 140 50.6569 140 49C140 47.3431 141.343 46 143 46C144.657 46 146 47.3431 146 49Z" fill="#D39F36"/>
<path d="M86 26C86 27.6569 84.6569 29 83 29C81.3431 29 80 27.6569 80 26C80 24.3431 81.3431 23 83 23C84.6569 23 86 24.3431 86 26Z" fill="#D39F36"/>
<path d="M106 26C106 27.6569 104.657 29 103 29C101.343 29 100 27.6569 100 26C100 24.3431 101.343 23 103 23C104.657 23 106 24.3431 106 26Z" fill="#D39F36"/>
<path d="M126 26C126 27.6569 124.657 29 123 29C121.343 29 120 27.6569 120 26C120 24.3431 121.343 23 123 23C124.657 23 126 24.3431 126 26Z" fill="#D39F36"/>
<path d="M146 26C146 27.6569 144.657 29 143 29C141.343 29 140 27.6569 140 26C140 24.3431 141.343 23 143 23C144.657 23 146 24.3431 146 26Z" fill="#D39F36"/>
<path d="M86 3C86 4.65685 84.6569 6 83 6C81.3431 6 80 4.65685 80 3C80 1.34315 81.3431 0 83 0C84.6569 0 86 1.34315 86 3Z" fill="#D39F36"/>
<path d="M106 3C106 4.65685 104.657 6 103 6C101.343 6 100 4.65685 100 3C100 1.34315 101.343 0 103 0C104.657 0 106 1.34315 106 3Z" fill="#D39F36"/>
<path d="M126 3C126 4.65685 124.657 6 123 6C121.343 6 120 4.65685 120 3C120 1.34315 121.343 0 123 0C124.657 0 126 1.34315 126 3Z" fill="#D39F36"/>
<path d="M146 3C146 4.65685 144.657 6 143 6C141.343 6 140 4.65685 140 3C140 1.34315 141.343 0 143 0C144.657 0 146 1.34315 146 3Z" fill="#D39F36"/>
</svg>
